<svg width="32" height="16" viewBox="0 0 32 16" fill="none" xmlns="http://www.w3.org/2000/svg">
<path d="M14.8 16H8C5.78667 16 3.9 15.22 2.34 13.66C0.78 12.1 0 10.2133 0 8C0 5.78667 0.78 3.9 2.34 2.34C3.9 0.78 5.78667 0 8 0H14.8V2.4H8C6.44445 2.4 5.12223 2.94353 4.03332 4.0306C2.94444 5.11764 2.4 6.43764 2.4 7.9906C2.4 9.54353 2.94444 10.8667 4.03332 11.96C5.12223 13.0533 6.44445 13.6 8 13.6H14.8V16ZM9.8 9.2V6.8H22.2V9.2H9.8ZM17.2 16V13.6H24C25.5555 13.6 26.8778 13.0565 27.9667 11.9694C29.0556 10.8824 29.6 9.56236 29.6 8.0094C29.6 6.45647 29.0556 5.13333 27.9667 4.04C26.8778 2.94667 25.5555 2.4 24 2.4H17.2V0H24C26.2133 0 28.1 0.78 29.66 2.34C31.22 3.9 32 5.78667 32 8C32 10.2133 31.22 12.1 29.66 13.66C28.1 15.22 26.2133 16 24 16H17.2Z" fill="white"/>
</svg>
