<svg width="33" height="29" viewBox="0 0 33 29" fill="none" xmlns="http://www.w3.org/2000/svg">
<path d="M18.8571 0C11.0471 0 4.71429 6.49278 4.71429 14.5H0L6.11286 20.7672L6.22286 20.9928L12.5714 14.5H7.85714C7.85714 8.265 12.7757 3.22222 18.8571 3.22222C24.9386 3.22222 29.8571 8.265 29.8571 14.5C29.8571 20.735 24.9386 25.7778 18.8571 25.7778C15.8243 25.7778 13.0743 24.505 11.0943 22.4589L8.86286 24.7467C11.4243 27.3728 14.9443 29 18.8571 29C26.6671 29 33 22.5072 33 14.5C33 6.49278 26.6671 0 18.8571 0ZM17.2857 8.05556V16.1111L24.0114 20.2033L25.1429 18.2539L19.6429 14.9028V8.05556H17.2857Z" fill="white"/>
</svg>
