<svg width="26" height="25" viewBox="0 0 26 25" fill="none" xmlns="http://www.w3.org/2000/svg">
<path d="M12.0585 4.63957C12.1678 4.74844 12.2545 4.87781 12.3136 5.02025C12.3728 5.16269 12.4032 5.31541 12.4032 5.46965C12.4032 5.62388 12.3728 5.7766 12.3136 5.91904C12.2545 6.06149 12.1678 6.19085 12.0585 6.29973L7.03022 11.328L21.3857 11.328C21.6965 11.328 21.9946 11.4515 22.2143 11.6713C22.4341 11.891 22.5576 12.1891 22.5576 12.4999C22.5576 12.8107 22.4341 13.1088 22.2143 13.3286C21.9946 13.5483 21.6965 13.6718 21.3857 13.6718L7.03022 13.6718L12.0585 18.7021C12.2787 18.9222 12.4024 19.2208 12.4024 19.5321C12.4024 19.8435 12.2787 20.1421 12.0585 20.3622C11.8384 20.5824 11.5398 20.7061 11.2285 20.7061C10.9171 20.7061 10.6185 20.5824 10.3984 20.3622L3.36714 13.331C3.25789 13.2221 3.1712 13.0927 3.11205 12.9503C3.05291 12.8079 3.02246 12.6551 3.02246 12.5009C3.02246 12.3467 3.05291 12.1939 3.11205 12.0515C3.1712 11.9091 3.25789 11.7797 3.36714 11.6708L10.3984 4.63957C10.5073 4.53032 10.6366 4.44363 10.7791 4.38449C10.9215 4.32534 11.0742 4.29489 11.2285 4.29489C11.3827 4.29489 11.5354 4.32534 11.6779 4.38449C11.8203 4.44363 11.9497 4.53032 12.0585 4.63957Z" fill="#3A425F"/>
</svg>
