<svg width="28" height="36" viewBox="0 0 28 36" fill="none" xmlns="http://www.w3.org/2000/svg">
<path d="M3.48387 36C2.52581 36 1.70536 35.664 1.02252 34.992C0.33968 34.32 -0.00115833 33.5131 2.95745e-06 32.5714V15.4286C2.95745e-06 14.4857 0.341422 13.6783 1.02426 13.0063C1.7071 12.3343 2.52697 11.9989 3.48387 12H5.22581V8.57143C5.22581 6.2 6.07529 4.17829 7.77426 2.50629C9.47323 0.834287 11.527 -0.00114169 13.9355 1.17096e-06C16.3452 1.17096e-06 18.3995 0.836001 20.0984 2.508C21.7974 4.18 22.6463 6.20114 22.6452 8.57143V12H24.3871C25.3452 12 26.1656 12.336 26.8484 13.008C27.5313 13.68 27.8721 14.4869 27.871 15.4286V32.5714C27.871 33.5143 27.5295 34.3217 26.8467 34.9937C26.1639 35.6657 25.344 36.0011 24.3871 36H3.48387ZM13.9355 27.4286C14.8935 27.4286 15.714 27.0926 16.3968 26.4206C17.0797 25.7486 17.4205 24.9417 17.4194 24C17.4194 23.0571 17.0779 22.2497 16.3951 21.5777C15.7123 20.9057 14.8924 20.5703 13.9355 20.5714C12.9774 20.5714 12.157 20.9074 11.4741 21.5794C10.7913 22.2514 10.4505 23.0583 10.4516 24C10.4516 24.9429 10.793 25.7503 11.4759 26.4223C12.1587 27.0943 12.9786 27.4297 13.9355 27.4286ZM8.70968 12H19.1613V8.57143C19.1613 7.14286 18.6532 5.92857 17.6371 4.92857C16.621 3.92857 15.3871 3.42857 13.9355 3.42857C12.4839 3.42857 11.25 3.92857 10.2339 4.92857C9.21774 5.92857 8.70968 7.14286 8.70968 8.57143V12Z" fill="#3F3D3D"/>
</svg>
