<svg width="74" height="74" viewBox="0 0 74 74" fill="none" xmlns="http://www.w3.org/2000/svg">
<g filter="url(#filter0_d_2110_11939)">
<path d="M61.3105 35.8105C61.3105 40.6562 59.8737 45.393 57.1816 49.422C54.4895 53.451 50.6631 56.5912 46.1863 58.4456C41.7095 60.2999 36.7834 60.7851 32.0308 59.8398C27.2783 58.8944 22.9129 56.561 19.4865 53.1347C16.0601 49.7083 13.7267 45.3428 12.7813 40.5903C11.836 35.8377 12.3212 30.9116 14.1755 26.4348C16.0299 21.958 19.1701 18.1316 23.1991 15.4395C27.2281 12.7475 31.9649 11.3106 36.8106 11.3106C40.0284 11.3088 43.2151 11.9414 46.1884 13.172C49.1616 14.4026 51.8632 16.2072 54.1386 18.4826C56.4139 20.758 58.2185 23.4595 59.4491 26.4328C60.6798 29.406 61.3123 32.5927 61.3105 35.8105ZM37.53 33.3645L44.3973 26.4971C44.6435 26.2728 44.8414 26.0005 44.9786 25.6969C45.1159 25.3934 45.1896 25.0651 45.1954 24.732C45.2013 24.3989 45.1391 24.0682 45.0125 23.76C44.886 23.4519 44.6979 23.1728 44.4597 22.94C44.2215 22.7071 43.9381 22.5254 43.6272 22.4059C43.3163 22.2864 42.9842 22.2317 42.6513 22.2451C42.3185 22.2585 41.9919 22.3397 41.6916 22.4838C41.3913 22.6279 41.1235 22.8319 40.9048 23.0831L25.7051 38.2697H36.0911L29.2369 45.1239C28.7772 45.5836 28.519 46.2071 28.519 46.8571C28.519 47.5072 28.7772 48.1306 29.2369 48.5903C29.6966 49.05 30.32 49.3082 30.9701 49.3082C31.6202 49.3082 32.2436 49.05 32.7032 48.5903L47.9291 33.3645H37.53Z" fill="white"/>
</g>
<defs>
<filter id="filter0_d_2110_11939" x="0.310547" y="0.310547" width="73" height="73" filterUnits="userSpaceOnUse" color-interpolation-filters="sRGB">
<feFlood flood-opacity="0" result="BackgroundImageFix"/>
<feColorMatrix in="SourceAlpha" type="matrix" values="0 0 0 0 0 0 0 0 0 0 0 0 0 0 0 0 0 0 127 0" result="hardAlpha"/>
<feOffset dy="1"/>
<feGaussianBlur stdDeviation="6"/>
<feComposite in2="hardAlpha" operator="out"/>
<feColorMatrix type="matrix" values="0 0 0 0 0 0 0 0 0 0 0 0 0 0 0 0 0 0 0.18 0"/>
<feBlend mode="normal" in2="BackgroundImageFix" result="effect1_dropShadow_2110_11939"/>
<feBlend mode="normal" in="SourceGraphic" in2="effect1_dropShadow_2110_11939" result="shape"/>
</filter>
</defs>
</svg>
