<svg width="22" height="36" viewBox="0 0 22 36" fill="none" xmlns="http://www.w3.org/2000/svg">
<path d="M10.9375 23.4395C4.70312 23.4395 0 25.6734 0 28.6348C0 31.1805 3.48906 33.1859 8.43281 33.7054L7.97344 34.1314C7.87092 34.228 7.78955 34.3429 7.73403 34.4695C7.6785 34.5962 7.64991 34.732 7.64991 34.8691C7.64991 35.0063 7.6785 35.1421 7.73403 35.2687C7.78955 35.3954 7.87092 35.5103 7.97344 35.6069C8.07512 35.7043 8.19609 35.7816 8.32937 35.8343C8.46265 35.8871 8.60561 35.9142 8.75 35.9142C8.89439 35.9142 9.03735 35.8871 9.17063 35.8343C9.30391 35.7816 9.42488 35.7043 9.52656 35.6069L11.7141 33.5288C11.8136 33.4299 11.8917 33.3134 11.9438 33.1859C12.0531 32.9329 12.0531 32.6491 11.9438 32.3962C11.8917 32.2686 11.8136 32.1521 11.7141 32.0533L9.52656 29.9752C9.32061 29.7795 9.04127 29.6696 8.75 29.6696C8.45873 29.6696 8.17939 29.7795 7.97344 29.9752C7.76748 30.1708 7.65178 30.4362 7.65178 30.7129C7.65178 30.9896 7.76748 31.255 7.97344 31.4506L8.10469 31.5649C4.375 31.0662 2.1875 29.6738 2.1875 28.6348C2.1875 27.3671 5.6 25.5176 10.9375 25.5176C16.275 25.5176 19.6875 27.3671 19.6875 28.6348C19.6875 29.4972 18.1016 30.7129 15.0828 31.3363C14.9399 31.3623 14.8039 31.4152 14.6828 31.4917C14.5617 31.5683 14.4578 31.667 14.3774 31.7821C14.2969 31.8973 14.2414 32.0265 14.2142 32.1623C14.187 32.2981 14.1885 32.4376 14.2188 32.5728C14.2486 32.7067 14.306 32.8336 14.3877 32.9464C14.4693 33.0591 14.5736 33.1554 14.6946 33.2298C14.8155 33.3041 14.9507 33.355 15.0924 33.3796C15.2341 33.4041 15.3795 33.4019 15.5203 33.3729C19.5125 32.5416 21.875 30.7752 21.875 28.6348C21.875 25.6734 17.1719 23.4395 10.9375 23.4395Z" fill="#2C9425"/>
<rect x="8.75" y="22.3315" width="4.375" height="4.43333" fill="white"/>
<path d="M10.9375 2.4154C11.5175 2.4154 12.0737 2.64024 12.4839 3.04047C12.894 3.4407 13.1244 3.98353 13.1244 4.54954C13.1244 5.11555 12.894 5.65838 12.4839 6.05861C12.0737 6.45884 11.5175 6.68369 10.9375 6.68369C10.3575 6.68369 9.80125 6.45884 9.39113 6.05861C8.981 5.65838 8.7506 5.11555 8.7506 4.54954C8.7506 3.98353 8.981 3.4407 9.39113 3.04047C9.80125 2.64024 10.3575 2.4154 10.9375 2.4154ZM10.9375 0.28125C9.77749 0.28125 8.665 0.730944 7.84475 1.5314C7.0245 2.33186 6.56369 3.41752 6.56369 4.54954C6.56369 5.68156 7.0245 6.76722 7.84475 7.56768C8.665 8.36814 9.77749 8.81784 10.9375 8.81784C12.0975 8.81784 13.21 8.36814 14.0302 7.56768C14.8505 6.76722 15.3113 5.68156 15.3113 4.54954C15.3113 3.41752 14.8505 2.33186 14.0302 1.5314C13.21 0.730944 12.0975 0.28125 10.9375 0.28125ZM13.6274 9.86357H8.24761C7.221 9.86357 6.23645 10.2615 5.51053 10.97C4.78461 11.6784 4.37679 12.6392 4.37679 13.641V19.2752C4.35289 19.8682 4.56876 20.4466 4.97785 20.8858C5.38694 21.3249 5.95649 21.5896 6.56369 21.6227V26.5953C6.56369 27.2745 6.84018 27.9259 7.33233 28.4062C7.82448 28.8864 8.49197 29.1562 9.18798 29.1562H12.687C13.0391 29.1564 13.3877 29.0875 13.7119 28.9535C14.0361 28.8195 14.3294 28.6232 14.5743 28.3762C14.8192 28.1293 15.0106 27.8368 15.1372 27.5162C15.2638 27.1956 15.323 26.8533 15.3113 26.5099V21.6227C15.9185 21.5896 16.4881 21.3249 16.8971 20.8858C17.3062 20.4466 17.5221 19.8682 17.4982 19.2752V13.641C17.4982 12.6392 17.0904 11.6784 16.3645 10.97C15.6386 10.2615 14.654 9.86357 13.6274 9.86357ZM6.56369 19.4886V13.641C6.56075 13.4244 6.6023 13.2094 6.68589 13.0088C6.76947 12.8081 6.8934 12.6258 7.05035 12.4726C7.20731 12.3195 7.39411 12.1985 7.59974 12.117C7.80537 12.0354 8.02566 11.9948 8.24761 11.9977H13.6274C13.8493 11.9948 14.0696 12.0354 14.2753 12.117C14.4809 12.1985 14.6677 12.3195 14.8246 12.4726C14.9816 12.6258 15.1055 12.8081 15.1891 13.0088C15.2727 13.2094 15.3142 13.4244 15.3113 13.641V19.4886H13.1244V26.5526C13.1244 26.6658 13.0783 26.7744 12.9963 26.8544C12.9143 26.9345 12.803 26.9794 12.687 26.9794H9.18798C9.07198 26.9794 8.96073 26.9345 8.8787 26.8544C8.79668 26.7744 8.7506 26.6658 8.7506 26.5526V19.4886H6.56369Z" fill="#2C9425"/>
</svg>
