<svg width="353" height="735" viewBox="0 0 353 735" fill="none" xmlns="http://www.w3.org/2000/svg">
<g clip-path="url(#clip0_251_446)">
<path d="M272.7 723.7C272.2 724.2 271.6 724.7 270.9 724.9C270.2 725.2 269.5 725.3 268.7 725.2C268.4 724.4 268.1 723.2 267.5 721.9C266.9 720.5 266.4 719.4 265.5 718C264.9 717.2 263.9 716 262.4 714.8L268.9 712C269.5 712.9 269.5 713.6 270.3 715.2C271.8 718.4 273.2 718.6 273.4 720.7C273.5 721.8 273.2 722.8 272.7 723.7Z" fill="white" stroke="#27AAE1" stroke-miterlimit="10" stroke-dasharray="6 6"/>
<path d="M268.3 729.1C267.9 729.8 267.4 730.9 266.3 731.1C265.8 731.1 265.4 731.1 264.9 730.9C264.5 730.7 264.1 730.5 263.8 730.1C263.6 728.1 263.2 726.4 262.8 725.3C262.3 723.6 261.7 721.8 260.2 720C259.1 718.6 257.8 717.8 257 717.3L262.4 714.8C263.9 715.9 264.9 717.1 265.5 718C266.4 719.3 267 720.5 267.5 721.9C268.1 723.2 268.5 724.4 268.7 725.2C269.1 726.5 268.9 727.9 268.3 729.1Z" fill="white" stroke="#27AAE1" stroke-miterlimit="10" stroke-dasharray="6 6"/>
<path d="M263.8 730.1C263.5 730.8 263 731.4 262.4 731.7C261.7 732 260.9 732.1 260.2 732C259.4 731.9 258.7 731.5 258.2 730.9C258.3 730.1 258.3 729 258.1 727.6C257.9 726.5 257.5 724.1 255.5 721.8C254 720.1 252.3 719.3 251.3 718.9L257.1 717.4C257.9 717.9 259.2 718.7 260.3 720.1C261.8 721.9 262.4 723.7 262.9 725.4C263.2 726.4 263.6 728 263.8 730.1Z" fill="white" stroke="#27AAE1" stroke-miterlimit="10" stroke-dasharray="6 6"/>
<path d="M258.1 730.9C257.6 731.6 256.8 732.1 256 732.4C253.5 733.2 251.4 731.3 251.2 731.2C251.1 730.5 250.9 729.4 250.4 728.2C249.9 726.9 248.9 724.3 246.4 722.2C245.7 721.6 244.6 720.9 243.1 720.3L251.1 718.9C252.2 719.3 253.9 720.2 255.3 721.8C257.3 724.1 257.7 726.5 257.9 727.6C258.2 729 258.2 730.1 258.1 730.9Z" fill="white" stroke="#27AAE1" stroke-miterlimit="10" stroke-dasharray="6 6"/>
<path d="M251.2 731.2C250.6 732 249.9 732.7 249 733.2C247.5 734.1 245.8 734.6 244 734.5C241.8 734.4 239.9 732.4 236.1 728.5C232.4 724.6 232.3 722.9 232.2 721.8L243.1 720.3C244.6 720.9 245.7 721.7 246.4 722.2C248.9 724.3 249.9 726.9 250.4 728.2C250.9 729.4 251.1 730.5 251.2 731.2Z" fill="white" stroke="#27AAE1" stroke-miterlimit="10" stroke-dasharray="6 6"/>
<path d="M79.6999 723.7C80.1999 724.2 80.7999 724.7 81.4999 724.9C82.1999 725.2 82.8999 725.3 83.6999 725.2C83.9999 724.4 84.2999 723.2 84.8999 721.9C85.4999 720.5 85.9999 719.4 86.8999 718C87.4999 717.2 88.4999 716 89.9999 714.8L83.4999 712C82.8999 712.9 82.8999 713.6 82.0999 715.2C80.5999 718.4 79.1999 718.6 78.9999 720.7C78.8999 721.8 79.0999 722.8 79.6999 723.7Z" fill="white" stroke="#27AAE1" stroke-miterlimit="10" stroke-dasharray="6 6"/>
<path d="M84.1 729.1C84.5 729.8 85 730.9 86.1 731.1C86.6 731.1 87 731.1 87.5 730.9C87.9 730.7 88.3 730.5 88.6 730.1C88.8 728.1 89.2 726.4 89.6 725.3C90.1 723.6 90.7 721.8 92.2 720C93.3 718.6 94.6001 717.8 95.4001 717.3L90 714.8C88.5 715.9 87.5001 717.1 86.9001 718C86.0001 719.3 85.4001 720.5 84.9001 721.9C84.3001 723.2 83.9 724.4 83.7 725.2C83.3 726.5 83.5 727.9 84.1 729.1Z" fill="white" stroke="#27AAE1" stroke-miterlimit="10" stroke-dasharray="6 6"/>
<path d="M88.6001 730.1C88.9001 730.8 89.4001 731.4 90.0001 731.7C90.7001 732 91.5001 732.1 92.2001 732C93.0001 731.9 93.7001 731.5 94.2001 730.9C94.1001 730.1 94.1001 729 94.3001 727.6C94.5001 726.5 94.9001 724.1 96.9001 721.8C98.4001 720.1 100.1 719.3 101.1 718.9L95.3001 717.4C94.5001 717.9 93.2001 718.7 92.1001 720.1C90.6001 721.9 90.0001 723.7 89.5001 725.4C89.2001 726.4 88.8001 728 88.6001 730.1Z" fill="white" stroke="#27AAE1" stroke-miterlimit="10" stroke-dasharray="6 6"/>
<path d="M94.3 730.9C94.8 731.6 95.6 732.1 96.4 732.4C98.9 733.2 101 731.3 101.2 731.2C101.3 730.5 101.5 729.4 102 728.2C102.5 726.9 103.5 724.3 106 722.2C106.7 721.6 107.8 720.9 109.3 720.3L101.3 718.9C100.2 719.3 98.5 720.2 97.1 721.8C95.1 724.1 94.7 726.5 94.5 727.6C94.2 729 94.2 730.1 94.3 730.9Z" fill="white" stroke="#27AAE1" stroke-miterlimit="10" stroke-dasharray="6 6"/>
<path d="M101.1 731.2C101.7 732 102.4 732.7 103.3 733.2C104.8 734.1 106.5 734.6 108.3 734.5C110.5 734.4 112.4 732.4 116.2 728.5C119.9 724.6 120 722.9 120.1 721.8L109.2 720.3C107.7 720.9 106.6 721.7 105.9 722.2C103.4 724.3 102.4 726.9 101.9 728.2C101.5 729.4 101.3 730.5 101.1 731.2Z" fill="white" stroke="#27AAE1" stroke-miterlimit="10" stroke-dasharray="6 6"/>
<path d="M251.6 676.9L249 675.6L256.5 715.3L256.9 717.3L262.3 714.8L268.8 712C268.7 711.8 268.5 711.6 268.4 711.4C267.8 710.7 267.5 710.5 266.3 709.3C265.6 708.6 265 707.9 264.4 707.1C262.6 704.9 261.1 702.4 260 699.8C258 695 259 694 256.8 689.1C255.4 686.1 254.7 685.8 254.4 683.7C254 681.1 254.7 680 254.7 678.2L251.6 676.9Z" fill="white" stroke="#27AAE1" stroke-miterlimit="10" stroke-dasharray="6 6"/>
<path d="M256.9 717.4L251.2 718.9L243.2 720.3L243.1 718.9L240.3 677.3L245.1 673.7L247.5 674.9L249 675.6L256.6 715.4L256.9 717.4Z" fill="white" stroke="#27AAE1" stroke-miterlimit="10" stroke-dasharray="6 6"/>
<path d="M243.2 720.3L232.3 721.8C232.3 721.6 232.3 721.4 232.3 721.3C232 718.5 232 715.6 232.3 712.8C232.8 710.5 232.9 708.2 232.6 705.9C232.4 704.2 231.8 698.1 231.8 693.1C231.8 687.6 232.6 685.5 232.2 683.1C233.7 682.1 235.1 681.1 236.5 680.1H236.6L238.9 678.3L240.3 677.2L243.1 718.9L243.2 720.3Z" fill="white" stroke="#27AAE1" stroke-miterlimit="10" stroke-dasharray="6 6"/>
<path d="M100.8 676.9L103.4 675.6L95.9001 715.3L95.5001 717.3L90.1001 714.8L83.6001 712C83.7001 711.8 83.9001 711.6 84.0001 711.4C84.6001 710.7 84.9001 710.5 86.1001 709.3C86.8001 708.6 87.4001 707.9 88.0001 707.1C89.8001 704.9 91.3001 702.4 92.4001 699.8C94.4001 695 93.4001 694 95.6001 689.1C97.0001 686.1 97.7001 685.8 98.0001 683.7C98.4001 681.1 97.7001 680 97.7001 678.2L100.8 676.9Z" fill="white" stroke="#27AAE1" stroke-miterlimit="10" stroke-dasharray="6 6"/>
<path d="M95.5 717.4L101.2 718.9L109.2 720.3L109.3 718.9L112.1 677.3L107.3 673.7L104.9 674.9L103.4 675.6L95.8 715.4L95.5 717.4Z" fill="white" stroke="#27AAE1" stroke-miterlimit="10" stroke-dasharray="6 6"/>
<path d="M109.2 720.3L120.1 721.8C120.1 721.6 120.1 721.4 120.1 721.3C120.4 718.5 120.4 715.6 120.1 712.8C119.6 710.5 119.5 708.2 119.8 705.9C120 704.2 120.6 698.1 120.6 693.1C120.6 687.6 119.8 685.5 120.2 683.1C118.7 682.1 117.3 681.1 115.9 680.1H115.8L113.5 678.3L112.1 677.2L109.3 718.9L109.2 720.3Z" fill="white" stroke="#27AAE1" stroke-miterlimit="10" stroke-dasharray="6 6"/>
<path d="M254.8 678.4L251.6 676.9L249 675.7L247.5 675L245 673.8C244.6 672 244.2 670.2 243.8 668.4C243.6 667.4 243.4 666.4 243.2 665.4C243.1 664.9 243 664.5 242.9 664C242.8 663.5 242.7 662.9 242.6 662.4C242.5 661.6 242.3 660.8 242.2 659.9C242.1 659 241.9 658.1 241.8 657.1C241.7 656.5 241.6 655.9 241.6 655.2C241.5 654.4 241.4 653.7 241.3 652.9C241.2 652.1 241.1 651.2 241 650.4C240.9 649.6 240.9 648.7 240.8 647.9C240.7 646.5 240.6 645 240.5 643.6C240.5 643 240.4 642.4 240.4 641.8C240.4 641.2 240.4 640.6 240.4 640.1C240.4 639.5 240.4 638.9 240.4 638.3C240.4 636 240.4 633.6 240.5 631.3C240.5 630.7 240.5 630.1 240.6 629.5H254.5C254.5 629.7 254.4 629.9 254.4 630.1C254.4 630.3 254.3 630.5 254.3 630.7C253.4 635.6 252.7 638.6 252 644.4C251.6 646.3 251.3 648.1 251 649.6C250.7 662.2 253.7 674.4 254.4 676.7C254.7 677.5 254.8 678 254.8 678.4Z" fill="white" stroke="#27AAE1" stroke-miterlimit="10" stroke-dasharray="6 6"/>
<path d="M97.6001 678.4L100.8 676.9L103.4 675.7L104.9 675L107.4 673.8C107.8 672 108.2 670.2 108.6 668.4C108.8 667.4 109 666.4 109.2 665.4C109.3 664.9 109.4 664.5 109.5 664C109.6 663.5 109.7 662.9 109.8 662.4C109.9 661.6 110.1 660.8 110.2 659.9C110.3 659 110.5 658.1 110.6 657.1C110.7 656.5 110.8 655.9 110.8 655.2C110.9 654.4 111 653.7 111.1 652.9C111.2 652.1 111.3 651.2 111.4 650.4C111.5 649.6 111.5 648.7 111.6 647.9C111.7 646.5 111.8 645 111.9 643.6C111.9 643 112 642.4 112 641.8C112 641.2 112 640.6 112 640.1C112 639.5 112 638.9 112 638.3C112 636 112 633.6 111.9 631.3C111.9 630.7 111.9 630.1 111.8 629.5H97.8001C97.8001 629.7 97.9001 629.9 97.9001 630.1C97.9001 630.3 98.0001 630.5 98.0001 630.7C98.9001 635.6 99.6001 638.6 100.3 644.4C100.7 646.3 101 648.1 101.3 649.6C101.6 662.2 98.6001 674.4 97.9001 676.7C97.7001 677.5 97.6001 678 97.6001 678.4Z" fill="white" stroke="#27AAE1" stroke-miterlimit="10" stroke-dasharray="6 6"/>
<path d="M245.1 673.7L240.3 677.2L238.9 678.3L236.6 680.1H236.5C235.1 681.1 233.6 682.1 232.2 683.1C232.1 682.5 231.9 681.8 231.6 681.1C230.7 679 229.8 678.5 229.4 676.3C229 673.7 230 672.3 230.7 669C230.8 668.4 231 667.4 231.1 664.1V664C231.2 662.6 231.4 661.1 231.6 659.5C231.6 652.1 231.5 647.1 230.7 641.7C230.6 641.4 230.6 641.1 230.5 640.8C230.5 640.7 230.5 640.5 230.4 640.4C230.4 640.2 230.4 640.1 230.3 639.9C230.2 639.6 230.2 639.4 230.2 639.2C230.1 638.6 229.9 637.9 229.7 637.2C229.1 634.7 228.3 632.5 227.4 629.9C227.4 629.8 227.3 629.7 227.3 629.7H240.6C240.6 630.3 240.6 630.9 240.5 631.5C240.4 633.8 240.4 636.2 240.4 638.5C240.4 639.1 240.4 639.7 240.4 640.3C240.4 640.9 240.4 641.5 240.4 642C240.4 642.6 240.4 643.2 240.5 643.8C240.6 645.2 240.7 646.7 240.8 648.1C240.9 648.9 240.9 649.7 241 650.6C241.1 651.4 241.2 652.2 241.3 653.1C241.4 653.9 241.5 654.7 241.6 655.4C241.7 656 241.8 656.6 241.8 657.3C241.9 658.2 242.1 659.1 242.2 660.1C242.3 660.9 242.5 661.7 242.6 662.6C242.7 663.1 242.8 663.7 242.9 664.2C243 664.7 243.1 665.1 243.2 665.6C243.4 666.6 243.6 667.6 243.8 668.6C244.2 670.1 244.6 671.9 245.1 673.7Z" fill="white" stroke="#27AAE1" stroke-miterlimit="10" stroke-dasharray="6 6"/>
<path d="M107.3 673.7L112.1 677.2L113.5 678.3L115.8 680.1H115.9C117.3 681.1 118.8 682.1 120.2 683.1C120.3 682.5 120.5 681.8 120.8 681.1C121.7 679 122.6 678.5 123 676.3C123.4 673.7 122.4 672.3 121.7 669C121.6 668.4 121.4 667.4 121.3 664.1V664C121.2 662.6 121 661.1 120.8 659.5C120.8 652.1 120.9 647.1 121.7 641.7C121.8 641.4 121.8 641.1 121.9 640.8C121.9 640.7 121.9 640.5 122 640.4C122 640.2 122 640.1 122.1 639.9C122.2 639.6 122.2 639.4 122.2 639.2C122.3 638.6 122.5 637.9 122.7 637.2C123.3 634.7 124.1 632.5 125 629.9C125 629.8 125.1 629.7 125.1 629.7H111.8C111.8 630.3 111.8 630.9 111.9 631.5C112 633.8 112 636.2 112 638.5C112 639.1 112 639.7 112 640.3C112 640.9 112 641.5 112 642C112 642.6 112 643.2 111.9 643.8C111.8 645.2 111.7 646.7 111.6 648.1C111.5 648.9 111.5 649.7 111.4 650.6C111.3 651.4 111.2 652.2 111.1 653.1C111 653.9 110.9 654.7 110.8 655.4C110.7 656 110.6 656.6 110.6 657.3C110.5 658.2 110.3 659.1 110.2 660.1C110.1 660.9 109.9 661.7 109.8 662.6C109.7 663.1 109.6 663.7 109.5 664.2C109.4 664.7 109.3 665.1 109.2 665.6C109 666.6 108.8 667.6 108.6 668.6C108.2 670.1 107.8 671.9 107.3 673.7Z" fill="white" stroke="#27AAE1" stroke-miterlimit="10" stroke-dasharray="6 6"/>
<path d="M255.6 622.7C255.3 625.5 254.9 627.8 254.6 629.8H240.7V629.7C241.7 600.6 241.4 571.5 231 542.5H247.6C247.9 544.6 248.3 546.6 248.7 548.7C251.2 560.4 253.4 562 255.5 573.3C257 581.7 257.1 588.1 257.2 595.6C257.1 599.6 257.1 609.6 255.6 622.7Z" fill="white" stroke="#27AAE1" stroke-miterlimit="10" stroke-dasharray="6 6"/>
<path d="M96.8 622.7C97.1 625.5 97.5 627.8 97.8 629.8H111.7V629.7C110.7 600.6 111 571.5 121.4 542.5H104.8C104.5 544.6 104.1 546.6 103.7 548.7C101.2 560.4 99 562 96.9 573.3C95.4 581.7 95.3 588.1 95.2 595.6C95.3 599.6 95.2 609.6 96.8 622.7Z" fill="white" stroke="#27AAE1" stroke-miterlimit="10" stroke-dasharray="6 6"/>
<path d="M240.7 629.6V629.7H227.4C226.8 628 226.1 626.2 225.4 624C225.4 624 219.3 606 215.8 585.2C214.1 574.8 212.6 561 211.9 553.7C211.4 548.4 211.1 545.3 210.5 542.4H231C241.3 571.4 241.6 600.5 240.7 629.6Z" fill="white" stroke="#27AAE1" stroke-miterlimit="10" stroke-dasharray="6 6"/>
<path d="M111.7 629.6V629.7H125C125.6 628 126.3 626.2 127 624C127 624 133.1 606 136.6 585.2C138.3 574.8 139.8 561 140.5 553.7C141 548.4 141.3 545.3 141.9 542.4H121.4C111.1 571.4 110.8 600.5 111.7 629.6Z" fill="white" stroke="#27AAE1" stroke-miterlimit="10" stroke-dasharray="6 6"/>
<path d="M247.5 542.4H210.4C210.1 540.9 209.8 539.4 209.2 537.7C206.5 528.5 203.4 526.4 201.3 517.9C199.6 511.3 200.6 509.1 200 501C199.6 496.1 198.9 492.2 197.9 488.4H244.7C244.7 489.1 244.7 489.8 244.7 490.5C245 514.2 245.3 520.1 245.6 524.4C246.4 532.3 246.8 537.4 247.5 542.4Z" fill="white" stroke="#27AAE1" stroke-miterlimit="10" stroke-dasharray="6 6"/>
<path d="M104.9 542.4H142C142.3 540.9 142.6 539.4 143.2 537.7C145.9 528.5 149 526.4 151.1 517.9C152.8 511.3 151.8 509.1 152.4 501C152.8 496.1 153.5 492.2 154.5 488.4H107.7C107.7 489.1 107.7 489.8 107.7 490.5C107.4 514.2 107.1 520.1 106.8 524.4C106 532.3 105.6 537.4 104.9 542.4Z" fill="white" stroke="#27AAE1" stroke-miterlimit="10" stroke-dasharray="6 6"/>
<path d="M209.4 488.4H198C197 484.4 195.6 480.5 194.2 475.9C194.2 475.8 194.2 475.8 194.2 475.7C194 475.1 193.9 474.6 193.7 474C193.7 473.8 193.6 473.7 193.6 473.5C190.6 462.1 179.5 414.2 178.6 394C178.3 388.4 178.1 383.4 177.9 379H198.3L209.4 488.4Z" fill="white" stroke="#27AAE1" stroke-miterlimit="10" stroke-dasharray="6 6"/>
<path d="M143 488.4H154.4C155.4 484.4 156.8 480.5 158.2 475.9C158.2 475.8 158.2 475.8 158.2 475.7C158.4 475.1 158.5 474.6 158.7 474C158.7 473.8 158.8 473.7 158.8 473.5C161.8 462.1 172.9 414.2 173.8 394C174.1 388.4 174.3 383.4 174.5 379H154.1L143 488.4Z" fill="white" stroke="#27AAE1" stroke-miterlimit="10" stroke-dasharray="6 6"/>
<path d="M235.7 379L228 488.4H209.4L198.2 379H235.7Z" fill="white" stroke="#27AAE1" stroke-miterlimit="10" stroke-dasharray="6 6"/>
<path d="M116.6 379L124.3 488.4H143L154.2 379H116.6Z" fill="white" stroke="#27AAE1" stroke-miterlimit="10" stroke-dasharray="6 6"/>
<path d="M244.7 469.9V470C244.7 473.9 244.8 479.3 244.8 485.8C244.8 486.6 244.8 487.5 244.8 488.4H228L235.7 379H247.1C247.3 395.5 247.1 415.1 247 422.6C246.8 439.3 246 455.1 244.7 469.9Z" fill="white" stroke="#27AAE1" stroke-miterlimit="10" stroke-dasharray="6 6"/>
<path d="M107.7 469.9V470C107.7 473.9 107.6 479.3 107.6 485.8C107.6 486.6 107.6 487.5 107.6 488.4H124.4L116.6 379H105.2C105 395.5 105.2 415.1 105.3 422.6C105.6 439.3 106.4 455.1 107.7 469.9Z" fill="white" stroke="#27AAE1" stroke-miterlimit="10" stroke-dasharray="6 6"/>
<path d="M247.2 379H205.5V321.6H238.9C239 322.1 239.1 322.6 239.3 323.1C243.7 341.5 245.9 350.7 246.4 353.9C246.8 356.9 247.1 367.1 247.2 379Z" fill="white" stroke="#27AAE1" stroke-miterlimit="10" stroke-dasharray="6 6"/>
<path d="M147.7 321.6V379H105.3C105.4 367.1 105.7 356.8 106.2 353.8C106.7 350.7 108.9 341.5 113.3 323C113.4 322.5 113.5 322 113.7 321.5H147.7V321.6Z" fill="white" stroke="#27AAE1" stroke-miterlimit="10" stroke-dasharray="6 6"/>
<path d="M205.4 339.3V379H177.8C177.7 375.8 177.5 373 177.4 370.5C177 370.5 176.6 370.5 176.3 370.5C175.8 370.5 175.3 370.5 174.9 370.5C174.8 373 174.7 375.8 174.5 379H147.6V339.2H205.4V339.3Z" fill="white" stroke="#27AAE1" stroke-miterlimit="10" stroke-dasharray="6 6"/>
<path d="M205.5 274.9H176.6V339.2H205.5V274.9Z" fill="white" stroke="#27AAE1" stroke-miterlimit="10" stroke-dasharray="6 6"/>
<path d="M176.6 274.9H147.7V339.2H176.6V274.9Z" fill="white" stroke="#27AAE1" stroke-miterlimit="10" stroke-dasharray="6 6"/>
<path d="M238.8 321.6H205.4V225.3L228.5 237C227.7 241.6 226.7 246.8 225.7 253C224.4 260.3 223.7 264.4 224.9 269.9C225 270.2 225 270.4 225.1 270.7C227.3 279.9 236.6 312.7 238.6 321C238.7 321.2 238.8 321.4 238.8 321.6Z" fill="white" stroke="#27AAE1" stroke-miterlimit="10" stroke-dasharray="6 6"/>
<path d="M147.7 225.3V321.7H114.3C119.6 301.2 125.8 277.3 127.3 270.9C127.4 270.5 127.5 270.2 127.5 270C128.7 264.6 128 260.4 126.7 253.1C125.6 247 124.7 241.9 123.9 237.4L147.7 225.3Z" fill="white" stroke="#27AAE1" stroke-miterlimit="10" stroke-dasharray="6 6"/>
<path d="M205.4 225.3V274.9H176.6V209.2L205.4 225.3Z" fill="white" stroke="#27AAE1" stroke-miterlimit="10" stroke-dasharray="6 6"/>
<path d="M176.6 209.2V274.9H147.7V225.3L176.6 209.2Z" fill="white" stroke="#27AAE1" stroke-miterlimit="10" stroke-dasharray="6 6"/>
<path d="M232.9 215.6C231.6 220.9 230.3 227.3 228.6 237L205.5 225.3L176.6 209.2C198.1 209.2 218.5 212.4 232.9 215.6Z" fill="white" stroke="#27AAE1" stroke-miterlimit="10" stroke-dasharray="6 6"/>
<path d="M176.6 209.2L147.7 225.3L124 237.3C122.2 227.4 121 220.9 119.6 215.7C119.6 215.5 119.6 215.3 119.5 215.2C133.9 212 154.7 209.2 176.6 209.2Z" fill="white" stroke="#27AAE1" stroke-miterlimit="10" stroke-dasharray="6 6"/>
<path d="M190.6 171.3V187.5L176.6 195.5L162.5 187.5V171.3L176.2 163.4L176.6 163.2L190.6 171.3Z" fill="white" stroke="#27AAE1" stroke-miterlimit="10" stroke-dasharray="6 6"/>
<path d="M31.6999 397.7C33.1999 398.1 34.4999 396.6 35.1999 395.2C37.3999 390.5 37.7999 385.1 39.0999 380.1C39.2999 379.4 39.4999 378.6 39.6999 377.9C38.0999 377.4 36.3999 376.9 34.7999 376.4L33.5999 379C31.7999 383.6 30.5999 388.5 29.9999 393.4C29.8999 395.1 30.0999 397.3 31.6999 397.7Z" fill="white" stroke="#27AAE1" stroke-miterlimit="10" stroke-dasharray="6 6"/>
<path d="M21.4001 396.6C21.6001 397.3 22.0001 398 22.8001 398.3C24.1001 398.7 25.2001 397.4 25.9001 396.2C29.0001 390.7 31.3001 384.9 33.7001 379L34.9001 376.4C33.7001 376 32.4001 375.6 31.2001 375.1C30.2001 374.8 29.3001 374.4 28.4001 374.1L27.2001 376.7C25.0001 381.7 23.3001 386.9 21.8001 392.1C21.4001 393.6 21.0001 395.2 21.4001 396.6Z" fill="white" stroke="#27AAE1" stroke-miterlimit="10" stroke-dasharray="6 6"/>
<path d="M12.3001 394.8C12.4001 395.5 12.8001 396.2 13.3001 396.6C14.2001 397.2 15.5001 397 16.4001 396.3C17.3001 395.6 17.8001 394.6 18.3001 393.6C21.2001 388 24.2001 382.3 27.1001 376.7L28.3001 374.1C25.9001 373.2 23.5001 372.2 21.3001 371.3L20.2001 373C20.2001 373.1 20.1001 373.1 20.1001 373.2C20.1001 373.3 20.0001 373.4 20.0001 373.4C19.9001 373.6 19.8001 373.7 19.7001 373.9C19.6001 374 19.6001 374.2 19.4001 374.3C16.6001 379.2 14.4001 384.4 12.8001 389.8C12.4001 391.5 12.0001 393.2 12.3001 394.8Z" fill="white" stroke="#27AAE1" stroke-miterlimit="10" stroke-dasharray="6 6"/>
<path d="M4.49999 388.8C7.69999 390.9 10.8 385.2 14 381.7C16.5 378.9 18.4 376 19.4 374.4C19.5 374.2 19.6 374.1 19.7 374C19.8 373.8 19.9 373.7 20 373.5C20 373.4 20.1 373.3 20.1 373.3C20.1 373.2 20.1 373.2 20.2 373.1L21.3 371.4C18.7 370.3 16.2 369.1 13.8 368C4.59999 383.7 2.29999 387.4 4.49999 388.8Z" fill="white" stroke="#27AAE1" stroke-miterlimit="10" stroke-dasharray="6 6"/>
<path d="M0.699914 370.2C0.899914 370.8 1.09991 371.3 1.59991 371.7C2.69991 372.5 4.19991 371.8 5.39991 371.1C8.79991 369 11.5999 365.7 15.4999 364.9C15.1999 365.5 14.7999 366.1 14.4999 366.7C15.1999 366.3 15.9999 365.7 16.9999 365C19.4999 363.1 22.4999 360.1 24.6999 355.6C26.8999 351 27.2999 346.7 27.1999 343.6C24.0999 345.5 20.7999 346.8 17.8999 348.9C14.0999 351.5 11.1999 355.2 7.79991 358.3C5.99991 359.9 3.99991 361.4 2.59991 363.4C0.999914 365.4 0.099914 367.9 0.699914 370.2Z" fill="white" stroke="#27AAE1" stroke-miterlimit="10" stroke-dasharray="6 6"/>
<path d="M13.8 367.9C16.1 369.1 18.6 370.2 21.3 371.3C23.5 372.2 25.9 373.2 28.3 374.1C29.2 374.4 30.1 374.8 31.1 375.1C32.4 375.5 33.6 376 34.8 376.4C36.5 376.9 38.1 377.5 39.7001 377.9C40.8001 374.4 42.4001 371 44.4001 367.9C45.7001 365.9 47.2001 363.9 47.9001 361.6C48.8001 358.3 47.7001 355.1 47.8 351.8C47.9 349.2 51.6001 344.5 51.9001 344.1L37.8 332.2C35.6 335.9 33 339.3 29.8 341.9C28.9 342.6 28 343.2 27.1 343.7C27.2 346.8 26.8 351.2 24.6 355.7C22.5 360.2 19.4 363.2 16.9 365.1C16 365.8 15.1 366.4 14.4 366.8C14.3 367.1 14.1 367.5 13.8 367.9Z" fill="white" stroke="#27AAE1" stroke-miterlimit="10" stroke-dasharray="6 6"/>
<path d="M60.5999 329.7C57.6999 334.5 54.7999 339.3 51.9999 344.1L37.8999 332.2C39.5999 328.4 41.4999 323.8 43.3999 318.5L60.5999 329.7Z" fill="white" stroke="#27AAE1" stroke-miterlimit="10" stroke-dasharray="6 6"/>
<path d="M92.8 270.9C92.1 272.2 91.4 272.8 90.5 274.3C90.4 274.5 90.2999 274.6 90.1999 274.8C89.9999 275.1 89.8999 275.4 89.6999 275.7C89.6999 275.8 89.5999 275.9 89.5 276.1C89.4 276.3 89.3 276.4 89.3 276.6C88.8 277.7 88.3999 278.7 88.0999 279.6C88 280 87.7999 280.4 87.6999 280.9C87.5999 281.4 87.4 281.9 87.3 282.4C87.3 282.5 87.2999 282.6 87.1999 282.7C87.1999 282.9 87.0999 283.1 87 283.3C86.7 284.6 86.2999 286 85.5 287.9C85.4 288.2 85.2999 288.4 85.1999 288.7C85.0999 289 85 289.2 84.9 289.5C84.8 289.6 84.7999 289.8 84.6999 289.9C84.6999 290 84.5999 290.2 84.5 290.3C84.4 290.4 84.4 290.6 84.3 290.7C84.2 290.9 84.0999 291 84 291.2C83.9 291.4 83.7999 291.6 83.6999 291.8C83.2999 292.6 82.7999 293.5 82.1999 294.5C81.9999 294.9 81.7 295.3 81.5 295.8C81.4 295.9 81.2999 296.1 81.1999 296.3C80.9999 296.7 80.7 297.1 80.5 297.5C80.2999 297.9 80 298.3 79.8 298.6C79.5 299.2 79.2 299.7 78.8 300.2C77.9 301.7 76.9999 303.1 76.1999 304.4C76.0999 304.6 75.9 304.8 75.8 305C75.6 305.4 75.2999 305.8 75.0999 306.1C74.6999 306.7 74.4 307.2 74 307.8C73.6 308.4 73.2 309 72.8 309.6C72.4 310.2 72 310.9 71.5 311.6C69.7999 314.3 68.2 317 66.5 319.7C66.2999 320 66.1 320.3 66 320.6C64.5 323.1 63 325.5 61.5 328C61.2 328.5 60.9 329 60.5 329.6L43.2 318.4C43.8 316.7 44.4 314.9 45 313C45 312.9 45.0999 312.7 45.0999 312.6C45.1999 312.3 45.3 312 45.4 311.7C45.5 311.4 45.6 311.1 45.7 310.8C45.9 310.3 46 309.8 46.2 309.3C46.3 309 46.4 308.7 46.5 308.4C46.6 308.1 46.6 307.9 46.7 307.6C46.8 307.3 46.9 307.1 46.9 306.8C48 302.7 49.4999 297 51.5999 288.8C51.8999 287.5 52.4999 285.2 53.0999 282C53.6999 279.1 53.9 277.5 54.2 275.2C54.9 270.7 55.4999 267.2 56.5999 263.4C56.6999 263.2 56.6999 262.9 56.7999 262.7C56.7999 262.7 56.7999 262.7 56.7999 262.6C56.7999 262.5 56.7999 262.5 56.7999 262.5C57.6999 260 58.6999 257.3 60.0999 254.3L92.8 270.9Z" fill="white" stroke="#27AAE1" stroke-miterlimit="10" stroke-dasharray="6 6"/>
<path d="M101.5 236.1C101.5 236.2 101.4 236.4 101.3 236.5C100.9 237.5 100.6 238.6 100.2 239.7C100.2 239.8 100.2 239.9 100.1 239.9C99.7001 241.1 99.3001 242.3 98.8001 243.5V243.6V243.7C98.8001 243.7 98.8001 243.8 98.7001 243.8C98.6001 244.1 98.5001 244.5 98.3001 245C98.2001 245.3 98.1001 245.6 98.0001 245.9C97.6001 247.2 97.1001 248.9 96.7001 251C96.6001 251.5 96.5001 252 96.4001 252.6C96.1001 253.9 95.9001 255.3 95.7001 256.8C95.7001 257 95.7001 257.1 95.7001 257.3C95.7001 257.5 95.7001 257.6 95.7001 257.8C95.6001 258.8 95.5001 259.8 95.5001 260.7C95.5001 261.3 95.4001 261.8 95.4001 262.4C95.3001 263.2 95.3001 263.9 95.1001 264.7C95.0001 265.4 94.9001 266 94.7001 266.7C94.6001 267.2 94.4001 267.6 94.2001 268.1C94.2001 268.2 94.1001 268.4 94.1001 268.5C94.0001 268.6 94.0001 268.8 93.9001 268.9C93.9001 269 93.8001 269.1 93.8001 269.2C93.8001 269.3 93.7001 269.4 93.7001 269.5C93.6001 269.8 93.4001 270.1 93.3001 270.3C93.3001 270.4 93.2001 270.5 93.2001 270.5C93.2001 270.6 93.1001 270.7 93.1001 270.7L60.6001 254.3C60.9001 253.6 61.2001 252.9 61.5001 252.3C62.8001 249.6 63.8001 247.7 65.0001 245.3C65.2001 244.8 65.5001 244.4 65.7001 243.8C66.0001 243 66.4001 242.2 66.8001 241.2C66.9001 240.9 67.1001 240.6 67.2001 240.2C69.4001 234.8 71.9001 231 72.8001 229.6C73.4001 228.5 74.4001 226.8 75.5001 224.6L101.5 236.1Z" fill="white" stroke="#27AAE1" stroke-miterlimit="10" stroke-dasharray="6 6"/>
<path d="M115.7 187.5C115.7 187.6 115.7 187.6 115.7 187.5C115.6 188.1 115.5 188.5 115.4 189C115.4 189.2 115.3 189.4 115.3 189.6C114.8 191.8 114.4 193.8 113.9 195.5C113.9 195.6 113.9 195.7 113.9 195.7C111.9 204 110.9 206.6 109.8 210C109.7 210.2 109.6 210.5 109.6 210.7C109.5 211 109.4 211.4 109.3 211.7C109.2 212.1 109.1 212.5 109 212.9C109 212.9 109 213 109 213.1V213.2C109 213.3 109 213.3 108.9 213.4C108.9 213.6 108.8 213.8 108.7 214.1C108.6 214.3 108.6 214.6 108.5 214.8C108.3 215.4 108.1 216 107.9 216.9C107.8 217.3 107.6 217.7 107.5 218.2C107.3 219 107 219.9 106.7 220.9C106.5 221.5 106.3 222.2 106.1 223C105.5 224.9 104.7 227.2 103.9 229.7C103.8 230 103.7 230.3 103.6 230.6C103.3 231.5 103 232.5 102.6 233.5C102.3 234.4 102 235.3 101.7 236.3L75.3999 225C77.6999 220.3 80.6999 213.3 82.2999 205.6C82.2999 205.6 82.2999 205.5 82.2999 205.4C82.2999 205.3 82.2999 205.3 82.2999 205.2C82.7999 203.1 83.8999 197.4 84.0999 190.5C84.7999 184.8 85.4999 178.5 86.0999 173.4H94.4999L97.4999 184.7L115.7 186.8C115.6 186.9 115.7 187.2 115.7 187.5Z" fill="white"/>
<path d="M115.7 187.5C115.7 187.6 115.7 187.6 115.7 187.5ZM115.7 187.5C115.6 188.1 115.5 188.5 115.4 189C115.4 189.2 115.3 189.4 115.3 189.6C114.8 191.8 114.4 193.8 113.9 195.5C113.9 195.6 113.9 195.7 113.9 195.7C111.9 204 110.9 206.6 109.8 210C109.7 210.2 109.6 210.5 109.6 210.7C109.5 211 109.4 211.4 109.3 211.7C109.2 212.1 109.1 212.5 109 212.9C109 212.9 109 213 109 213.1V213.2C109 213.3 109 213.3 108.9 213.4C108.9 213.6 108.8 213.8 108.7 214.1C108.6 214.3 108.6 214.6 108.5 214.8C108.3 215.4 108.1 216 107.9 216.9C107.8 217.3 107.6 217.7 107.5 218.2C107.3 219 107 219.9 106.7 220.9C106.5 221.5 106.3 222.2 106.1 223C105.5 224.9 104.7 227.2 103.9 229.7C103.8 230 103.7 230.3 103.6 230.6C103.3 231.5 103 232.5 102.6 233.5C102.3 234.4 102 235.3 101.7 236.3L75.3999 225C77.6999 220.3 80.6999 213.3 82.2999 205.6C82.2999 205.6 82.2999 205.5 82.2999 205.4C82.2999 205.3 82.2999 205.3 82.2999 205.2C82.7999 203.1 83.8999 197.4 84.0999 190.5C84.7999 184.8 85.4999 178.5 86.0999 173.4H94.4999L97.4999 184.7L115.7 186.8C115.6 186.9 115.7 187.2 115.7 187.5Z" stroke="#27AAE1" stroke-miterlimit="10" stroke-dasharray="6 6"/>
<path d="M176.6 195.5V209.2C154.7 209.2 134 212 119.5 215.2C119.3 213.8 113.9 196.8 113.8 196.4C113.7 195.8 115.8 187.8 115.7 187.6C115.6 187.3 115.6 187 115.5 186.7L116.5 186.8L125.5 182.1L122.7 163.2L138.1 138.1V128.3H176.2V163.4L162.5 171.3V187.5L176.6 195.5Z" fill="white" stroke="#27AAE1" stroke-miterlimit="10" stroke-dasharray="6 6"/>
<path d="M125.5 182.1L116.5 186.8L115.5 186.7L97.3 184.5L94.3 173.2L106.8 158.3L122.7 163.2L125.5 182.1Z" fill="white" stroke="#27AAE1" stroke-miterlimit="10" stroke-dasharray="6 6"/>
<path d="M138.1 117V138L122.7 163.1L106.7 158.3L94.2 173.2H85.8C86.3 169.3 86.7 166.1 86.9 164.6C88 158.1 90.1 151.8 93.2 146C95.1 142.3 97.5 138.7 100.1 135.5C103 132 106.4 128.7 110.6 127.1C112.2 126.1 121 123.8 123.8 123.1C129.1 122 133 119.9 136.2 118.1C136.5 117.9 136.8 117.7 137.1 117.6C137.6 117.4 137.9 117.2 138.1 117Z" fill="white" stroke="#27AAE1" stroke-miterlimit="10" stroke-dasharray="6 6"/>
<path d="M320.6 397.7C319.1 398.1 317.8 396.6 317.1 395.2C314.9 390.5 314.5 385.1 313.2 380.1C313 379.4 312.8 378.6 312.6 377.9C314.2 377.4 315.9 376.9 317.5 376.4L318.7 379C320.5 383.6 321.7 388.5 322.3 393.4C322.5 395.1 322.2 397.3 320.6 397.7Z" fill="white" stroke="#27AAE1" stroke-miterlimit="10" stroke-dasharray="6 6"/>
<path d="M330.9 396.6C330.7 397.3 330.3 398 329.5 398.3C328.2 398.7 327.1 397.4 326.4 396.2C323.3 390.7 321 384.9 318.6 379L317.4 376.4C318.6 376 319.9 375.6 321.1 375.1C322.1 374.8 323 374.4 323.9 374.1L325.1 376.7C327.3 381.7 329 386.9 330.5 392.1C331 393.6 331.3 395.2 330.9 396.6Z" fill="white" stroke="#27AAE1" stroke-miterlimit="10" stroke-dasharray="6 6"/>
<path d="M340.1 394.8C340 395.5 339.6 396.2 339.1 396.6C338.2 397.2 336.9 397 336 396.3C335.1 395.6 334.6 394.6 334.1 393.6C331.2 388 328.2 382.3 325.3 376.7L324.1 374.1C326.5 373.2 328.9 372.2 331.1 371.3L332.2 373C332.2 373.1 332.3 373.1 332.3 373.2C332.3 373.3 332.4 373.4 332.4 373.4C332.5 373.6 332.6 373.7 332.7 373.9C332.8 374 332.8 374.2 333 374.3C335.8 379.2 338 384.4 339.6 389.8C340 391.5 340.4 393.2 340.1 394.8Z" fill="white" stroke="#27AAE1" stroke-miterlimit="10" stroke-dasharray="6 6"/>
<path d="M347.9 388.8C344.7 390.9 341.6 385.2 338.4 381.7C335.9 378.9 334 376 333 374.4C332.9 374.2 332.8 374.1 332.7 374C332.6 373.8 332.5 373.7 332.4 373.5C332.4 373.4 332.3 373.3 332.3 373.3C332.3 373.2 332.3 373.2 332.2 373.1L331.1 371.4C333.7 370.3 336.2 369.1 338.6 368C347.8 383.7 350.1 387.4 347.9 388.8Z" fill="white" stroke="#27AAE1" stroke-miterlimit="10" stroke-dasharray="6 6"/>
<path d="M351.6 370.2C351.4 370.8 351.2 371.3 350.7 371.7C349.6 372.5 348.1 371.8 346.9 371.1C343.5 369 340.7 365.7 336.8 364.9C337.1 365.5 337.5 366.1 337.8 366.7C337.1 366.3 336.3 365.7 335.3 365C332.8 363.1 329.8 360.1 327.6 355.6C325.4 351 325 346.7 325.1 343.6C328.2 345.5 331.5 346.8 334.4 348.9C338.2 351.5 341.1 355.2 344.5 358.3C346.3 359.9 348.3 361.4 349.7 363.4C351.4 365.4 352.3 367.9 351.6 370.2Z" fill="white" stroke="#27AAE1" stroke-miterlimit="10" stroke-dasharray="6 6"/>
<path d="M338.5 367.9C336.2 369.1 333.7 370.2 331 371.3C328.8 372.2 326.4 373.2 324 374.1C323.1 374.4 322.2 374.8 321.2 375.1C319.9 375.5 318.7 376 317.5 376.4C315.8 376.9 314.2 377.5 312.6 377.9C311.5 374.4 309.9 371 307.9 367.9C306.6 365.9 305.1 363.9 304.4 361.6C303.5 358.3 304.6 355.1 304.5 351.8C304.4 349.2 300.7 344.5 300.4 344.1L314.5 332.2C316.7 335.9 319.3 339.3 322.5 341.9C323.4 342.6 324.3 343.2 325.2 343.7C325.1 346.8 325.5 351.2 327.7 355.7C329.8 360.2 332.9 363.2 335.4 365.1C336.3 365.8 337.2 366.4 337.9 366.8C338.1 367.1 338.3 367.5 338.5 367.9Z" fill="white" stroke="#27AAE1" stroke-miterlimit="10" stroke-dasharray="6 6"/>
<path d="M314.5 332.1L301.1 343.3L300.3 343.9C297.5 339.1 294.6 334.3 291.7 329.5L292.2 329.2L308.9 318.4L309 318.3C310.9 323.7 312.8 328.3 314.5 332.1Z" fill="white" stroke="#27AAE1" stroke-miterlimit="10" stroke-dasharray="6 6"/>
<path d="M309 318.5L291.7 329.7C290.8 328.2 289.9 326.7 289 325.2C287.2 322.2 285.3 319.2 283.5 316.2C282.6 314.7 281.6 313.2 280.7 311.7C280.4 311.3 280.2 310.8 279.9 310.4C279.7 310.1 279.6 309.9 279.4 309.7C279.2 309.4 279 309.1 278.8 308.8C278.7 308.6 278.5 308.3 278.4 308.1C278.2 307.7 277.9 307.3 277.7 307C277.5 306.7 277.3 306.4 277.1 306.1C276.7 305.5 276.4 304.9 276 304.4C275.8 304.1 275.6 303.8 275.4 303.5C275.2 303.2 275 302.9 274.8 302.6C274.7 302.4 274.6 302.3 274.5 302.1C274.3 301.8 274.1 301.5 273.9 301.2C273.8 301 273.7 300.8 273.6 300.7C273.5 300.5 273.4 300.3 273.2 300.1C272.8 299.5 272.4 298.8 272 298.1C271.7 297.5 271.3 296.9 270.9 296.3C270.7 296 270.6 295.7 270.4 295.5C270.3 295.2 270.1 295 270 294.7C269.9 294.5 269.7 294.2 269.6 294C269.5 293.8 269.4 293.6 269.3 293.4C269.2 293.2 269.1 293 268.9 292.8C268.9 292.8 268.9 292.7 268.8 292.7C268.4 292 268.1 291.4 267.8 290.8C267.6 290.4 267.4 289.9 267.2 289.5C267.1 289.3 267 289.1 266.9 288.9C266.8 288.7 266.7 288.5 266.7 288.3C266.6 288.2 266.6 288 266.5 287.9C266.4 287.6 266.3 287.3 266.2 287C266.1 286.8 266 286.6 266 286.4C265.9 286 265.7 285.6 265.6 285.2C265.5 285 265.5 284.8 265.4 284.7C265.3 284.4 265.2 284 265.1 283.7C265.1 283.6 265.1 283.5 265 283.4C265 283.2 264.9 283 264.9 282.8C264.8 282.4 264.7 282 264.6 281.6C264.5 281.2 264.4 280.8 264.3 280.4C264.2 280.2 264.2 280 264.1 279.8C264 279.6 264 279.4 263.9 279.2C263.7 278.7 263.5 278.3 263.3 277.7C263.2 277.4 263.1 277.2 262.9 276.9C262.8 276.8 262.8 276.6 262.7 276.5C262.7 276.4 262.6 276.3 262.6 276.3C262.4 275.9 262.2 275.6 262.1 275.3V275.2C262 275.1 262 275 261.9 274.9C261.8 274.8 261.8 274.6 261.7 274.5C261.6 274.4 261.6 274.2 261.5 274.1C261.4 273.9 261.3 273.7 261.1 273.6C261.1 273.6 261.1 273.5 261 273.5C260.9 273.3 260.7 273.1 260.6 272.9C260.6 272.8 260.5 272.7 260.4 272.7C260.3 272.6 260.2 272.4 260.1 272.3C260 272.2 259.9 272 259.8 271.9C259.7 271.7 259.6 271.5 259.4 271.3L291.9 254.9C293.3 258 294.4 260.9 295.3 263.5C295.3 263.6 295.3 263.7 295.4 263.8C295.4 263.9 295.4 264 295.5 264.1C296.6 268 297.2 271.4 297.9 275.9C298.3 278.2 298.5 279.8 299 282.7C299.6 285.8 300.2 288.1 300.5 289.5C302.4 296.8 303.8 302.1 304.8 306.1C304.9 306.4 305 306.7 305.1 307C305.2 307.4 305.3 307.8 305.4 308.2C305.6 308.8 305.7 309.4 305.9 309.9C306.1 310.4 306.2 311 306.4 311.4C306.5 311.7 306.6 312 306.7 312.3C306.8 312.6 306.9 312.9 307 313.2C307 313.3 307.1 313.5 307.1 313.6C307.2 313.9 307.3 314.2 307.4 314.5C308 315.6 308.5 317.1 309 318.5Z" fill="white" stroke="#27AAE1" stroke-miterlimit="10" stroke-dasharray="6 6"/>
<path d="M292.1 254.4L259.6 270.8C259.4 270.4 259.2 270 258.9 269.5C258.8 269.3 258.7 269.1 258.6 268.8C258.1 267.6 257.8 266.6 257.6 265.5C257.5 265.2 257.5 264.8 257.4 264.5C257.3 263.7 257.2 263 257.1 262.2C257.1 261.7 257 261.1 257 260.5C256.9 259.6 256.9 258.7 256.8 257.6C256.8 257.4 256.8 257.3 256.8 257.1C256.8 256.9 256.8 256.8 256.7 256.6C256.5 255 256.3 253.6 256 252.4C255.9 251.9 255.8 251.3 255.7 250.8C255.6 250.3 255.5 249.8 255.4 249.3C255.3 248.8 255.2 248.4 255 248C255 247.8 254.9 247.6 254.8 247.4C254.7 247 254.6 246.5 254.4 246.1C254 245 253.7 244.1 253.6 243.6C253.6 243.6 253.6 243.5 253.5 243.5C253.5 243.4 253.4 243.3 253.4 243.3C253.2 242.8 253.1 242.4 252.9 241.9C252.4 240.5 251.9 239.2 251.5 237.9C251.3 237.4 251.2 236.9 251 236.5C250.9 236.3 250.8 236 250.8 235.8L277.1 224.5C278.2 226.7 279.2 228.4 279.8 229.5C280.6 230.9 283.1 234.6 285.2 239.8C285.2 239.9 285.3 240 285.3 240.1C285.4 240.3 285.4 240.5 285.5 240.6C285.8 241.4 286.1 242.1 286.4 242.8C286.5 243.1 286.6 243.3 286.8 243.6C287 244.1 287.3 244.6 287.5 245.1C287.6 245.4 287.8 245.7 287.9 245.9C288.8 247.8 289.7 249.4 290.7 251.6V251.7C290.8 251.8 290.8 252 290.9 252.1C291.5 253.1 291.8 253.8 292.1 254.4Z" fill="white" stroke="#27AAE1" stroke-miterlimit="10" stroke-dasharray="6 6"/>
<path d="M266.5 173.2H258.1L255.1 184.5L236.9 186.6C236.8 186.8 236.8 187.1 236.8 187.3C238.2 193.7 239.2 197.9 240.1 201C240.1 201.1 240.1 201.1 240.1 201.2C241.2 205.2 241.9 207.3 242.6 209.6C242.6 209.7 242.7 209.8 242.7 209.8C242.8 210 242.9 210.3 242.9 210.6C243 210.9 243.1 211.3 243.2 211.7C243.3 212.1 243.4 212.5 243.5 212.9C243.5 212.9 243.5 212.9 243.5 213V213.1C243.5 213.2 243.5 213.2 243.5 213.3V213.4C243.6 213.6 243.6 213.8 243.7 214C243.7 214.1 243.8 214.2 243.8 214.4C243.9 214.7 244 215 244.1 215.4C244.2 215.8 244.4 216.3 244.5 216.8C244.5 216.9 244.5 216.9 244.6 217C244.7 217.2 244.7 217.4 244.8 217.5C244.9 217.9 245 218.3 245.2 218.8C245.3 219 245.3 219.1 245.3 219.3C245.5 219.8 245.6 220.2 245.8 220.7C245.9 220.9 245.9 221 245.9 221.1C246.1 221.6 246.2 222.2 246.4 222.7C246.6 223.2 246.7 223.7 246.9 224.3C247.1 225.1 247.4 225.8 247.7 226.6C248 227.5 248.3 228.4 248.6 229.4C248.7 229.7 248.8 230 248.9 230.3C249 230.5 249 230.6 249.1 230.8C249.3 231.4 249.5 232.1 249.8 232.7C249.8 232.9 249.9 233 250 233.2C250.1 233.4 250.1 233.6 250.2 233.8C250.3 234.2 250.4 234.5 250.6 234.9C250.7 235.3 250.9 235.6 251 236L251.2 235.9L277.3 224.7C275 220 272 213 270.4 205.3C270.4 205.2 270.4 205.2 270.4 205.1C270.4 205 270.4 205 270.4 204.9C270 203.2 269.2 199.1 268.8 193.8C268.7 192.7 268.7 191.5 268.6 190.2C268 184.9 267.3 179 266.7 174.1C266.7 173.8 266.6 173.5 266.6 173.1" fill="white"/>
<path d="M266.5 173.2H258.1L255.1 184.5L236.9 186.6C236.8 186.8 236.8 187.1 236.8 187.3C238.2 193.7 239.2 197.9 240.1 201C240.1 201.1 240.1 201.1 240.1 201.2C241.2 205.2 241.9 207.3 242.6 209.6C242.6 209.7 242.7 209.8 242.7 209.8C242.8 210 242.9 210.3 242.9 210.6C243 210.9 243.1 211.3 243.2 211.7C243.3 212.1 243.4 212.5 243.5 212.9C243.5 212.9 243.5 212.9 243.5 213V213.1C243.5 213.2 243.5 213.2 243.5 213.3V213.4C243.6 213.6 243.6 213.8 243.7 214C243.7 214.1 243.8 214.2 243.8 214.4C243.9 214.7 244 215 244.1 215.4C244.2 215.8 244.4 216.3 244.5 216.8C244.5 216.9 244.5 216.9 244.6 217C244.7 217.2 244.7 217.4 244.8 217.5C244.9 217.9 245 218.3 245.2 218.8C245.3 219 245.3 219.1 245.3 219.3C245.5 219.8 245.6 220.2 245.8 220.7C245.9 220.9 245.9 221 245.9 221.1C246.1 221.6 246.2 222.2 246.4 222.7C246.6 223.2 246.7 223.7 246.9 224.3C247.1 225.1 247.4 225.8 247.7 226.6C248 227.5 248.3 228.4 248.6 229.4C248.7 229.7 248.8 230 248.9 230.3C249 230.5 249 230.6 249.1 230.8C249.3 231.4 249.5 232.1 249.8 232.7C249.8 232.9 249.9 233 250 233.2C250.1 233.4 250.1 233.6 250.2 233.8C250.3 234.2 250.4 234.5 250.6 234.9C250.7 235.3 250.9 235.6 251 236L251.2 235.9L277.3 224.7C275 220 272 213 270.4 205.3C270.4 205.2 270.4 205.2 270.4 205.1C270.4 205 270.4 205 270.4 204.9C270 203.2 269.2 199.1 268.8 193.8C268.7 192.7 268.7 191.5 268.6 190.2C268 184.9 267.3 179 266.7 174.1C266.7 173.8 266.6 173.5 266.6 173.1" stroke="#27AAE1" stroke-miterlimit="10" stroke-dasharray="6 6"/>
<path d="M238.3 196.8C237.9 197.9 233 214.7 232.8 215.6C218.5 212.4 198.1 209.2 176.5 209.2V195.5L190.5 187.4V171.2L176.5 163.1L176.2 163.3V128.2H214.2V138L229.6 163.1L226.8 182L235.8 186.7C235.9 186.8 238.8 195.6 238.3 196.8Z" fill="white" stroke="#27AAE1" stroke-miterlimit="10" stroke-dasharray="6 6"/>
<path d="M258.1 173.2L255.1 184.5L236.9 186.6V186.7L235.9 186.8L226.9 182.1L229.7 163.2L245.6 158.3L258.1 173.2Z" fill="white" stroke="#27AAE1" stroke-miterlimit="10" stroke-dasharray="6 6"/>
<path d="M266.5 173.2C266 169.3 265.6 166.1 265.4 164.6C264.3 158.1 262.2 151.8 259.1 146C257.2 142.3 254.8 138.7 252.2 135.5C249.3 132 245.9 128.7 241.7 127.1C240.1 126.1 231.3 123.8 228.5 123.1C226.6 122.7 224.9 122.2 223.3 121.6C220.2 120.7 217.3 119.4 214.8 117.3C214.7 117.2 214.6 117.1 214.4 117V117.1C214.4 117.5 214.3 118 214.3 118.4C214.2 120.3 214.1 122.1 214.1 124C214.1 125.4 214.1 126.8 214.1 128.3C214.1 131.6 214.2 134.9 214.2 138.1L229.6 163.2L245.6 158.4L258.1 173.3C260.9 173.3 263.7 173.5 266.5 173.4" fill="white"/>
<path d="M266.5 173.2C266 169.3 265.6 166.1 265.4 164.6C264.3 158.1 262.2 151.8 259.1 146C257.2 142.3 254.8 138.7 252.2 135.5C249.3 132 245.9 128.7 241.7 127.1C240.1 126.1 231.3 123.8 228.5 123.1C226.6 122.7 224.9 122.2 223.3 121.6C220.2 120.7 217.3 119.4 214.8 117.3C214.7 117.2 214.6 117.1 214.4 117V117.1C214.4 117.5 214.3 118 214.3 118.4C214.2 120.3 214.1 122.1 214.1 124C214.1 125.4 214.1 126.8 214.1 128.3C214.1 131.6 214.2 134.9 214.2 138.1L229.6 163.2L245.6 158.4L258.1 173.3C260.9 173.3 263.7 173.5 266.5 173.4" stroke="#27AAE1" stroke-miterlimit="10" stroke-dasharray="6 6"/>
<path d="M214.3 117V128.2H138.2V117C142.9 114.2 146 111.5 148.7 109.1C152.1 106.1 153.4 104.4 154.3 102.5C154.9 101.2 155.4 99.6 155.8 95.5C156.1 92.6 156.3 88.7 156 83.9C158.2 86.8 162.1 91 168.3 93.9C171.5 95.4 174.3 96 176.3 96.4C178.3 96.1 181.2 95.4 184.3 93.9C190.5 91 194.4 86.8 196.6 83.9C196.3 88.7 196.5 92.6 196.8 95.5C197.2 99.6 197.7 101.2 198.3 102.5C199.2 104.4 200.5 106.1 203.9 109.1C206.5 111.5 209.5 114.2 214.3 117Z" fill="white" stroke="#27AAE1" stroke-miterlimit="10" stroke-dasharray="6 6"/>
<path d="M208.6 57.6C207.9 61.5 208.6 63.2 206.9 65.5C206.2 66.5 204.8 67.8 203.7 68.2C203.3 69.8 202.9 71.2 202.5 72.5C200.7 70.4 198.9 67.5 197.9 63.9C196.5 58.9 197.3 54.8 198 51.4C199 46.4 199.9 41.6 204 38.1C205.2 37 206.5 36.2 207.9 35.7C207.9 37.6 207.9 39.3 207.8 40.7C207.8 40.9 207.8 41.2 207.8 41.4V41.3C208.1 41 208.4 40.8 208.8 40.8C210.3 40.8 211.7 43.7 212 46.4C212.4 50.6 209.7 51.4 208.6 57.6Z" fill="white" stroke="#27AAE1" stroke-miterlimit="10" stroke-dasharray="6 6"/>
<path d="M155.3 63.9C154.2 67.9 152.1 70.9 150.2 73.1C149.7 71.6 149.2 69.9 148.8 68.2C147.6 67.8 146.3 66.5 145.6 65.5C143.9 63.2 144.6 61.5 143.9 57.6C142.8 51.4 140.1 50.6 140.6 46.4C140.9 43.8 142.4 40.8 143.8 40.8C144.1 40.8 144.5 41 144.8 41.3C144.8 41.1 144.8 40.9 144.8 40.7C144.7 39.2 144.7 37.4 144.7 35.4C146.2 36 147.8 36.9 149.3 38.1C153.4 41.7 154.3 46.4 155.3 51.4C155.8 54.9 156.6 59 155.3 63.9Z" fill="white" stroke="#27AAE1" stroke-miterlimit="10" stroke-dasharray="6 6"/>
<path d="M207.7 35.7C206.4 36.3 205.1 37.1 203.8 38.1C199.7 41.7 198.8 46.4 197.8 51.4C197.1 54.9 196.3 59 197.7 63.9C198.7 67.5 200.5 70.4 202.3 72.5C201.2 75.9 199.9 78.8 197.8 82C197.5 82.5 197 83.2 196.4 84C194.2 86.9 190.3 91.1 184.1 94C180.9 95.5 178.1 96.1 176.1 96.5C174.1 96.2 171.2 95.5 168.1 94C161.9 91.1 158 86.9 155.8 84C155.2 83.2 154.7 82.5 154.4 82C152.4 79 151.1 76.3 150.1 73.1C152.1 70.9 154.1 67.9 155.2 63.9C156.6 58.9 155.8 54.8 155.1 51.4C154.1 46.4 153.2 41.6 149.1 38.1C147.6 36.8 146.1 36 144.5 35.4C144.5 33.6 144.6 31.6 144.8 29.5C145.1 26.2 145.3 24 145.8 21.9H206.2C206.7 23.9 206.9 26.2 207.2 29.5C207.6 31.7 207.7 33.8 207.7 35.7Z" fill="white" stroke="#27AAE1" stroke-miterlimit="10" stroke-dasharray="6 6"/>
<path d="M206.4 21.9H146C146.2 21.1 146.4 20.4 146.6 19.7C149.6 11.3 157.3 6.90001 160.4 5.20001C166.5 1.80001 172.3 0.800006 176.2 0.600006C180 0.800006 185.9 1.80001 192 5.20001C195.1 7.00001 202.8 11.3 205.8 19.7C206 20.4 206.2 21.2 206.4 21.9Z" fill="white" stroke="#27AAE1" stroke-miterlimit="10" stroke-dasharray="6 6"/>
<path d="M112.841 175.3C113.241 177.5 114.241 180.5 115.241 184.2C119.641 200.2 162.241 202.9 167.941 178.2" stroke="#231F20" stroke-width="1.5" stroke-miterlimit="10" stroke-linecap="round"/>
<path d="M238.441 175.3C238.041 177.5 237.041 180.5 236.041 184.2C231.641 200.2 189.041 202.9 183.341 178.2" stroke="#231F20" stroke-width="1.5" stroke-miterlimit="10" stroke-linecap="round"/>
<path d="M172.641 280.2C172.141 278.5 172.541 276.7 173.741 275.7C174.441 275.1 175.241 274.9 175.741 274.8" stroke="#231F20" stroke-miterlimit="10" stroke-linecap="round"/>
<path d="M133.641 124.3C138.841 124.1 143.341 124.1 146.741 124.2C147.441 124.2 151.341 124.5 159.241 125C163.041 125.3 165.041 125.4 166.941 126.7C169.641 128.4 170.841 131.1 171.441 132.8" stroke="#231F20" stroke-miterlimit="10" stroke-linecap="round"/>
<path d="M155.741 116C155.641 107.7 155.541 99.4 155.441 91.1" stroke="#231F20" stroke-width="1.5" stroke-miterlimit="10" stroke-linecap="round"/>
<path d="M178.642 280.2C179.142 278.5 178.742 276.7 177.542 275.7C176.842 275.1 176.042 274.9 175.542 274.8" stroke="#231F20" stroke-miterlimit="10" stroke-linecap="round"/>
<path d="M135.441 185.9C134.941 187.6 135.341 189.4 136.541 190.4C137.641 191.4 139.341 191.4 140.441 190.4C141.541 189.3 141.941 187.6 141.541 185.9" stroke="#231F20" stroke-miterlimit="10" stroke-linecap="round"/>
<path d="M211.141 185.9C210.641 187.6 211.041 189.4 212.241 190.4C213.341 191.4 215.041 191.4 216.141 190.4C217.241 189.3 217.641 187.6 217.241 185.9" stroke="#231F20" stroke-miterlimit="10" stroke-linecap="round"/>
<path d="M160.641 361.2C163.241 366.7 168.541 370.3 174.441 370.8C174.941 370.8 175.341 370.8 175.841 370.8C176.241 370.8 176.641 370.8 176.941 370.8C182.841 370.3 188.141 366.7 190.741 361.2" stroke="#231F20" stroke-miterlimit="10" stroke-linecap="round"/>
<path d="M118.441 500.3C117.541 503 116.741 506.3 116.241 509.9C115.241 517.1 115.741 523.4 116.441 528" stroke="#231F20" stroke-miterlimit="10" stroke-linecap="round"/>
<path d="M136.341 502.6C136.541 505.5 136.541 508.8 136.141 512.4C135.341 519.7 133.341 525.6 131.441 529.9" stroke="#231F20" stroke-miterlimit="10" stroke-linecap="round"/>
<path d="M232.642 500.3C233.542 503 234.342 506.3 234.842 509.9C235.842 517.1 235.342 523.4 234.642 528" stroke="#231F20" stroke-miterlimit="10" stroke-linecap="round"/>
<path d="M214.741 502.6C214.541 505.5 214.541 508.8 214.941 512.4C215.741 519.7 217.741 525.6 219.641 529.9" stroke="#231F20" stroke-miterlimit="10" stroke-linecap="round"/>
<path d="M110.241 127.3C111.841 126.3 120.641 124 123.441 123.3C128.741 122.1 132.641 120.1 135.841 118.3C136.141 118.1 136.441 117.9 136.741 117.8C137.041 117.6 137.341 117.5 137.541 117.3C137.941 117.1 138.241 116.9 138.641 116.7C139.041 116.4 139.541 116.2 139.941 115.9C140.241 115.7 140.541 115.5 140.841 115.3C141.141 115.1 141.341 115 141.541 114.8C141.741 114.6 142.041 114.5 142.241 114.3C142.341 114.2 142.441 114.1 142.541 114C142.841 113.7 143.241 113.5 143.541 113.2C145.241 111.9 146.641 110.6 148.041 109.4C149.541 108.1 150.641 107 151.441 106.1C151.941 105.6 152.341 105.1 152.641 104.6C152.741 104.5 152.841 104.4 152.841 104.2C152.941 104 153.141 103.7 153.241 103.5C153.341 103.3 153.541 103 153.641 102.8C153.941 102.2 154.141 101.6 154.341 100.7C154.441 100.2 154.641 99.6 154.741 98.9C154.841 98.6 154.841 98.2 154.941 97.8C154.941 97.6 155.041 97.4 155.041 97.2C155.141 96.8 155.141 96.3 155.241 95.8C155.341 94.8 155.441 93.8 155.441 92.6C155.541 90.2 155.641 87.4 155.441 84.3" stroke="#231F20" stroke-width="1.5" stroke-miterlimit="10"/>
<path d="M169.341 62.9C169.541 63.2 170.241 64 171.441 64.3C172.841 64.7 174.241 64.6 174.741 65.1C175.241 65.6 175.941 65.5 176.041 65.5" stroke="#231F20" stroke-width="0.5" stroke-miterlimit="10" stroke-linecap="round"/>
<path d="M182.641 62.9C182.441 63.2 181.741 64 180.541 64.3C179.141 64.7 177.741 64.6 177.241 65.1C176.741 65.6 176.041 65.5 175.941 65.5" stroke="#231F20" stroke-width="0.5" stroke-miterlimit="10" stroke-linecap="round"/>
<path d="M169.941 61.1C170.041 60.8 170.241 60.2 170.641 59.6C171.341 58.6 172.241 58.2 172.441 58.1C173.341 57.6 174.241 55.3 174.141 47.6" stroke="#231F20" stroke-width="0.5" stroke-miterlimit="10" stroke-linecap="round"/>
<path d="M182.241 61.1C182.141 60.8 181.941 60.2 181.541 59.6C180.841 58.6 179.941 58.2 179.741 58.1C178.841 57.6 177.941 55.3 178.041 47.6" stroke="#231F20" stroke-width="0.5" stroke-miterlimit="10" stroke-linecap="round"/>
<path d="M175.642 76.6C175.742 76.6 175.942 76.6 176.042 76.6C178.742 76.4 181.042 76.3 182.542 74.6C183.042 74 183.342 73.4 183.542 72.9C181.842 70.9 180.442 70.5 179.442 70.5C177.842 70.5 177.342 71.7 175.542 71.8C173.742 71.8 173.342 70.5 171.642 70.5C170.642 70.5 169.242 70.9 167.542 72.9C167.742 73.3 168.042 74 168.542 74.6C170.042 76.3 172.342 76.5 175.042 76.6C175.242 76.6 175.342 76.6 175.642 76.6Z" stroke="#231F20" stroke-width="0.4948" stroke-miterlimit="10"/>
<path d="M167.542 72.9C168.442 72.8 169.842 72.6 171.442 72.9C173.242 73.2 173.542 73.7 175.042 73.8C176.742 73.9 177.142 73.4 179.342 73.1C180.242 73 181.642 72.9 183.342 73.2" stroke="#231F20" stroke-width="0.4948" stroke-miterlimit="10"/>
<path d="M155.042 45.1C156.542 46.2 157.842 46.7 158.842 47C160.542 47.5 162.342 48.1 164.042 47.4C165.042 47 165.242 46.5 166.442 46.2C167.842 45.9 168.942 46.2 169.042 45.9C169.142 45.7 168.642 45.3 167.542 44.6C165.542 43.4 164.642 42.8 163.842 42.6C163.442 42.5 161.542 42 159.142 42.6C156.942 43.3 155.542 44.6 155.042 45.1Z" stroke="#231F20" stroke-width="0.5" stroke-miterlimit="10" stroke-linecap="round"/>
<path d="M161.641 47.6C163.022 47.6 164.141 46.4807 164.141 45.1C164.141 43.7193 163.022 42.6 161.641 42.6C160.261 42.6 159.141 43.7193 159.141 45.1C159.141 46.4807 160.261 47.6 161.641 47.6Z" fill="#231F20"/>
<path d="M196.341 45.1C194.841 46.2 193.541 46.7 192.541 47C190.841 47.5 189.041 48.1 187.341 47.4C186.341 47 186.141 46.5 184.941 46.2C183.541 45.9 182.441 46.2 182.341 45.9C182.241 45.7 182.741 45.3 183.841 44.6C185.841 43.4 186.741 42.8 187.541 42.6C187.941 42.5 189.841 42 192.241 42.6C194.441 43.3 195.741 44.6 196.341 45.1Z" stroke="#231F20" stroke-width="0.5" stroke-miterlimit="10" stroke-linecap="round"/>
<path d="M189.741 47.6C191.122 47.6 192.241 46.4807 192.241 45.1C192.241 43.7193 191.122 42.6 189.741 42.6C188.361 42.6 187.241 43.7193 187.241 45.1C187.241 46.4807 188.361 47.6 189.741 47.6Z" fill="#231F20"/>
<path d="M170.441 39C167.641 37.4 164.541 36.5 161.341 36.5C159.741 36.5 158.241 36.8 156.741 37.2C155.241 37.5 153.741 38.1 152.241 38.6H152.141C152.141 38.6 152.141 38.6 152.141 38.5C153.441 37.4 154.941 36.7 156.441 36.2C158.041 35.7 159.741 35.6 161.341 35.7C163.041 35.8 164.641 36.1 166.141 36.6C167.741 37.3 169.241 38 170.441 39C170.541 39 170.541 39 170.441 39C170.541 39.1 170.441 39.1 170.441 39Z" fill="#231F20"/>
<path d="M180.841 39C182.141 38.1 183.641 37.3 185.141 36.7C186.641 36.2 188.341 35.9 189.941 35.8C191.541 35.7 193.241 35.8 194.841 36.3C196.441 36.8 197.941 37.6 199.141 38.6V38.7C199.141 38.7 199.141 38.7 199.041 38.7C197.541 38.1 196.041 37.6 194.541 37.3C193.041 37 191.441 36.6 189.941 36.6C186.841 36.5 183.641 37.4 180.841 39C180.841 39.1 180.841 39.1 180.841 39Z" fill="#231F20"/>
<path d="M144.241 41.5C143.941 41.2 143.541 41 143.241 41C141.741 41 140.341 43.9 140.041 46.6C139.541 50.8 142.241 51.6 143.341 57.8C144.041 61.7 143.341 63.4 145.041 65.7C145.741 66.7 147.141 68 148.241 68.4" stroke="#231F20" stroke-width="1.5" stroke-miterlimit="10"/>
<path d="M175.641 96.7C177.641 96.4 180.541 95.7 183.741 94.2C191.641 90.6 195.741 84.6 197.441 82.3C201.041 77 202.241 72.4 204.041 65.2C205.441 59.5 206.941 51.2 207.141 41C207.241 38.3 207.341 34.4 206.841 29.8C206.441 25.3 206.141 22.8 205.141 20C202.141 11.6 194.441 7.2 191.341 5.5C185.341 2 179.541 1 175.641 0.800003C171.841 1 165.941 2 159.841 5.4C156.741 7.2 149.041 11.5 146.041 19.9C145.041 22.6 144.841 25.2 144.341 29.7C143.941 34.3 143.941 38.2 144.041 40.9C144.241 51.1 145.841 59.4 147.241 65.1C149.041 72.3 150.141 76.9 153.841 82.2C155.441 84.6 159.641 90.5 167.541 94.1C170.841 95.7 173.641 96.3 175.641 96.7Z" stroke="#231F20" stroke-width="1.5" stroke-miterlimit="10"/>
<path d="M217.641 124.3C212.441 124.1 207.941 124.1 204.541 124.2C203.841 124.2 199.941 124.5 192.041 125C188.241 125.3 186.241 125.4 184.341 126.7C181.641 128.4 180.441 131.1 179.841 132.8" stroke="#231F20" stroke-miterlimit="10" stroke-linecap="round"/>
<path d="M195.542 116C195.642 107.7 195.742 99.4 195.842 91.1" stroke="#231F20" stroke-width="1.5" stroke-miterlimit="10" stroke-linecap="round"/>
<path d="M241.141 127.3C239.541 126.3 230.742 124 227.942 123.3C226.042 122.9 224.342 122.4 222.742 121.8C219.542 120.6 216.941 119.1 214.541 117.8C214.441 117.7 214.241 117.7 214.141 117.6C214.041 117.5 213.942 117.5 213.742 117.4H213.641C213.041 117.1 212.442 116.7 211.942 116.4C211.842 116.3 211.842 116.3 211.742 116.3C211.142 115.9 210.641 115.6 210.141 115.2C209.841 115 209.641 114.8 209.341 114.7C208.941 114.4 208.642 114.2 208.242 113.9C208.142 113.8 208.041 113.7 207.841 113.6C207.641 113.4 207.441 113.3 207.141 113.1C206.641 112.7 206.142 112.3 205.742 111.9C205.342 111.6 205.042 111.3 204.742 111C204.142 110.5 203.641 110 203.141 109.6C201.641 108.3 200.542 107.2 199.742 106.3C199.242 105.8 198.941 105.3 198.541 104.8C198.441 104.7 198.341 104.6 198.341 104.4C198.241 104.2 198.042 103.9 197.942 103.7C197.842 103.5 197.641 103.2 197.541 103C197.541 102.9 197.442 102.8 197.442 102.7C197.342 102.5 197.242 102.4 197.242 102.2C196.842 101 196.441 99.3 196.041 96C195.941 95 195.842 94 195.742 92.8C195.642 90.4 195.642 87.6 195.742 84.5" stroke="#231F20" stroke-width="1.5" stroke-miterlimit="10"/>
<path d="M207.141 41.5C207.441 41.2 207.841 41 208.141 41C209.641 41 211.041 43.9 211.341 46.6C211.841 50.8 209.141 51.6 208.041 57.8C207.341 61.7 208.041 63.4 206.341 65.7C205.641 66.7 204.241 68 203.141 68.4" stroke="#231F20" stroke-width="1.5" stroke-miterlimit="10"/>
<path d="M115.141 188.3C110.641 209.9 101.341 230 96.6414 251.5C95.4414 256.8 94.6414 262.2 93.1414 267.4C92.1414 271 90.7414 274.5 89.3414 277.9C83.9414 290.9 77.2414 303.3 69.4414 315C62.8414 324.9 55.8414 334.6 49.9414 345C48.7414 347.2 47.5414 349.4 47.4414 352C47.3414 355.3 48.4414 358.5 47.5414 361.8C46.9414 364.1 45.3414 366.1 44.0414 368.1C41.6414 371.8 39.7414 376 38.6414 380.3C37.3414 385.4 36.9414 390.7 34.7414 395.4C34.0414 396.8 32.7414 398.4 31.2414 397.9C29.6414 397.5 29.4414 395.3 29.6414 393.6C30.2414 388.7 31.4414 383.8 33.2414 379.2C30.9414 385 28.5414 390.9 25.4414 396.4C24.7414 397.6 23.6414 399 22.3414 398.5C21.6414 398.3 21.1414 397.5 20.9414 396.8C20.5414 395.3 20.9414 393.8 21.3414 392.4C22.7414 387.1 24.5414 382 26.6414 376.9C23.7414 382.5 20.7414 388.2 17.8414 393.8C17.3414 394.8 16.8414 395.8 15.9414 396.5C15.0414 397.2 13.7414 397.4 12.8414 396.8C12.2414 396.4 11.9414 395.7 11.7414 395C11.4414 393.4 11.8414 391.7 12.2414 390.2C13.9414 384.3 16.4414 378.6 19.6414 373.3C19.6414 373.3 17.2414 377.7 13.4414 382C10.3414 385.5 7.1414 391.2 3.9414 389.1C1.5414 387.6 4.3414 383.5 14.9414 365.2C11.0414 366 8.2414 369.3 4.8414 371.4C3.7414 372.1 2.1414 372.8 1.1414 372C0.641404 371.6 0.341404 371.1 0.241404 370.5C-0.458596 368.2 0.441404 365.6 1.9414 363.7C3.4414 361.8 5.3414 360.3 7.1414 358.6C10.5414 355.5 13.5414 351.9 17.2414 349.2C21.0414 346.5 25.6414 345 29.3414 342.1C36.7414 336.3 41.1414 326.1 43.3414 317.2C43.8414 315.9 44.2414 314.6 44.6414 313.4C47.4414 304.8 49.7414 296.1 51.4414 287.2C53.2414 277.8 54.9414 268.3 58.1414 259.3C64.0414 242.7 74.8414 228.1 79.8414 211.3C83.5414 199.1 83.9414 186.2 85.3414 173.6V173.5C85.8414 169.6 86.2414 166.4 86.4414 164.9C87.5414 158.4 89.6414 152.1 92.7414 146.3C94.6414 142.6 97.0414 139 99.6414 135.8C102.541 132.3 105.941 129 110.141 127.4" stroke="#231F20" stroke-width="1.7157" stroke-miterlimit="10" stroke-linecap="round" stroke-linejoin="round"/>
<path d="M15.0415 365.2C21.1415 366.2 27.5415 360.8 28.9415 357.5" stroke="#231F20" stroke-width="1.7157" stroke-miterlimit="10" stroke-linecap="round" stroke-linejoin="round"/>
<path d="M236.241 188.3C240.741 209.9 250.041 230 254.741 251.5C255.941 256.8 256.741 262.2 258.241 267.4C259.241 271 260.641 274.5 262.041 277.9C267.441 290.9 274.141 303.3 281.941 315C288.541 324.9 295.541 334.6 301.441 345C302.641 347.2 303.841 349.4 303.941 352C304.041 355.3 302.941 358.5 303.841 361.8C304.441 364.1 306.041 366.1 307.341 368.1C309.741 371.8 311.641 376 312.741 380.3C314.041 385.4 314.441 390.7 316.641 395.4C317.341 396.8 318.641 398.4 320.141 397.9C321.741 397.5 321.941 395.3 321.741 393.6C321.141 388.7 319.941 383.8 318.141 379.2C320.441 385 322.841 390.9 325.941 396.4C326.641 397.6 327.741 399 329.041 398.5C329.741 398.3 330.241 397.5 330.441 396.8C330.841 395.3 330.441 393.8 330.041 392.4C328.641 387.1 326.841 382 324.741 376.9C327.641 382.5 330.641 388.2 333.541 393.8C334.041 394.8 334.541 395.8 335.441 396.5C336.341 397.2 337.641 397.4 338.541 396.8C339.141 396.4 339.441 395.7 339.641 395C339.941 393.4 339.541 391.7 339.141 390.2C337.441 384.3 334.941 378.6 331.741 373.3C331.741 373.3 334.141 377.7 337.941 382C341.041 385.5 344.241 391.2 347.441 389.1C349.841 387.6 347.041 383.5 336.441 365.2C340.341 366 343.141 369.3 346.541 371.4C347.641 372.1 349.241 372.8 350.241 372C350.741 371.6 351.041 371.1 351.141 370.5C351.841 368.2 350.941 365.6 349.441 363.7C347.941 361.8 346.041 360.3 344.241 358.6C340.841 355.5 337.841 351.9 334.141 349.2C330.341 346.5 325.741 345 322.041 342.1C314.641 336.3 310.241 326.1 308.041 317.2C307.541 315.9 307.141 314.6 306.741 313.4C303.941 304.8 301.641 296.1 299.941 287.2C298.141 277.8 296.441 268.3 293.241 259.3C287.341 242.7 276.541 228.1 271.541 211.3C267.841 199.1 267.441 186.2 266.041 173.6V173.5C265.541 169.6 265.141 166.4 264.941 164.9C263.841 158.4 261.741 152.1 258.641 146.3C256.741 142.6 254.341 139 251.741 135.8C248.841 132.3 245.441 129 241.241 127.4" stroke="#231F20" stroke-width="1.7157" stroke-miterlimit="10" stroke-linecap="round" stroke-linejoin="round"/>
<path d="M336.241 365.2C330.141 366.2 323.741 360.8 322.341 357.5" stroke="#231F20" stroke-width="1.7157" stroke-miterlimit="10" stroke-linecap="round" stroke-linejoin="round"/>
<path d="M113.541 197C114.941 201.3 116.741 207.2 118.741 214.6C118.741 214.6 118.941 215.2 119.041 215.9C123.441 233.2 122.841 238.9 126.241 253.2C127.041 256.6 128.641 262.7 127.041 270.1C126.941 270.5 126.841 270.8 126.841 271C118.141 306.1 113.841 321.8 113.841 321.8C107.241 346.2 106.541 347.1 105.641 354.1C104.841 360.2 104.841 364.2 104.741 379.3C104.641 406.1 104.641 419.5 104.841 422.9C105.141 429.7 107.241 465.8 107.241 470.2C107.241 473 107.241 475.9 107.241 475.9C107.241 475.9 107.241 476.6 107.241 477C107.241 481.8 107.141 483.5 107.141 486.2C107.141 487.4 107.141 488.6 107.141 488.6C107.141 489.7 107.141 490.5 107.141 490.7C107.041 496.4 107.241 508.1 106.341 522.4C106.241 523.5 106.241 524.3 106.241 524.6C105.441 535.5 105.041 541.9 103.441 548.8C101.841 555.5 100.741 555.9 98.2414 566.5C97.8414 568.2 97.2414 570.6 96.7414 573.4C95.2414 581.4 95.1414 587.4 95.0414 595.7C94.9414 608.3 95.9414 617.9 96.5414 622.9C96.8414 625.4 97.1414 627.4 97.5414 630C98.8414 638.5 100.041 645.4 101.041 650.2C101.341 662.7 98.3414 675 97.6414 677.3C96.8414 680 98.1414 681 97.6414 684.2C97.2414 686.3 96.5414 686.6 95.2414 689.6C93.0414 694.5 94.0414 695.5 92.0414 700.3C90.9414 702.9 89.4414 705.4 87.6414 707.6C87.0414 708.4 86.4414 709.1 85.7414 709.8C84.5414 711 84.2414 711.2 83.6414 711.9C82.6414 713.1 82.7414 713.7 81.8414 715.7C80.3414 718.9 78.9414 719.1 78.7414 721.2C78.6414 722.2 78.8414 723.2 79.4414 724.1C79.9414 724.6 80.5414 725.1 81.2414 725.3C81.9414 725.6 82.6414 725.7 83.4414 725.6C83.0414 726.9 83.2414 728.3 83.8414 729.5C84.2414 730.2 84.7414 731.3 85.8414 731.5C86.3414 731.5 86.7414 731.5 87.2414 731.3C87.7414 731.1 88.0414 730.8 88.4414 730.5C88.7414 731.2 89.2414 731.8 89.8414 732.1C90.5414 732.4 91.3414 732.5 92.0414 732.4C92.8414 732.3 93.4414 731.9 94.0414 731.4C94.5414 732.1 95.3414 732.6 96.1414 732.9C98.6414 733.7 100.741 731.8 100.941 731.7C101.541 732.5 102.241 733.2 103.141 733.7C104.641 734.6 106.341 735.1 108.141 735C110.341 734.9 112.241 732.9 116.041 729C120.341 724.4 119.841 722.8 119.941 721.8C120.241 719 120.241 716.1 119.941 713.3C119.441 711 119.341 708.7 119.641 706.4C119.841 704.7 120.441 698.6 120.441 693.6C120.441 686.6 119.041 685.1 120.641 681.6C121.541 679.6 122.441 679 122.841 676.8C123.241 674.2 122.241 672.8 121.541 669.5C121.341 668.8 121.141 667.4 121.041 661.9C120.941 657.4 120.941 653.6 121.041 650.3L124.841 630.1C125.441 628.4 126.141 626.6 126.841 624.4C126.841 624.4 133.041 606.4 136.441 585.6C138.141 575.2 139.641 561.4 140.341 554.1C141.141 546.1 141.441 543.1 142.841 538.1C145.541 528.9 148.641 526.8 150.741 518.3C152.441 511.7 151.441 509.5 152.041 501.4C152.941 490.1 155.641 484.9 158.441 474.6C161.141 464.5 172.141 418.1 173.541 396.6C173.541 395.9 173.641 395.2 173.641 394.6C173.841 390.4 174.041 386.5 174.141 383C174.241 381.8 174.241 380.7 174.341 379.6C174.441 376.4 174.641 373.6 174.741 371.1C174.741 370.9 174.741 370.8 174.741 370.6" stroke="#231F20" stroke-width="1.5" stroke-miterlimit="10"/>
<path d="M99.8413 731.3C100.141 730.1 100.541 728.9 101.041 727.8C101.541 726.7 102.141 725.6 102.841 724.7C104.341 722.8 106.341 721.3 108.641 720.6C106.441 721.6 104.641 723.2 103.441 725.1C102.841 726.1 102.341 727.1 102.041 728.2C101.641 729.3 101.441 730.4 101.341 731.5L99.8413 731.3Z" fill="#231F20"/>
<path d="M92.9413 731.2C92.8413 729.9 93.0413 728.6 93.3413 727.3C93.6413 726 94.1413 724.8 94.8413 723.7C96.1413 721.5 98.3413 719.9 100.641 719.1C98.3413 720.1 96.5413 721.9 95.4413 724.1C94.9413 725.2 94.5413 726.3 94.4413 727.5C94.2413 728.7 94.2413 729.9 94.4413 731L92.9413 731.2Z" fill="#231F20"/>
<path d="M87.3413 730.2C87.5413 728.9 87.8413 727.7 88.2413 726.4C88.6413 725.2 89.0413 724 89.6413 722.8C90.7413 720.5 92.7413 718.6 94.9413 717.5C92.8413 718.8 91.1413 720.8 90.3413 723.1C89.9413 724.2 89.6413 725.5 89.3413 726.6C89.0413 727.8 88.9413 729 88.8413 730.2H87.3413Z" fill="#231F20"/>
<path d="M82.4414 725.2L83.7414 722.3C84.1414 721.4 84.6414 720.4 85.2414 719.5C86.3414 717.7 87.8414 716.2 89.5414 715.1C87.9414 716.4 86.7414 718.1 85.8414 719.9C85.4414 720.8 85.0414 721.8 84.7414 722.7L83.8414 725.6L82.4414 725.2Z" fill="#231F20"/>
<path d="M237.841 197C236.441 201.3 234.641 207.2 232.641 214.6C232.641 214.6 232.441 215.2 232.341 215.9C227.941 233.2 228.541 238.9 225.141 253.2C224.341 256.6 222.741 262.7 224.341 270.1C224.441 270.5 224.541 270.8 224.541 271C233.241 306.1 237.541 321.8 237.541 321.8C244.141 346.2 244.841 347.1 245.741 354.1C246.541 360.2 246.541 364.2 246.641 379.3C246.741 406.1 246.741 419.5 246.541 422.9C246.141 429.7 244.141 465.8 244.141 470.2C244.141 473 244.141 475.9 244.141 475.9C244.141 475.9 244.141 476.6 244.141 477C244.141 481.8 244.241 483.5 244.241 486.2C244.241 487.4 244.241 488.6 244.241 488.6C244.241 489.7 244.241 490.5 244.241 490.7C244.341 496.4 244.141 508.1 245.041 522.4C245.141 523.5 245.141 524.3 245.141 524.6C245.941 535.5 246.341 541.9 247.941 548.8C249.541 555.5 250.641 555.9 253.141 566.5C253.541 568.2 254.141 570.6 254.641 573.4C256.141 581.4 256.241 587.4 256.341 595.7C256.441 608.3 255.441 617.9 254.841 622.9C254.541 625.4 254.241 627.4 253.841 630C252.541 638.5 251.341 645.4 250.341 650.2C250.041 662.7 253.041 675 253.741 677.3C254.541 680 253.241 681 253.741 684.2C254.141 686.3 254.841 686.6 256.141 689.6C258.341 694.5 257.341 695.5 259.341 700.3C260.441 702.9 261.941 705.4 263.741 707.6C264.341 708.4 264.941 709.1 265.641 709.8C266.841 711 267.141 711.2 267.741 711.9C268.741 713.1 268.641 713.7 269.541 715.7C271.041 718.9 272.441 719.1 272.641 721.2C272.741 722.2 272.541 723.2 271.941 724.1C271.441 724.6 270.841 725.1 270.141 725.3C269.441 725.6 268.741 725.7 267.941 725.6C268.341 726.9 268.141 728.3 267.541 729.5C267.141 730.2 266.641 731.3 265.541 731.5C265.041 731.5 264.641 731.5 264.141 731.3C263.641 731.1 263.341 730.8 263.041 730.5C262.741 731.2 262.241 731.8 261.641 732.1C260.941 732.4 260.141 732.5 259.441 732.4C258.641 732.3 257.941 731.9 257.441 731.4C256.941 732.1 256.141 732.6 255.341 732.9C252.841 733.7 250.741 731.8 250.541 731.7C249.941 732.5 249.241 733.2 248.341 733.7C246.841 734.6 245.141 735.1 243.341 735C241.141 734.9 239.241 732.9 235.441 729C231.141 724.4 231.641 722.8 231.541 721.8C231.241 719 231.241 716.1 231.541 713.3C232.041 711 232.141 708.7 231.841 706.4C231.641 704.7 231.041 698.6 231.041 693.6C231.041 686.6 232.441 685.1 230.841 681.6C229.941 679.6 229.041 679 228.641 676.8C228.241 674.2 229.241 672.8 229.941 669.5C230.041 668.8 230.341 667.4 230.441 661.9C230.541 657.4 230.541 653.6 230.441 650.3L226.641 630.1C226.041 628.4 225.341 626.6 224.641 624.4C224.641 624.4 218.441 606.4 215.041 585.6C213.341 575.2 211.841 561.4 211.141 554.1C210.341 546.1 210.041 543.1 208.641 538.1C205.941 528.9 202.841 526.8 200.741 518.3C199.041 511.7 200.041 509.5 199.441 501.4C198.541 490.1 195.841 484.9 193.041 474.6C190.341 464.5 179.341 418.1 177.941 396.6C177.941 395.9 177.841 395.2 177.841 394.6C177.641 390.4 177.441 386.5 177.341 383C177.241 381.8 177.241 380.7 177.141 379.6C177.041 376.4 176.841 373.6 176.741 371.1C176.741 370.9 176.741 370.8 176.741 370.6" stroke="#231F20" stroke-width="1.5" stroke-miterlimit="10"/>
<path d="M249.942 731.5C249.842 730.4 249.542 729.3 249.242 728.2C248.842 727.1 248.442 726.1 247.842 725.1C246.642 723.1 244.842 721.5 242.642 720.6C244.842 721.3 246.942 722.8 248.442 724.7C249.142 725.7 249.842 726.7 250.242 727.8C250.742 728.9 251.142 730.1 251.442 731.3L249.942 731.5Z" fill="#231F20"/>
<path d="M256.842 731.1C257.042 729.9 257.042 728.8 256.842 727.6C256.642 726.4 256.342 725.3 255.842 724.2C254.842 722 252.942 720.2 250.642 719.2C253.042 720 255.142 721.6 256.442 723.8C257.142 724.9 257.642 726.1 257.942 727.4C258.242 728.6 258.442 730 258.342 731.3L256.842 731.1Z" fill="#231F20"/>
<path d="M262.541 730.4C262.441 729.2 262.341 728 262.041 726.8C261.741 725.6 261.441 724.4 261.041 723.3C260.241 721 258.541 719 256.441 717.7C258.641 718.8 260.641 720.7 261.741 723C262.341 724.2 262.741 725.3 263.141 726.6C263.541 727.8 263.841 729.1 264.041 730.4H262.541Z" fill="#231F20"/>
<path d="M267.441 725.7L266.541 722.8C266.241 721.8 265.841 720.9 265.441 720C264.641 718.2 263.341 716.5 261.741 715.2C263.441 716.3 264.941 717.8 266.041 719.6C266.641 720.5 267.041 721.4 267.541 722.4L268.841 725.3L267.441 725.7Z" fill="#231F20"/>
<g clip-path="url(#clip1_251_446)">
<path d="M23.5001 590.2C23.8001 594.9 23.5001 595.3 23.8001 599.1C24.0001 602 24.3001 605.5 25.4001 609.5C26.5001 613.2 27.8001 618 32.1001 622.4C33.5001 623.8 37.0001 627.3 42.8001 628.5C45.0001 629 49.3001 629.5 54.2001 627.7C58.8001 625.9 61.4001 622.9 63.1001 620.9C64.0001 619.9 67.3001 615.7 68.9001 609.2C69.9001 605 69.8001 601.7 69.5001 597.9C69.2001 593.1 68.9001 589.2 68.5001 585.8H23.1001C23.3001 587.3 23.4001 588.7 23.5001 590.2Z" fill="white" stroke="#27AAE1" stroke-miterlimit="10" stroke-dasharray="6 6"/>
<path d="M11.6999 521.7C11.7999 523.7 12.0999 525.9 13.2999 532.5C14.1999 537.3 14.8999 541 15.9999 546.1C17.5999 553.3 17.9999 553.5 19.1999 559.3C20.0999 563.5 20.5999 567 20.9999 569.4C21.5999 573.5 21.9999 576.5 22.3999 580C22.6999 582.3 22.8999 584.1 22.9999 585.5H33.7999L29.5999 504.8L12.4999 507.5C12.1999 509 11.9999 510.6 11.6999 512.6C11.2999 516.1 11.4999 518.7 11.6999 521.7Z" fill="white" stroke="#27AAE1" stroke-miterlimit="10" stroke-dasharray="6 6"/>
<path d="M55.4001 585.6H68.5001C67.9001 580 67.4001 575.6 67.0001 570.2C66.4001 562.6 66.1001 558.3 66.6001 552.2C66.9001 548.4 67.6001 540.1 71.1001 530.1C73.2001 524.3 74.2001 523.5 77.2001 514.9C79.4001 508.6 80.5001 505.4 80.6001 501.7C80.6001 500.6 80.7001 499.1 80.6001 497.4L59.5001 500.5C51.2001 523.7 49.8001 552.1 55.4001 585.6Z" fill="white" stroke="#27AAE1" stroke-miterlimit="10" stroke-dasharray="6 6"/>
<path d="M29.7 504.9L33.9 585.6H55.5C49.9 552.1 51.2 523.7 59.5 500.5L29.7 504.9Z" fill="white" stroke="#27AAE1" stroke-miterlimit="10" stroke-dasharray="6 6"/>
<path d="M12.5 507.5L29.7 504.9L59.4 500.5L80.5 497.4C80.4 494.6 80 491.2 78.7 487.7C78.4 487 78.1 486 77.8 484.8C72.9 483.6 68.8 482.6 65.5 481.9C63.4 481.4 61.1 480.9 57.9 480.6C56.5 480.5 54 480.3 51 480.5C48.7 480.6 49.4 480.8 46 481.1C46 481.1 45.9 481.1 45.8 481.1C44.8 481.2 41.2 481.5 39.1 482.1C38.8 482.2 38.5 482.3 38.5 482.3C37.9 482.5 37.3 482.7 35.8 483.3C31.7 484.9 30.6 484.9 28.4 486C27.7 486.4 27 486.8 25.7 487.5C24.1 488.5 21.7 489.9 20.4 490.9C16.6 493.9 16.9 497.9 15.1 499.9C14.8 501.5 14.2 502.6 13.5 504.2C13.1 505.3 12.7 506.4 12.5 507.5Z" fill="white" stroke="#27AAE1" stroke-miterlimit="10" stroke-dasharray="6 6"/>
<path d="M13.7 489.7C14.1 492.2 15.3 497.3 15.3 498.7C15.3 499.2 15.2 499.6 15.2 499.9C17 497.9 16.7 493.9 20.5 490.9C21.8 489.9 24.1 488.5 25.8 487.5C25.3 485.7 25.1 484.3 25 483.3C24.9 482.3 24.9 481.7 24.7 480.6C24.6 479.9 24.4 478.8 24 477.6C23.4 475.9 23.1 475.1 22.4 474.5C20.9 473.2 18.8 473.7 18.4 473.7C15.8 474.2 14.5 476.4 14.3 476.9C13.6 478.2 13.5 479.5 13.4 482.3C13.3 483.7 13.2 486.3 13.7 489.7Z" fill="white" stroke="#27AAE1" stroke-miterlimit="10" stroke-dasharray="6 6"/>
<path d="M35.7999 483.2C31.6999 484.8 30.5999 484.8 28.3999 485.9C27.6999 486.3 26.9999 486.7 25.6999 487.4C25.6999 486.3 25.5999 484.9 25.3999 483.2C25.0999 481.1 24.9999 479.7 24.4999 477.9C23.8999 475.6 23.4999 475.5 23.0999 473.6C22.8999 472.3 22.6999 471.1 22.9999 469.7C23.1999 468.8 23.7999 466.1 26.1999 465C27.7999 464.3 29.6999 464.5 30.9999 465.4C31.7999 466 32.1999 466.7 32.8999 468C33.1999 468.5 33.9999 470.2 34.6999 473.6C34.7999 474.2 34.8999 474.7 34.9999 475.2C35.1999 476.4 35.2999 477.5 35.4999 479C35.6999 480.6 35.7999 482 35.7999 483C35.7999 483.2 35.7999 483.2 35.7999 483.2Z" fill="white" stroke="#27AAE1" stroke-miterlimit="10" stroke-dasharray="6 6"/>
<path d="M46 481C45 481.1 41.3 481.4 39.1 482C38.8 482.1 38.5 482.2 38.5 482.2C37.9 482.4 37.3 482.6 35.8 483.2V483.1C35.7 482.1 35.6 480.7 35.5 479.1C35.3 477.6 35.2 476.5 35 475.3C34.9 473.5 34.8 472.5 34.3 471C34.1 470.5 33.9 469.7 33.5 468.4C33 466.7 32.8 465.9 32.7 465.4C32.5 463.3 33.4 460.8 35.3 459.3C35.8 458.9 36.8 458.1 38.3 458C40.5 457.9 42 459.4 42.3 459.7C43.8 461.2 44.2 463.1 44.6 465.8C44.6 465.9 44.6 465.9 44.6 466C45.3 470.4 45.5 474.3 45.6 474.8C45.8 476.5 46.1 478.6 46 481Z" fill="white" stroke="#27AAE1" stroke-miterlimit="10" stroke-dasharray="6 6"/>
<path d="M44.5 462.1C44.7 462.9 45 466.7 45.5 474.2C45.6 475.9 45.8 478.2 46 481C49.4 480.7 48.7 480.6 51 480.4C54.1 480.2 56.5 480.3 57.9 480.5C57.3 480.5 55.7 473.9 55.6 473.5C55.1 471.8 55.3 470.3 55.5 469C55.6 468.4 56 465.4 56.1 463.6C56.3 460.7 56.5 458.2 55.3 455.7C54.8 454.8 54 453.1 52.1 452.3C50.2 451.5 48 452 46.5 453.2C44.6 454.6 44.3 456.8 44 458.6C43.9 460.5 44.4 461.8 44.5 462.1Z" fill="white" stroke="#27AAE1" stroke-miterlimit="10" stroke-dasharray="6 6"/>
<path d="M58.7 471.6C59.1 473.8 59.4 475.6 59 478.1C58.9 478.7 58.6 480.5 57.9 480.6C61 480.9 63.4 481.4 65.5 481.9C68.8 482.6 72.9 483.6 77.8 484.8C77.6 484.1 77.5 483.3 77.5 482.4C77.4 479.8 77.9 478.2 78.5 475.8C79.1 473.4 80.1 469.4 80.3 465.5C80.4 462.3 80.5 458.2 77.8 454.6C77.2 453.8 74.7 450.7 70.3 449.8C69.2 449.6 66.5 449.1 63.6 450.5C60.7 451.9 59.3 454.5 58.8 455.5C58.1 456.9 57.8 458 57.8 458.4C57.4 460.3 57.6 461.7 57.8 462.9C58.6 468.3 58 467.2 58.7 471.6Z" fill="white" stroke="#27AAE1" stroke-miterlimit="10" stroke-dasharray="6 6"/>
</g>
<g clip-path="url(#clip2_251_446)">
<path d="M69.6999 597.9C68.8999 585 67.7999 579.1 67.1999 570.3C66.5999 562.7 66.2999 558.4 66.7999 552.3C67.0999 548.6 67.7999 540.2 71.2999 530.2C73.3999 524.4 74.3999 523.6 77.2999 515C79.4999 508.7 80.5999 505.5 80.6999 501.8C80.7999 499.1 80.8999 493.5 78.8999 487.8C78.4999 486.7 77.7999 485 77.6999 482.5C77.5999 479.9 78.0999 478.3 78.7999 475.9C79.3999 473.5 80.3999 469.5 80.5999 465.6C80.6999 462.4 80.7999 458.3 78.0999 454.7C77.4999 454 74.9999 450.9 70.5999 450C69.4999 449.8 66.7999 449.3 63.8999 450.7C60.9999 452.1 59.5999 454.7 59.0999 455.7C58.3999 457.1 58.0999 458.2 57.9999 458.7C57.5999 460.6 57.7999 462 57.9999 463.2C58.6999 468.5 58.0999 467.5 58.7999 471.9C59.0999 474.1 59.4999 475.9 59.0999 478.4C58.9999 479 58.6999 480.8 57.9999 480.9C57.3999 480.9 55.7999 474.3 55.6999 473.9C55.1999 472.2 55.3999 470.7 55.5999 469.4C55.6999 468.8 56.0999 465.8 56.1999 464.1C56.3999 461.2 56.5999 458.7 55.3999 456.2C54.8999 455.2 54.0999 453.6 52.1999 452.8C50.2999 452 48.0999 452.5 46.5999 453.6C44.6999 455 44.3999 457.2 44.1999 458.2C43.9999 459.3 44.1999 460 44.5999 462.3C45.2999 466.6 45.6999 468.8 45.7999 470.3C45.9999 473.5 45.7999 476.1 45.6999 476.1C45.5999 476.1 45.5999 474.6 45.2999 470.3C45.0999 467 44.9999 466.5 44.9999 466.1C44.4999 463.4 44.1999 461.5 42.6999 460C42.2999 459.6 40.7999 458.2 38.6999 458.3C37.1999 458.4 36.1999 459.2 35.6999 459.6C32.9999 461.8 33.0999 465.4 33.0999 465.6C33.0999 466.1 33.3999 467 33.8999 468.6C34.8999 471.9 35.1999 472.4 35.4999 473.7C36.5999 477.8 35.8999 481.6 35.7999 481.6C35.7999 481.6 35.7999 480.9 35.6999 479.3C35.5999 477.4 35.4999 475.8 35.0999 473.9C34.7999 472.5 34.3999 470.6 33.2999 468.3C32.5999 466.9 32.1999 466.2 31.3999 465.7C30.0999 464.8 28.1999 464.5 26.4999 465.2C24.0999 466.3 23.4999 468.9 23.2999 469.9C22.9999 471.4 23.1999 472.6 23.3999 473.8C23.6999 475.7 24.0999 475.8 24.7999 478.1C25.2999 479.9 25.4999 481.3 25.6999 483.4C25.8999 485.1 25.9999 486.6 26.0999 487.6C25.6999 485.8 25.3999 484.4 25.2999 483.4C25.1999 482.4 25.1999 481.8 24.9999 480.7C24.8999 480 24.6999 478.9 24.2999 477.7C23.6999 476 23.3999 475.2 22.6999 474.6C21.1999 473.3 19.0999 473.8 18.6999 473.8C16.0999 474.3 14.7999 476.5 14.5999 477C13.8999 478.2 13.7999 479.6 13.6999 482.4C13.5999 483.8 13.5999 486.4 14.0999 489.8C14.4999 492.3 15.6999 497.4 15.6999 498.8C15.5999 501.1 14.7999 502.4 13.9999 504.3C12.8999 507.1 12.5999 509.4 12.1999 512.7C11.7999 516.2 11.9999 518.8 12.1999 521.8C12.2999 523.8 12.5999 526 13.7999 532.6C14.6999 537.4 15.3999 541.1 16.4999 546.2C18.0999 553.4 18.4999 553.6 19.6999 559.3C20.5999 563.5 21.0999 567 21.4999 569.4C22.0999 573.5 22.4999 576.4 22.8999 580C23.4999 585 23.7999 587.5 23.9999 590.1C24.2999 594.8 23.9999 595.2 24.2999 599C24.4999 601.9 24.7999 605.4 25.8999 609.4C26.9999 613.1 28.2999 618 32.5999 622.3C33.9999 623.7 37.4999 627.2 43.2999 628.4C45.4999 628.9 49.7999 629.4 54.6999 627.6C59.2999 625.8 61.8999 622.8 63.5999 620.8C64.4999 619.8 67.7999 615.6 69.3999 609.1C70.0999 605.1 69.9999 601.7 69.6999 597.9Z" stroke="#231F20" stroke-width="1.5" stroke-miterlimit="10" stroke-linejoin="round"/>
<path d="M69.2999 591.7C68.6999 590.3 67.9999 588.9 67.3999 587.4C66.5999 585.6 65.5999 583.6 63.4999 581.8C62.1999 580.8 60.9999 580.2 60.0999 579.8" stroke="#231F20" stroke-miterlimit="10" stroke-linecap="round"/>
<path d="M58.1001 525.5C56.4001 525.2 53.3001 524.4 50.2001 522.2C49.6001 521.8 47.1001 519.8 45.1001 516.4C44.5001 515.4 43.2001 512.9 42.6001 509.4C41.8001 504.6 43.0001 500.7 43.7001 498.7" stroke="#231F20" stroke-miterlimit="10" stroke-linecap="round"/>
<path d="M78.5999 487C78.2999 486.5 77.9999 486.1 77.6999 485.6C77.0999 484.7 76.4999 484 75.8999 483.3" stroke="#231F20" stroke-miterlimit="10" stroke-linecap="round" stroke-linejoin="round"/>
<path d="M17.8999 501.7C17.3999 501.1 16.8999 500.4 16.3999 499.6C15.9999 499 14.6999 493.5 14.3999 492.9" stroke="#231F20" stroke-miterlimit="10" stroke-linecap="round" stroke-linejoin="round"/>
<path d="M21.7 486.9C22.2 486.7 23 486.3 23.7 485.5C24.8 484.3 25 482.9 25.1 482.4" stroke="#231F20" stroke-miterlimit="10" stroke-linecap="round" stroke-linejoin="round"/>
<path d="M26.8 476.6C27.3 476.8 28.3 477 29.5 476.8C31.3 476.4 32.2 475.2 32.5 474.9" stroke="#231F20" stroke-miterlimit="10" stroke-linecap="round" stroke-linejoin="round"/>
<path d="M33.5 462.5C33.5 463.5 33.5 464.3 33.6 465.1C33.9 467.7 34.4 469 35.2 469.9C35.6 470.3 36.4 471.2 37.8 471.3C38.9 471.4 39.7 471 40.1 470.7" stroke="#231F20" stroke-miterlimit="10" stroke-linecap="round" stroke-linejoin="round"/>
<path d="M49.7999 467.2C49.0999 467.1 47.7999 466.7 46.5999 465.6C46.1999 465.2 45.6999 464.6 45.1999 463.5C44.9999 463 44.7999 462.5 44.5999 462" stroke="#231F20" stroke-miterlimit="10" stroke-linecap="round" stroke-linejoin="round"/>
<path d="M58.8 470.6C59.1 471.5 59.3 472.2 59.6 472.7C60.7 474.8 62.1 476.1 62.1 476.1C62.9 476.9 63.7001 477.4 64.2001 477.7" stroke="#231F20" stroke-miterlimit="10" stroke-linecap="round" stroke-linejoin="round"/>
</g>
<g clip-path="url(#clip3_251_446)">
<path d="M327.5 590.2C327.2 594.9 327.5 595.3 327.2 599.1C327 602 326.7 605.5 325.6 609.5C324.5 613.2 323.2 618 318.9 622.4C317.5 623.8 314 627.3 308.2 628.5C306 629 301.7 629.5 296.8 627.7C292.2 625.9 289.6 622.9 287.9 620.9C287 619.9 283.7 615.7 282.1 609.2C281.1 605 281.2 601.7 281.5 597.9C281.8 593.1 282.1 589.2 282.5 585.8H327.9C327.7 587.3 327.6 588.7 327.5 590.2Z" fill="white" stroke="#27AAE1" stroke-miterlimit="10" stroke-dasharray="6 6"/>
<path d="M295.6 585.6H282.5C283.1 580 283.6 575.6 284 570.2C284.6 562.6 284.9 558.3 284.4 552.2C284.1 548.4 283.4 540.1 279.9 530.1C277.8 524.3 276.8 523.5 273.8 514.9C271.6 508.6 270.5 505.4 270.4 501.7C270.4 500.6 270.3 499.1 270.4 497.4L291.5 500.5C299.8 523.7 301.1 552.1 295.6 585.6Z" fill="white" stroke="#27AAE1" stroke-miterlimit="10" stroke-dasharray="6 6"/>
<path d="M321.3 504.9L317.1 585.6H295.6C301.2 552.1 299.9 523.7 291.6 500.5L321.3 504.9Z" fill="white" stroke="#27AAE1" stroke-miterlimit="10" stroke-dasharray="6 6"/>
<path d="M339.2 521.7C339.1 523.7 338.8 525.9 337.6 532.5C336.7 537.3 336 541 334.9 546.1C333.3 553.3 332.9 553.5 331.7 559.3C330.8 563.5 330.3 567 329.9 569.4C329.3 573.5 328.9 576.5 328.5 580C328.2 582.3 328 584.1 327.9 585.5H317.1L321.3 504.8L338.5 507.4C338.9 509 339 510.6 339.3 512.6C339.6 516.1 339.5 518.7 339.2 521.7Z" fill="white" stroke="#27AAE1" stroke-miterlimit="10" stroke-dasharray="6 6"/>
<path d="M338.5 507.5L321.3 504.9L291.6 500.5L270.5 497.3C270.6 494.5 271 491.1 272.3 487.6C272.6 486.9 272.9 485.9 273.2 484.7C278.1 483.5 282.2 482.5 285.5 481.8C287.6 481.3 289.9 480.8 293.1 480.5C294.5 480.4 297 480.2 300 480.4C302.3 480.5 301.6 480.7 305 481H305.2C306.2 481.1 309.8 481.4 311.9 482C312.2 482.1 312.5 482.2 312.5 482.2C313.1 482.4 313.7 482.6 315.2 483.2C319.3 484.8 320.4 484.8 322.6 485.9C323.3 486.3 324 486.7 325.3 487.4C326.9 488.4 329.3 489.8 330.6 490.8C334.4 493.8 334.1 497.8 335.9 499.8C336.2 501.4 336.8 502.5 337.5 504.1C337.9 505.3 338.2 506.4 338.5 507.5Z" fill="white" stroke="#27AAE1" stroke-miterlimit="10" stroke-dasharray="6 6"/>
<path d="M337.3 489.7C336.9 492.2 335.7 497.3 335.7 498.7C335.7 499.2 335.8 499.6 335.8 499.9C334 497.9 334.3 493.9 330.5 490.9C329.2 489.9 326.9 488.5 325.2 487.5C325.7 485.7 325.9 484.3 326 483.3C326.1 482.3 326.1 481.7 326.3 480.6C326.4 479.9 326.6 478.8 327 477.6C327.6 475.9 327.9 475.1 328.6 474.5C330.1 473.2 332.2 473.7 332.6 473.7C335.2 474.2 336.5 476.4 336.7 476.9C337.4 478.2 337.5 479.5 337.6 482.3C337.7 483.7 337.8 486.3 337.3 489.7Z" fill="white" stroke="#27AAE1" stroke-miterlimit="10" stroke-dasharray="6 6"/>
<path d="M327.9 473.7C327.5 475.6 327.2 475.7 326.5 478C326 479.8 325.8 481.2 325.6 483.3C325.4 485 325.3 486.5 325.3 487.5C324 486.7 323.3 486.3 322.6 486C320.4 484.9 319.3 484.9 315.2 483.3C315.3 482.5 315.4 481.3 315.5 479.8C315.8 476.8 316 475.2 316.3 473.7C316.9 470.6 317.7 468.9 318.1 468.1C318.8 466.7 319.2 466 320 465.5C321.3 464.6 323.2 464.3 324.8 465.1C327.2 466.2 327.8 468.8 328 469.8C328.3 471.2 328.1 472.4 327.9 473.7Z" fill="white" stroke="#27AAE1" stroke-miterlimit="10" stroke-dasharray="6 6"/>
<path d="M318.2 465.4C318.1 465.9 317.9 466.8 317.4 468.4C317 469.7 316.8 470.5 316.6 471C316.1 472.6 316 473.6 315.5 479.1C315.4 479.9 315.3 481.3 315.1 483.2C313.6 482.6 313.1 482.4 312.4 482.2C312.4 482.2 312.1 482.1 311.8 482C309.7 481.4 306.1 481.1 305.1 481C305.2 478.8 305.3 477.1 305.4 475.9C305.6 472.4 305.6 469.5 306.2 466C306.2 465.9 306.2 465.8 306.2 465.8C306.7 463.1 307 461.2 308.5 459.7C308.9 459.3 310.4 457.9 312.5 458C314 458.1 315 458.9 315.5 459.3C317.5 460.8 318.4 463.3 318.2 465.4Z" fill="white" stroke="#27AAE1" stroke-miterlimit="10" stroke-dasharray="6 6"/>
<path d="M306.5 462.1C305.9 464.2 306.2 466.9 305.4 475.9C305.3 477 305.3 478.8 305.1 481H304.9C301.5 480.7 302.2 480.6 299.9 480.4C296.8 480.2 294.4 480.3 293 480.5C293.6 480.5 295.2 473.9 295.3 473.5C295.8 471.8 295.6 470.3 295.4 469C295.3 468.4 294.9 465.4 294.8 463.6C294.6 460.7 294.4 458.2 295.6 455.7C296.1 454.8 296.9 453.1 298.8 452.3C300.7 451.5 302.9 452 304.4 453.2C306.3 454.6 306.6 456.8 306.9 458.6C307.1 460.5 306.6 461.8 306.5 462.1Z" fill="white" stroke="#27AAE1" stroke-miterlimit="10" stroke-dasharray="6 6"/>
<path d="M292.3 471.6C291.9 473.8 291.6 475.6 292 478.1C292.1 478.7 292.4 480.5 293.1 480.6C290 480.9 287.6 481.4 285.5 481.9C282.2 482.6 278.1 483.6 273.2 484.8C273.4 484.1 273.5 483.3 273.5 482.4C273.6 479.8 273.1 478.2 272.5 475.8C271.9 473.4 270.9 469.4 270.7 465.5C270.6 462.2 270.5 458.1 273.1 454.5C273.7 453.7 276.2 450.6 280.6 449.7C281.7 449.5 284.4 449 287.3 450.4C290.2 451.8 291.6 454.4 292.1 455.4C292.8 456.8 293.1 457.9 293.1 458.3C293.5 460.2 293.3 461.6 293.1 462.8C292.4 468.3 293 467.2 292.3 471.6Z" fill="white" stroke="#27AAE1" stroke-miterlimit="10" stroke-dasharray="6 6"/>
<g clip-path="url(#clip4_251_446)">
<path d="M281.8 597.9C282.6 585 283.7 579.1 284.3 570.3C284.9 562.7 285.2 558.4 284.7 552.3C284.4 548.6 283.7 540.2 280.2 530.2C278.1 524.4 277.1 523.6 274.2 515C272 508.8 270.9 505.6 270.8 501.9C270.7 499.2 270.6 493.6 272.6 487.9C273 486.8 273.7 485.1 273.8 482.6C273.9 480 273.4 478.4 272.7 476C272.1 473.6 271.1 469.6 270.9 465.7C270.8 462.5 270.7 458.4 273.4 454.8C274 454 276.5 450.9 280.8 450C281.9 449.8 284.6 449.3 287.5 450.7C290.4 452.1 291.8 454.7 292.3 455.7C293 457.1 293.3 458.2 293.4 458.7C293.8 460.6 293.6 462 293.4 463.2C292.7 468.5 293.3 467.5 292.6 471.9C292.3 474.1 291.9 475.9 292.3 478.4C292.4 479 292.7 480.8 293.4 480.9C294 480.9 295.6 474.3 295.7 473.9C296.2 472.2 296 470.7 295.8 469.4C295.7 468.8 295.3 465.8 295.2 464.1C295 461.2 294.8 458.7 296 456.2C296.5 455.2 297.3 453.6 299.2 452.8C301 452 303.2 452.5 304.7 453.6C306.6 455 306.9 457.2 307.1 458.2C307.3 459.3 307.1 460 306.7 462.3C306 466.6 305.6 468.8 305.5 470.3C305.3 473.5 305.5 476.1 305.6 476.1C305.7 476.1 305.7 474.6 306 470.3C306.2 466.9 306.3 466.4 306.4 465.9C306.9 463.2 307.2 461.3 308.7 459.8C309.1 459.4 310.6 458 312.7 458.1C314.2 458.2 315.2 459 315.7 459.4C318.4 461.6 318.3 465.2 318.3 465.4C318.3 465.9 318 466.8 317.5 468.4C316.5 471.7 316.2 472.2 315.9 473.5C314.8 477.6 315.5 481.4 315.6 481.4C315.6 481.4 315.6 480.7 315.7 479.1C315.8 477.2 315.9 475.6 316.3 473.7C316.6 472.3 317 470.4 318.1 468.1C318.8 466.7 319.2 466 320 465.5C321.3 464.6 323.2 464.3 324.9 465C327.3 466.1 327.9 468.7 328.1 469.7C328.4 471.2 328.2 472.4 328 473.6C327.7 475.5 327.3 475.6 326.6 477.9C326.1 479.7 325.9 481.1 325.7 483.2C325.5 484.9 325.4 486.4 325.3 487.4C325.7 485.6 326 484.2 326.1 483.2C326.2 482.2 326.2 481.6 326.4 480.5C326.5 479.8 326.7 478.7 327.1 477.5C327.7 475.8 328 475 328.7 474.4C330.2 473.1 332.3 473.6 332.7 473.6C335.3 474.1 336.6 476.3 336.8 476.8C337.5 478 337.6 479.4 337.7 482.2C337.8 483.6 337.8 486.2 337.3 489.6C336.9 492.1 335.7 497.2 335.7 498.6C335.8 500.9 336.6 502.2 337.4 504.1C338.5 506.9 338.8 509.2 339.2 512.5C339.6 516 339.4 518.6 339.2 521.6C339.1 523.6 338.8 525.8 337.6 532.4C336.7 537.2 336 540.9 334.9 546C333.3 553.2 332.9 553.4 331.7 559.1C330.8 563.3 330.3 566.8 329.9 569.2C329.3 573.3 328.9 576.2 328.5 579.8C327.9 584.8 327.6 587.3 327.4 589.9C327.1 594.6 327.4 595 327.1 598.8C326.9 601.7 326.6 605.2 325.5 609.2C324.4 612.9 323.1 617.8 318.8 622.1C317.4 623.5 313.9 627 308.1 628.2C305.9 628.7 301.6 629.2 296.7 627.4C292.1 625.6 289.5 622.6 287.8 620.6C286.9 619.6 283.6 615.4 282 608.9C281.4 605.1 281.5 601.7 281.8 597.9Z" stroke="#231F20" stroke-width="1.5" stroke-miterlimit="10" stroke-linejoin="round"/>
<path d="M282.2 591.7C282.8 590.3 283.5 588.9 284.1 587.4C284.9 585.6 285.9 583.6 288 581.8C289.3 580.8 290.5 580.2 291.4 579.8" stroke="#231F20" stroke-miterlimit="10" stroke-linecap="round"/>
<path d="M293.4 525.5C295.1 525.2 298.2 524.4 301.3 522.2C301.9 521.8 304.4 519.8 306.4 516.4C307 515.4 308.3 512.9 308.9 509.4C309.7 504.6 308.5 500.7 307.8 498.7" stroke="#231F20" stroke-miterlimit="10" stroke-linecap="round"/>
<path d="M272.9 487C273.2 486.5 273.5 486.1 273.8 485.6C274.4 484.7 275 484 275.6 483.3" stroke="#231F20" stroke-miterlimit="10" stroke-linecap="round" stroke-linejoin="round"/>
<path d="M333.6 501.7C334.1 501.1 334.6 500.4 335.1 499.6C335.4 499.1 336.8 493.5 337 493" stroke="#231F20" stroke-miterlimit="10" stroke-linecap="round" stroke-linejoin="round"/>
<path d="M329.7 486.9C329.2 486.7 328.4 486.3 327.7 485.5C326.6 484.3 326.4 482.9 326.3 482.4" stroke="#231F20" stroke-miterlimit="10" stroke-linecap="round" stroke-linejoin="round"/>
<path d="M324.7 476.6C324.2 476.8 323.2 477 322 476.8C320.2 476.4 319.3 475.2 319 474.9" stroke="#231F20" stroke-miterlimit="10" stroke-linecap="round" stroke-linejoin="round"/>
<path d="M318 462.5C318 463.5 318 464.3 317.9 465.1C317.6 467.7 317.1 469 316.2 469.9C315.8 470.3 315 471.2 313.6 471.3C312.5 471.4 311.7 471 311.3 470.7" stroke="#231F20" stroke-miterlimit="10" stroke-linecap="round" stroke-linejoin="round"/>
<path d="M301.6 467.2C302.3 467.1 303.6 466.7 304.8 465.6C305.2 465.2 305.7 464.6 306.2 463.5C306.4 463 306.6 462.5 306.8 462" stroke="#231F20" stroke-miterlimit="10" stroke-linecap="round" stroke-linejoin="round"/>
<path d="M292.7 470.6C292.4 471.5 292.2 472.2 291.9 472.7C290.8 474.8 289.4 476.1 289.4 476.1C288.6 476.9 287.8 477.4 287.3 477.7" stroke="#231F20" stroke-miterlimit="10" stroke-linecap="round" stroke-linejoin="round"/>
</g>
</g>
</g>
<defs>
<clipPath id="clip0_251_446">
<rect width="352.4" height="735" fill="white"/>
</clipPath>
<clipPath id="clip1_251_446">
<rect width="70" height="180.4" fill="white" transform="translate(11 449)"/>
</clipPath>
<clipPath id="clip2_251_446">
<rect width="70.5" height="180.9" fill="white" transform="translate(11 449)"/>
</clipPath>
<clipPath id="clip3_251_446">
<rect width="70" height="180.4" fill="white" transform="translate(270 449)"/>
</clipPath>
<clipPath id="clip4_251_446">
<rect width="70.5" height="180.9" fill="white" transform="translate(270 449)"/>
</clipPath>
</defs>
</svg>
