<svg width="20" height="19" viewBox="0 0 20 19" fill="none" xmlns="http://www.w3.org/2000/svg">
    <path d="M19.5 18.7922L17.7187 18.7922L17.7187 14.9328L17.3625 15.3781C16.3531 16.6448 15.2547 17.5651 14.0672 18.1391C12.8797 18.713 11.5536 19 10.0891 19C7.99115 19 6.10599 18.3815 4.43359 17.1445C2.7612 15.9076 1.60833 14.2797 0.975 12.2609L2.81562 12.2609C3.38958 13.7453 4.34453 14.9427 5.68047 15.8531C7.01641 16.7635 8.48594 17.2187 10.0891 17.2187C11.3359 17.2187 12.4195 16.9862 13.3398 16.5211C14.2602 16.056 15.0568 15.4276 15.7297 14.6359L16.3531 13.7453L12.6719 13.7453L12.6719 11.9641L19.5 11.9641L19.5 18.7922ZM19.0547 6.70937L17.1844 6.70937C16.6104 5.20521 15.6555 4.00781 14.3195 3.11719C12.9836 2.22656 11.5141 1.78125 9.91094 1.78125C8.96094 1.78125 7.99609 2.0138 7.01641 2.47891C6.03672 2.94401 5.17083 3.5526 4.41875 4.30469L3.64687 5.16563L7.32812 5.16563L7.32812 6.94688L0.499999 6.94688L0.499999 0.11875L2.28125 0.11875L2.28125 4.00781L2.69687 3.5625C3.80521 2.375 4.99271 1.48437 6.25937 0.890625C7.52604 0.296875 8.74323 -3.60323e-07 9.91094 -4.11365e-07C12.0089 -5.03068e-07 13.899 0.613542 15.5812 1.84063C17.2635 3.06771 18.4214 4.69062 19.0547 6.70937Z" fill="white"/>
</svg>
