<svg width="352" height="724" viewBox="0 0 352 724" fill="none" xmlns="http://www.w3.org/2000/svg">
<g clip-path="url(#clip0_251_2217)">
<path d="M226.8 699C226.8 706 226.8 713 228.8 720C236.8 726 249.8 724 255.8 715C259.8 711 270.8 708 266.8 700C264.8 697 254.5 699.4 254.3 683.9C254.3 682.8 253.8 679.9 253.3 676H229C228.8 681 228.8 686 228.8 691C228.8 694 226.8 696 226.8 699Z" fill="white" stroke="#27AAE1" stroke-miterlimit="10" stroke-dasharray="6 6"/>
<path d="M125.2 699C125.2 706 125.2 713 123.2 720C115.2 726 102.2 724 96.2 715C92.2 711 81.2 708 85.2 700C87.2 697 97.5 699.4 97.7 683.9C97.7 682.8 98.2 679.9 98.7 676H123C123.2 681 123.2 686 123.2 691C123.2 694 125.2 696 125.2 699Z" fill="white" stroke="#27AAE1" stroke-miterlimit="10" stroke-dasharray="6 6"/>
<path d="M238.6 676H253.2C252.1 668.7 250.6 658 250.8 649.8C251.8 645 253 638.1 254.3 629.6C254.7 627.1 255 625 255.3 622.5C255.9 617.5 256.9 607.9 256.8 595.3C256.7 587 256.6 580.9 255.1 573C254.6 570.2 254 567.8 253.6 566.1C251 555.5 250 555.2 248.4 548.4C247.9 546.4 247.6 544.5 247.3 542.4C242.2 542.4 237 542.4 231.9 542.4C237.1 558.8 242.2 580.8 243 607.2C243.6 628 241.5 661.6 238.6 676Z" fill="white" stroke="#27AAE1" stroke-miterlimit="10" stroke-dasharray="6 6"/>
<path d="M113.3 676H98.7C99.8 668.7 101.3 658 101.1 649.8C100.1 645 98.9 638.1 97.6 629.6C97.2 627.1 96.9 625 96.6 622.5C96 617.5 95 607.9 95.1 595.3C95.2 587 95.3 580.9 96.8 573C97.3 570.2 97.9 567.8 98.3 566.1C100.9 555.5 101.9 555.2 103.5 548.4C104 546.4 104.3 544.5 104.6 542.4C109.7 542.4 114.9 542.4 120 542.4C114.8 558.8 109.7 580.8 108.9 607.2C108.3 628 110.5 661.6 113.3 676Z" fill="white" stroke="#27AAE1" stroke-miterlimit="10" stroke-dasharray="6 6"/>
<path d="M210.2 542.5C210.7 545.4 211 548.4 211.5 553.6C212.3 560.9 213.7 574.7 215.4 585.1C218.8 605.9 225 623.9 225 623.9C225.8 626.1 226.4 628 227 629.6C227 629.6 230.7 653 230.7 658C229.6 664 229.1 670 228.9 676H238.5C241.3 661.6 243.5 628 242.9 607.3C242.1 581 237 558.9 231.8 542.5C224.7 542.5 217.5 542.5 210.2 542.5Z" fill="white" stroke="#27AAE1" stroke-miterlimit="10" stroke-dasharray="6 6"/>
<path d="M141.7 542.5C141.2 545.4 140.9 548.4 140.4 553.6C139.6 560.9 138.2 574.7 136.5 585.1C133.1 605.9 126.9 623.9 126.9 623.9C126.1 626.1 125.5 628 124.9 629.6C124.9 629.6 121.2 653 121.2 658C122.3 664 122.8 670 123 676H113.4C110.6 661.6 108.4 628 109 607.3C109.8 581 114.9 558.9 120.1 542.5C127.3 542.5 134.5 542.5 141.7 542.5Z" fill="white" stroke="#27AAE1" stroke-miterlimit="10" stroke-dasharray="6 6"/>
<path d="M199.8 500.7C199.8 500.8 199.8 500.8 199.8 500.9C200.4 508.9 199.4 511.1 201.1 517.8C203.2 526.3 206.2 528.4 209 537.6C209.5 539.4 209.9 540.9 210.2 542.6H231.8C236.9 542.6 242.1 542.6 247.2 542.6C246.4 537.6 246.1 532.2 245.5 524.4C245.5 524.1 245.4 523.3 245.3 522.2C244.8 513.9 244.6 506.4 244.6 500.5C237.4 500.6 230.1 500.7 222.9 500.8H199.8V500.7Z" fill="white" stroke="#27AAE1" stroke-miterlimit="10" stroke-dasharray="6 6"/>
<path d="M152.1 500.7C152.1 500.8 152.1 500.8 152.1 500.9C151.5 508.9 152.5 511.1 150.8 517.8C148.7 526.3 145.7 528.4 142.9 537.6C142.4 539.4 142 540.9 141.7 542.6H120.1C115 542.6 109.8 542.6 104.7 542.6C105.5 537.6 105.8 532.2 106.4 524.4C106.4 524.1 106.5 523.3 106.6 522.2C107.1 513.9 107.3 506.4 107.3 500.5C114.5 500.6 121.8 500.7 129 500.8H152.1V500.7Z" fill="white" stroke="#27AAE1" stroke-miterlimit="10" stroke-dasharray="6 6"/>
<path d="M182 417.502C185.661 439.882 191.922 466.878 193.849 474.305C196.546 484.642 199.147 489.76 199.917 501C200.977 501 202.037 501 203 501V417H202.904C202.711 417 202.518 417 202.326 417H201.748C201.555 417 201.362 417 201.17 417C194.716 417.1 188.358 417.301 182 417.502Z" fill="white" stroke="#27AAE1" stroke-miterlimit="10" stroke-dasharray="6 6"/>
<path d="M170.7 417.5C166.9 439.8 160.4 466.7 158.4 474.1C155.6 484.4 152.9 489.5 152.1 500.7C151 500.7 149.9 500.7 148.9 500.7V417H149C149.2 417 149.4 417 149.6 417H150.2C150.4 417 150.6 417 150.8 417C157.5 417.1 164.1 417.3 170.7 417.5Z" fill="white" stroke="#27AAE1" stroke-miterlimit="10" stroke-dasharray="6 6"/>
<path d="M203.1 416.9V500.7C209.8 500.7 216.5 500.6 223.1 500.6C223.4 499.3 223.7 498 224.1 496.7C224.6 494.7 225 492.8 225.5 490.8C225.8 489.7 226 488.5 226.3 487.4C226.5 486.3 226.8 485.2 227 484.1C227.4 482.4 227.7 480.7 228.1 479C228.4 477.7 228.6 476.4 228.9 475.1C229.6 471.3 230.3 467.5 230.9 463.8C231 462.9 231.2 462 231.3 461C231.6 459.2 231.9 457.3 232.1 455.5C232.2 454.6 232.4 453.7 232.5 452.8C232.7 451.4 232.9 450 233 448.7C233.2 447.3 233.3 445.9 233.5 444.6C233.6 443.3 233.8 442 233.9 440.7C233.9 440.5 233.9 440.3 234 440.1C234.1 438.9 234.2 437.6 234.3 436.4C234.4 435 234.5 433.7 234.6 432.3C234.7 431 234.8 429.6 234.9 428.3V428.2C235 427.1 235 426 235.1 424.9C235.2 423.8 235.2 422.6 235.2 421.5C235.2 420.9 235.2 420.3 235.3 419.7C235.3 418.4 235.4 417.2 235.4 415.9C235.4 414.7 235.4 413.5 235.4 412.2C235.4 411.4 235.4 410.7 235.4 410L228.4 410.6C221.6 414.9 211.6 416.5 203.1 416.9Z" fill="white" stroke="#27AAE1" stroke-miterlimit="10" stroke-dasharray="6 6"/>
<path d="M148.9 416.9V500.7C142.2 500.7 135.5 500.6 128.9 500.6C128.6 499.3 128.3 498 127.9 496.7C127.4 494.7 127 492.8 126.5 490.8C126.2 489.7 126 488.5 125.7 487.4C125.5 486.3 125.2 485.2 125 484.1C124.6 482.4 124.3 480.7 123.9 479C123.6 477.7 123.4 476.4 123.1 475.1C122.4 471.3 121.7 467.5 121.1 463.8C121 462.9 120.8 462 120.7 461C120.4 459.2 120.1 457.3 119.9 455.5C119.8 454.6 119.6 453.7 119.5 452.8C119.3 451.4 119.1 450 119 448.7C118.8 447.3 118.7 445.9 118.5 444.6C118.4 443.3 118.2 442 118.1 440.7C118.1 440.5 118.1 440.3 118 440.1C117.9 438.9 117.8 437.6 117.7 436.4C117.6 435 117.5 433.7 117.4 432.3C117.3 431 117.2 429.6 117.1 428.3V428.2C117 427.1 117 426 116.9 424.9C116.8 423.8 116.8 422.6 116.8 421.5C116.8 420.9 116.8 420.3 116.7 419.7C116.7 418.4 116.6 417.2 116.6 415.9C116.6 414.7 116.6 413.5 116.6 412.2C116.6 411.4 116.6 410.7 116.6 410L123.6 410.6C130.4 414.9 140.4 416.5 148.9 416.9Z" fill="white" stroke="#27AAE1" stroke-miterlimit="10" stroke-dasharray="6 6"/>
<path d="M244.5 475.6C244.5 475.6 244.5 472.8 244.5 469.9C244.5 465.6 246.5 429.5 246.9 422.6C247 420.9 247 416.7 247 409.5C243.1 409.7 239.2 409.8 235.3 410C235.3 410.7 235.3 411.5 235.3 412.2C235.3 413.4 235.3 414.6 235.3 415.9C235.3 417.2 235.3 418.4 235.2 419.7C235.2 420.3 235.2 420.9 235.1 421.5C235.1 422.6 235 423.7 235 424.9C235 426 234.9 427.1 234.8 428.2V428.3C234.7 429.6 234.6 431 234.5 432.3C234.4 433.7 234.3 435 234.2 436.4C234.1 437.6 234 438.9 233.9 440.1C233.9 440.3 233.9 440.5 233.8 440.7C233.7 442 233.5 443.3 233.4 444.6C233.2 446 233.1 447.3 232.9 448.7C232.7 450.1 232.6 451.5 232.4 452.8C232.3 453.7 232.1 454.6 232 455.5C231.7 457.3 231.5 459.2 231.2 461C231.1 461.9 230.9 462.8 230.8 463.8C230.2 467.6 229.5 471.3 228.8 475.1C228.5 476.4 228.3 477.7 228 479C227.7 480.7 227.3 482.4 226.9 484.1C226.7 485.2 226.4 486.3 226.2 487.4C225.9 488.5 225.7 489.6 225.4 490.8C225 492.7 224.5 494.7 224 496.7C223.7 498 223.4 499.3 223 500.6C230.2 500.5 237.4 500.5 244.6 500.5C244.6 496.3 244.6 492.9 244.5 490.5C244.5 490.4 244.5 489.6 244.5 488.4C244.5 488.4 244.5 487.2 244.5 486C244.5 483.2 244.5 481.6 244.4 476.8C244.5 476.4 244.5 475.6 244.5 475.6Z" fill="white" stroke="#27AAE1" stroke-miterlimit="10" stroke-dasharray="6 6"/>
<path d="M107.4 475.6C107.4 475.6 107.4 472.8 107.4 469.9C107.4 465.6 105.4 429.5 105 422.6C104.9 420.9 104.9 416.7 104.9 409.5C108.8 409.7 112.7 409.8 116.6 410C116.6 410.7 116.6 411.5 116.6 412.2C116.6 413.4 116.6 414.6 116.6 415.9C116.6 417.2 116.6 418.4 116.7 419.7C116.7 420.3 116.7 420.9 116.8 421.5C116.8 422.6 116.9 423.7 116.9 424.9C116.9 426 117 427.1 117.1 428.2V428.3C117.2 429.6 117.3 431 117.4 432.3C117.5 433.7 117.6 435 117.7 436.4C117.8 437.6 117.9 438.9 118 440.1C118 440.3 118 440.5 118.1 440.7C118.2 442 118.4 443.3 118.5 444.6C118.7 446 118.8 447.3 119 448.7C119.2 450.1 119.3 451.5 119.5 452.8C119.6 453.7 119.8 454.6 119.9 455.5C120.2 457.3 120.4 459.2 120.7 461C120.8 461.9 121 462.8 121.1 463.8C121.7 467.6 122.4 471.3 123.1 475.1C123.4 476.4 123.6 477.7 123.9 479C124.2 480.7 124.6 482.4 125 484.1C125.2 485.2 125.5 486.3 125.7 487.4C126 488.5 126.2 489.6 126.5 490.8C126.9 492.7 127.4 494.7 127.9 496.7C128.2 498 128.5 499.3 128.9 500.6C121.7 500.5 114.5 500.5 107.3 500.5C107.3 496.3 107.3 492.9 107.4 490.5C107.4 490.4 107.4 489.6 107.4 488.4C107.4 488.4 107.4 487.2 107.4 486C107.4 483.2 107.4 481.6 107.5 476.8C107.4 476.4 107.4 475.6 107.4 475.6Z" fill="white" stroke="#27AAE1" stroke-miterlimit="10" stroke-dasharray="6 6"/>
<path d="M235 409.733L228.149 410.314C221.593 414.384 211.806 416.031 203.488 416.322C203.194 416.322 202.998 416.322 202.705 416.322C201.922 416.322 201.237 416.225 200.454 416.225C200.258 416.225 199.964 416.225 199.769 416.128C199.084 416.031 198.399 415.934 197.714 415.837C197.518 415.837 197.224 415.74 197.028 415.74C196.637 415.643 196.148 415.547 195.756 415.45C195.56 415.45 195.365 415.353 195.267 415.353C197.224 416.031 199.084 416.419 200.649 416.419H201.628C195.169 416.612 188.71 416.806 182.251 417C181.859 414.481 181.468 412.155 181.077 409.829C180.979 409.151 180.881 408.473 180.783 407.795C180.489 405.663 180.196 403.628 180 401.787C180 401.884 180.098 401.981 180.098 402.078C180.391 402.853 180.881 403.628 181.272 404.403C181.468 404.791 181.664 405.178 181.957 405.566C181.957 405.566 181.957 405.663 182.055 405.663C182.251 406.05 182.544 406.341 182.74 406.729C182.936 407.019 183.132 407.31 183.327 407.504C183.523 407.795 183.719 407.988 183.915 408.182C183.915 408.182 183.915 408.279 184.012 408.279C184.698 409.151 185.578 410.12 186.753 410.992C186.263 410.605 185.872 410.217 185.48 409.829C185.383 409.733 185.383 409.733 185.285 409.636C185.089 409.442 184.991 409.345 184.795 409.151C184.698 409.054 184.6 408.957 184.6 408.86C184.6 408.86 184.6 408.764 184.502 408.764C184.306 408.57 184.208 408.376 184.012 408.182C188.416 402.756 192.918 397.426 197.322 392H234.315C234.706 397.911 235 403.822 235 409.733Z" fill="white" stroke="#27AAE1" stroke-miterlimit="10" stroke-dasharray="6 6"/>
<path d="M173 401.7C172.8 403.7 172.5 405.8 172.2 407.9C172.1 408.6 172 409.3 171.9 410C171.5 412.4 171.1 414.9 170.7 417.4C164.1 417.2 157.5 417 150.9 416.8H151.9C153.5 416.8 155.4 416.4 157.4 415.7C157.2 415.7 157.1 415.8 156.9 415.8C156.5 415.9 156 416 155.6 416.1C155.4 416.2 155.1 416.2 154.9 416.2C154.2 416.3 153.5 416.4 152.8 416.5C152.6 416.5 152.3 416.6 152.1 416.6C151.3 416.7 150.5 416.7 149.8 416.7C149.5 416.7 149.3 416.7 149 416.7C140.5 416.4 130.5 414.7 123.8 410.5L116.8 409.9C116.9 403.7 117.1 397.6 117.7 391.6H155.5C160 397.2 164.6 402.7 169.1 408.3C168.9 408.5 168.8 408.7 168.6 408.9C168.6 408.9 168.6 409 168.5 409C168.4 409.1 168.4 409.2 168.3 409.3C168.1 409.5 168 409.6 167.8 409.8C167.8 409.9 167.7 409.9 167.6 410C167.2 410.4 166.7 410.8 166.3 411.2C167.5 410.3 168.4 409.3 169.1 408.4L169.2 408.3C169.4 408 169.6 407.8 169.8 407.6C170 407.3 170.2 407 170.4 406.8C170.7 406.4 170.9 406.1 171.1 405.7C171.1 405.7 171.1 405.6 171.2 405.6C171.5 405.2 171.7 404.8 171.9 404.4C172.3 403.6 172.7 402.8 173.1 402C173 401.9 173 401.8 173 401.7Z" fill="white" stroke="#27AAE1" stroke-miterlimit="10" stroke-dasharray="6 6"/>
<path d="M128.7 343.5C122.7 358.8 119.1 374.9 117.6 391.8C117.1 397.8 116.8 403.9 116.7 410.1C112.8 409.9 108.9 409.8 105 409.6C105 402.5 105 392.5 105 379.1C105 364 105.1 360 105.9 353.9C106.6 348.6 107.1 346.8 110.4 335.1C111.3 335.5 112.3 336 113.2 336.4C113.6 336.6 114 336.8 114.4 337C115.5 337.5 116.6 338 117.6 338.5C118.5 338.9 119.4 339.3 120.2 339.7C121.3 340.2 122.4 340.7 123.4 341.2C123.8 341.4 124.2 341.6 124.6 341.8C125.2 342.1 125.8 342.4 126.4 342.6C127.2 342.8 127.9 343.1 128.7 343.5Z" fill="white" stroke="#27AAE1" stroke-miterlimit="10" stroke-dasharray="6 6"/>
<path d="M223.3 343.5C229.3 358.8 232.9 374.9 234.4 391.8C234.9 397.8 235.2 403.9 235.3 410.1C239.2 409.9 243.1 409.8 247 409.6C247 402.5 247 392.5 247 379.1C247 364 246.9 360 246.1 353.9C245.4 348.6 244.9 346.8 241.6 335.1C240.7 335.5 239.7 336 238.8 336.4C238.4 336.6 238 336.8 237.6 337C236.5 337.5 235.4 338 234.4 338.5C233.5 338.9 232.6 339.3 231.8 339.7C230.7 340.2 229.6 340.7 228.6 341.2C228.2 341.4 227.8 341.6 227.4 341.8C226.8 342.1 226.2 342.4 225.6 342.6C224.7 342.8 224 343.1 223.3 343.5Z" fill="white" stroke="#27AAE1" stroke-miterlimit="10" stroke-dasharray="6 6"/>
<path d="M234.4 391.8H196.6L187 373L196.7 355.9L223.4 343.5C229.4 358.8 232.9 374.9 234.4 391.8Z" fill="white" stroke="#27AAE1" stroke-miterlimit="10" stroke-dasharray="6 6"/>
<path d="M165 373L155.3 391.8H117.5C119 374.9 122.6 358.8 128.6 343.5L155.3 355.9L165 373Z" fill="white" stroke="#27AAE1" stroke-miterlimit="10" stroke-dasharray="6 6"/>
<path d="M196.7 391.8L183 408.3C182.8 408 182.6 407.8 182.4 407.6C182.2 407.3 182 407 181.8 406.8C181.5 406.4 181.3 406.1 181.1 405.7C181.1 405.7 181.1 405.6 181 405.6C180.7 405.2 180.5 404.8 180.3 404.4C179.8 403.6 179.4 402.8 179.1 402C179.1 401.9 179 401.8 179 401.7C178.9 401.4 178.8 401.1 178.7 400.9C178.7 400.9 178.7 400.9 178.7 400.8C178.6 400.5 178.4 400.1 178.3 399.8C178.3 399.7 178.3 399.7 178.2 399.6C178.1 399.2 177.9 398.9 177.8 398.5C177.8 398.3 177.7 398.2 177.7 398C177.6 397.7 177.5 397.5 177.5 397.2C177.5 397 177.4 396.8 177.3 396.6C177.3 396.4 177.2 396.2 177.2 396C177.1 395.5 176.9 394.9 176.8 394.4C176.7 393.9 176.6 393.5 176.5 393.1V393C176.5 392.7 176.4 392.4 176.4 392.2C176.3 391.3 176.2 390.6 176.1 390C176.1 389.9 176 389.9 176 389.9C176 389.9 175.9 389.9 175.9 390C175.8 390.6 175.8 391.4 175.6 392.2C175.6 392.5 175.5 392.7 175.5 393V393.1C175.4 393.5 175.3 394 175.2 394.4C175.1 394.9 175 395.4 174.8 396C174.8 396.2 174.7 396.4 174.7 396.6C174.7 396.8 174.6 397 174.5 397.2C174.4 397.4 174.4 397.7 174.3 398C174.3 398.1 174.2 398.3 174.2 398.5C174.1 398.8 174 399.2 173.8 399.6C173.8 399.7 173.8 399.7 173.7 399.8C173.6 400.1 173.4 400.5 173.3 400.8C173.3 400.8 173.3 400.8 173.3 400.9C173.2 401.2 173.1 401.5 172.9 401.7C172.9 401.8 172.8 401.9 172.8 402C172.5 402.8 172 403.6 171.6 404.4C171.4 404.8 171.2 405.2 170.9 405.6C170.9 405.6 170.9 405.7 170.8 405.7C170.6 406.1 170.3 406.4 170.1 406.8C169.9 407.1 169.7 407.4 169.5 407.6C169.3 407.9 169.1 408.1 168.9 408.3L155.2 391.7L165 373H187L196.7 391.8Z" fill="white" stroke="#27AAE1" stroke-miterlimit="10" stroke-dasharray="6 6"/>
<path d="M196.7 355.9L187 373H165L155.3 355.9L165 330H187L196.7 355.9Z" fill="white" stroke="#27AAE1" stroke-miterlimit="10" stroke-dasharray="6 6"/>
<path d="M165 300V330L155.3 355.9L128.6 343.5C127.9 343.2 127.2 342.8 126.5 342.5C125.9 342.2 125.3 342 124.7 341.7C124.3 341.5 123.9 341.3 123.5 341.1C122.5 340.6 121.4 340.1 120.3 339.6C119.4 339.2 118.5 338.8 117.7 338.4C116.6 337.9 115.5 337.4 114.5 336.9C114.1 336.7 113.7 336.5 113.3 336.3C112.4 335.9 111.4 335.4 110.5 335C111.2 332.4 112.1 329.3 113.1 325.5C113.2 325 113.4 324.5 113.5 324C113.7 323.3 113.9 322.5 114.1 321.7C114.1 321.6 114.1 321.5 114.1 321.5C118 311.2 119.2 311.7 124.2 300C137.8 300.1 151.4 300.1 165 300Z" fill="white" stroke="#27AAE1" stroke-miterlimit="10" stroke-dasharray="6 6"/>
<path d="M241.6 335.1C240.7 335.5 239.7 336 238.8 336.4C238.4 336.6 238 336.8 237.6 337C236.5 337.5 235.4 338 234.4 338.5C233.5 338.9 232.6 339.3 231.8 339.7C230.7 340.2 229.6 340.7 228.6 341.2C228.2 341.4 227.8 341.6 227.4 341.8C226.8 342.1 226.2 342.4 225.6 342.6C224.9 342.9 224.2 343.3 223.5 343.6L196.8 356L187 330V300C200.6 300 214.2 300 227.8 300C232.8 311.7 234 311.3 237.8 321.4C237.8 321.5 237.8 321.6 237.8 321.6C239.4 327.2 240.6 331.6 241.6 335.1Z" fill="white" stroke="#27AAE1" stroke-miterlimit="10" stroke-dasharray="6 6"/>
<path d="M219.6 259.8C218.5 266.3 217.9 269.5 218 271.8C218.1 273.6 218.4 280.6 221.9 287.5C222.8 289.2 224.3 291.8 226.2 296.2C226.3 296.4 226.4 296.6 226.5 296.8V296.9C226.8 297.7 227.2 298.5 227.5 299.3C227.5 299.4 227.6 299.6 227.6 299.7C227.6 299.8 227.7 299.9 227.8 300.1H187V220C201.3 220 215.6 219.9 229.9 219.9C229.7 220.6 229.4 221.3 229.1 222.1C228.1 225 227.1 227.9 226.8 229C225.2 233.9 224.2 238.1 223 243.3C222 247 220.8 252.7 219.6 259.8Z" fill="white" stroke="#27AAE1" stroke-miterlimit="10" stroke-dasharray="6 6"/>
<path d="M165 220V300H124.2C124.7 298.9 125.2 297.6 125.8 296.2C127.8 291.7 129.3 289.1 130.1 287.5C133.6 280.6 133.9 273.6 134 271.8C134.1 269.5 133.5 266.3 132.4 259.8C131.2 252.7 129.9 247 129.1 243.2C127.9 238 126.9 233.8 125.3 228.9C124.9 227.8 124 225 123 222C122.7 221.2 122.5 220.5 122.2 219.8C136.4 219.9 150.7 220 165 220Z" fill="white" stroke="#27AAE1" stroke-miterlimit="10" stroke-dasharray="6 6"/>
<path d="M187 109.9H165V330H187V109.9Z" fill="white" stroke="#27AAE1" stroke-miterlimit="10" stroke-dasharray="6 6"/>
<path d="M238.4 195.9C238.3 196.1 238.2 196.4 238.2 196.6V196.7C237.4 199 236.6 201.3 235.8 203.6C235.3 205.1 234.7 206.5 234.2 208C233.5 209.9 232.8 211.8 232.2 213.7C231.9 214.6 231.5 215.6 231.2 216.5C230.9 217.3 230.5 218.4 230.1 219.6C215.8 219.7 201.5 219.8 187.2 219.9V142.6H210.5L221.6 163.6V181.8L237.4 190.9C237.8 192.5 237.9 194.1 238.4 195.1C238.2 195.4 238.3 195.7 238.4 195.9Z" fill="white" stroke="#27AAE1" stroke-miterlimit="10" stroke-dasharray="6 6"/>
<path d="M165 142.6V220C150.7 219.9 136.4 219.8 122.1 219.7C121.6 218.4 121.3 217.4 121 216.6C120.7 215.7 120.3 214.7 120 213.8C119.3 211.9 118.6 210 118 208.1C117.5 206.6 117 205.2 116.4 203.7C115.5 201.1 114.6 198.5 113.6 196C113.7 195.7 113.7 195.5 113.8 195.2C114.1 194.1 114.5 192.4 114.8 191L131.4 182.3V164L141.6 142.7H165V142.6Z" fill="white" stroke="#27AAE1" stroke-miterlimit="10" stroke-dasharray="6 6"/>
<path d="M320.2 397.6C319.8 397.7 319.4 397.7 319 397.5C319 397.5 318.9 397.5 318.9 397.4C318 397 317.2 396 316.8 395C314.6 390.3 314.2 384.9 312.9 379.9C312.7 379.2 312.5 378.4 312.3 377.7H312.4C312.5 377.7 312.6 377.6 312.7 377.6C314.2 377.2 315.7 376.7 317.2 376.2L318.4 378.8C318.4 378.9 318.5 379 318.5 379.1C320.3 383.6 321.4 388.4 322 393.2C322.1 395 321.9 397.2 320.2 397.6Z" fill="white" stroke="#27AAE1" stroke-miterlimit="10" stroke-dasharray="6 6"/>
<path d="M330.5 396.5C330.3 397.2 329.9 397.9 329.1 398.2C328.7 398.3 328.4 398.3 328 398.2C327.2 397.8 326.6 397 326.2 396.2C323.1 390.7 320.8 384.9 318.4 379C318.8 380 319.2 381 319.5 382V382.1C319.1 381.1 318.7 380.2 318.3 379.2C318.3 379.1 318.2 379 318.2 378.9L317 376.3C318.2 375.9 319.5 375.5 320.7 375C321.7 374.7 322.6 374.3 323.5 374L324.7 376.6C326.8 381.6 328.6 386.8 330 392C330.6 393.6 330.9 395.1 330.5 396.5Z" fill="white" stroke="#27AAE1" stroke-miterlimit="10" stroke-dasharray="6 6"/>
<path d="M339.7 394.7C339.6 395.4 339.2 396.1 338.7 396.5C338.1 396.9 337.2 396.9 336.5 396.7C336.4 396.7 336.3 396.6 336.3 396.6C336.3 396.6 336.3 396.6 336.2 396.6C336.1 396.5 335.9 396.4 335.8 396.3C334.9 395.6 334.4 394.6 333.9 393.6C331 388 328 382.3 325.1 376.7C325.3 377.1 325.5 377.6 325.7 378.1C325.4 377.6 325.2 377.1 324.9 376.7L323.7 374.1C326.1 373.2 328.5 372.2 330.7 371.3L331.8 373C331.8 373.1 331.9 373.1 331.9 373.1C331.9 373.2 332 373.3 332 373.3C332.1 373.5 332.2 373.6 332.3 373.8C332.4 373.9 332.5 374.1 332.6 374.2C335.4 379.1 337.6 384.3 339.2 389.7C339.6 391.4 340 393.1 339.7 394.7Z" fill="white" stroke="#27AAE1" stroke-miterlimit="10" stroke-dasharray="6 6"/>
<path d="M347.5 388.8C346.7 389.3 345.9 389.4 345.1 389C345 389 345 388.9 344.9 388.9C344.9 388.9 344.9 388.9 344.8 388.9C344.8 388.9 344.8 388.9 344.7 388.9C342.5 387.7 340.3 384.2 338.1 381.8C335.6 379 333.7 376.1 332.7 374.5C333 375 333.2 375.5 333.5 375.9C333.1 375.3 332.8 374.8 332.5 374.4C332.4 374.2 332.3 374.1 332.2 374C332.1 373.8 332 373.7 331.9 373.5C331.9 373.4 331.8 373.3 331.8 373.3C331.8 373.3 331.8 373.2 331.7 373.2L330.6 371.5C330.9 371.4 331.3 371.2 331.6 371.1C331.9 371 332.2 370.8 332.6 370.7C332.9 370.6 333.3 370.4 333.6 370.3C333.9 370.2 334.2 370 334.5 369.9C335 369.7 335.5 369.4 336 369.2C336.1 369.1 336.3 369.1 336.4 369C337 368.7 337.6 368.4 338.2 368.1C347.4 383.6 349.7 387.3 347.5 388.8Z" fill="white" stroke="#27AAE1" stroke-miterlimit="10" stroke-dasharray="6 6"/>
<path d="M351.2 370.2C351 370.8 350.8 371.3 350.3 371.7C349.6 372.2 348.7 372.1 347.8 371.8C347.7 371.8 347.6 371.7 347.5 371.7C347.4 371.7 347.4 371.7 347.4 371.6C347.2 371.5 347 371.4 346.8 371.3C344.6 370 342.7 368.1 340.5 366.8C340.3 366.7 340.1 366.5 339.9 366.4C339.7 366.3 339.5 366.1 339.3 366C339.1 365.9 339 365.8 338.8 365.8C338.1 365.5 337.3 365.2 336.5 365C336.8 365.6 337.1 366.1 337.4 366.6C336.8 366.3 336.1 365.9 335.4 365.3C335.3 365.2 335.2 365.1 335.1 365C334.9 364.8 334.6 364.6 334.4 364.4C334.2 364.2 333.9 364 333.7 363.8C333.5 363.6 333.2 363.4 333 363.2C332.9 363.1 332.8 363 332.7 362.9C332.5 362.7 332.4 362.6 332.2 362.4C331.8 362 331.4 361.5 330.9 361C330.7 360.8 330.5 360.5 330.3 360.2C330.1 359.9 329.9 359.7 329.7 359.4C329.5 359.1 329.3 358.8 329.1 358.5C328.9 358.2 328.7 357.9 328.5 357.6V357.5C328.4 357.4 328.3 357.2 328.2 357.1C328.1 356.9 328 356.8 327.9 356.6C327.7 356.3 327.6 355.9 327.4 355.6C325.2 351.1 324.8 346.7 324.9 343.6C325.5 344 326.2 344.3 326.8 344.7C327.3 345 327.9 345.3 328.4 345.6C328.8 345.8 329.2 346 329.6 346.2C330 346.4 330.4 346.6 330.8 346.8C332 347.4 333.1 348.1 334.2 348.9C338 351.5 340.9 355.2 344.3 358.3C346.1 359.9 348.1 361.4 349.5 363.4C351 365.3 351.9 367.8 351.2 370.2Z" fill="white" stroke="#27AAE1" stroke-miterlimit="10" stroke-dasharray="6 6"/>
<path d="M338.1 367.8C337.5 368.1 336.9 368.4 336.3 368.7C336.2 368.8 336 368.8 335.9 368.9C335.4 369.1 334.9 369.3 334.4 369.6C334.1 369.7 333.8 369.9 333.5 370C333.2 370.2 332.9 370.3 332.5 370.4C332.2 370.5 331.9 370.7 331.5 370.8C331.2 370.9 330.9 371.1 330.5 371.2C328.3 372.1 326 373.1 323.5 374C322.6 374.3 321.7 374.7 320.7 375C319.4 375.4 318.2 375.9 317 376.3C315.5 376.8 314 377.3 312.5 377.7C312.4 377.7 312.3 377.8 312.2 377.8C311.1 374.3 309.5 371 307.5 367.9C306.2 365.9 304.7 363.9 304 361.6C303.1 358.3 304.2 355.1 304.1 351.8C304 349.2 302.8 347 301.6 344.8C301.3 344.3 301 343.8 300.7 343.2L314 332C316.2 335.7 318.8 339.1 322 341.7C322.9 342.4 323.8 343 324.7 343.5C324.6 346.6 325 351 327.2 355.5C327.4 355.9 327.5 356.2 327.7 356.5C327.8 356.7 327.9 356.8 328 357C328.1 357.1 328.2 357.3 328.3 357.4V357.5C328.3 357.5 328.4 357.6 328.4 357.7C328.5 357.8 328.5 357.9 328.6 358C328.6 358.1 328.7 358.2 328.8 358.2L328.9 358.3V358.4C328.9 358.5 329 358.5 329 358.6C329.1 358.8 329.3 359 329.4 359.3C329.6 359.6 329.8 359.8 330 360.1C330.1 360.2 330.3 360.4 330.4 360.6C330.5 360.7 330.6 360.8 330.7 360.9C330.9 361.2 331.1 361.4 331.3 361.6C331.5 361.8 331.7 362.1 331.9 362.3C332.1 362.5 332.2 362.6 332.4 362.8C332.5 362.9 332.6 363 332.7 363.1C332.9 363.3 333.1 363.5 333.4 363.7C333.6 363.9 333.9 364.1 334.1 364.3C334.4 364.5 334.6 364.7 334.8 364.9C334.9 365 335 365.1 335.1 365.2C335.5 365.5 335.9 365.8 336.2 366C336.6 366.2 336.9 366.4 337.2 366.6C337.7 367 337.9 367.4 338.1 367.8Z" fill="white" stroke="#27AAE1" stroke-miterlimit="10" stroke-dasharray="6 6"/>
<path d="M292 329.2C295.1 333.8 298.1 338.5 300.9 343.2L314.2 332C314.2 332 314.2 332 314.3 331.9C311.8 327.6 310 322.8 308.8 318.3C308.8 318.3 308.8 318.3 308.7 318.3L308.6 318.4L292 329.2Z" fill="white" stroke="#27AAE1" stroke-miterlimit="10" stroke-dasharray="6 6"/>
<path d="M259.6 270.6C260.4 273 261.4 275.3 262.3 277.6C267.7 290.6 274.4 303 282.2 314.7C285.4 319.5 288.7 324.3 291.9 329.1L308.5 318.4L308.6 318.3C308.6 318.3 308.6 318.2 308.7 318.2C308.6 317.7 308.4 317.3 308.3 316.8C307.8 315.5 307.4 314.2 307 313C304.2 304.4 301.9 295.7 300.2 286.8C298.4 277.4 296.7 267.9 293.5 258.9C292.9 257.3 292.3 255.7 291.7 254.2C291.6 254.3 291.4 254.4 291.2 254.4C291.2 254.4 291.2 254.4 291.1 254.4C291.1 254.4 291 254.5 290.9 254.5C290.5 254.7 290.2 254.9 289.8 255.1C289.6 255.2 289.4 255.3 289.2 255.4C287.7 256.1 286.5 256.8 285.3 257.4C285.1 257.5 284.9 257.6 284.8 257.7C284.6 257.8 284.4 257.9 284.2 258C284 258.1 283.9 258.2 283.7 258.2C283.5 258.3 283.3 258.4 283.1 258.5C282.8 258.7 282.5 258.8 282.2 258.9C279.5 260.3 276.9 261.6 274.2 262.9C272.8 263.6 271.4 264.3 270 265C269.3 265.4 268.6 265.7 267.9 266.1C267.4 266.3 267 266.6 266.5 266.8C265 267.5 263.6 268.3 262.2 269C262.2 269 262.1 269.1 262 269.1C261.8 269.2 261.6 269.3 261.4 269.4C260.8 270 260.2 270.3 259.6 270.6Z" fill="white" stroke="#27AAE1" stroke-miterlimit="10" stroke-dasharray="6 6"/>
<path d="M250.9 235.8C252.5 240.9 253.9 246.1 255 251.3C256.2 256.6 257 261.9 258.5 267.1C258.8 268.2 259.2 269.4 259.6 270.5C260.2 270.2 260.6 270 261 269.9C261.2 269.8 261.3 269.7 261.5 269.6C261.7 269.5 261.9 269.4 262.1 269.3C262.1 269.3 262.2 269.3 262.3 269.2C263.8 268.5 265.2 267.7 266.6 267C267.1 266.8 267.5 266.5 268 266.3C268.7 265.9 269.4 265.6 270.1 265.2C271.5 264.5 272.9 263.8 274.3 263.1C277 261.8 279.6 260.4 282.3 259.1C282.6 259 282.9 258.8 283.2 258.7C283.4 258.6 283.6 258.5 283.8 258.4C284 258.3 284.1 258.2 284.3 258.2C284.5 258.1 284.7 258 284.9 257.9C285.1 257.8 285.3 257.7 285.4 257.6C286.6 257 287.8 256.3 289.3 255.6C289.5 255.5 289.7 255.4 289.9 255.3C290.2 255.2 290.4 255 290.7 254.9C290.8 254.9 290.9 254.8 291 254.8C291 254.8 291.1 254.7 291.2 254.7C291.2 254.7 291.2 254.7 291.3 254.7C291.4 254.7 291.3 254.7 291.4 254.6C291.6 254.5 291.7 254.4 291.7 254.4C287.5 244.2 281.7 234.7 277.1 224.7C274.8 225.7 271.6 227 268 228.6C267.5 228.8 267 229 266.5 229.2C266.4 229.2 266.3 229.3 266.2 229.3C261.2 231.4 255.6 233.8 250.9 235.8Z" fill="white" stroke="#27AAE1" stroke-miterlimit="10" stroke-dasharray="6 6"/>
<path d="M238.2 195.1C238.9 197.8 239.5 199.9 239.7 200.7C243 212.5 247.3 224 250.9 235.7C255 234 259 232.2 263.1 230.5C264.2 230.1 265.2 229.6 266.3 229.2C266.4 229.2 266.5 229.1 266.6 229.1C267.1 228.9 267.6 228.7 268.1 228.5C271.7 227 274.9 225.6 277.2 224.6C275.2 220.2 273.3 215.7 271.9 211C268.2 198.8 267.8 185.8 266.4 173.3V173.2V173.1H252.1V182.2L237.2 190.9C237.5 192.3 237.8 193.7 238.2 195.1Z" fill="white" stroke="#27AAE1" stroke-miterlimit="10" stroke-dasharray="6 6"/>
<path d="M221.4 163.6V181.8L234 189.1L234.9 189.6L237.1 190.9C237.2 190.9 237.9 190.4 237.9 190.4L252 182.1V163.9L236.2 154.8L221.4 163.6Z" fill="white" stroke="#27AAE1" stroke-miterlimit="10" stroke-dasharray="6 6"/>
<path d="M252 173.1V164L236.2 154.9L221.3 163.6L210.2 142.6H187V109.9C192.9 109.9 198.8 110 204.6 110C205.6 110.9 206.8 111.9 208 112.9C208.3 113.2 208.6 113.4 209 113.7C209.1 113.8 209.2 113.9 209.3 114C209.5 114.2 209.8 114.3 210 114.5C210.2 114.7 210.5 114.8 210.7 115C211 115.2 211.3 115.4 211.6 115.6C212 115.9 212.4 116.1 212.9 116.4C213.2 116.6 213.6 116.8 213.9 117C214.2 117.2 214.4 117.3 214.7 117.5C215 117.7 215.3 117.9 215.6 118C218.9 119.8 222.7 121.9 228 123C228.6 123.1 229.5 123.3 230.5 123.6C230.6 123.7 230.8 123.8 230.9 123.9C231.7 124.3 232.2 124.2 233.5 124.5C233.5 124.5 233.5 124.5 233.6 124.5C236.1 125.2 238.7 126 240.3 126.6C240.4 126.6 240.5 126.7 240.5 126.7C240.8 126.8 241.1 127 241.3 127.1C241.5 127.2 241.7 127.2 241.9 127.3C242 127.3 242.1 127.4 242.1 127.4C244.8 128.6 247.2 130.5 249.3 132.6L249.8 133.2C250.3 133.8 250.9 134.4 251.5 135.1C251.5 135.2 251.6 135.2 251.7 135.3C251.8 135.4 251.8 135.5 251.9 135.6L252 135.7L252.1 135.8C252.3 136.1 252.5 136.3 252.7 136.6C255 139.5 256.9 142.6 258.6 145.9C261.6 151.7 263.8 158.1 264.9 164.5C264.9 164.6 264.9 164.7 264.9 164.8C264.9 164.9 264.9 165.1 265 165.3L265.1 165.8C265.2 166.9 265.4 168.2 265.6 169.9C265.6 170.2 265.7 170.4 265.7 170.7C265.7 170.8 265.7 170.9 265.7 171C265.8 171.7 265.9 172.3 266 173.1H252Z" fill="white" stroke="#27AAE1" stroke-miterlimit="10" stroke-dasharray="6 6"/>
<path d="M39.6 377.7C39.3 378.5 39.1 379.2 38.9 380C37.6 385.1 37.2 390.4 35 395.1C34.6 396 33.9 397 33 397.4L32.9 397.5C32.5 397.6 32.1 397.7 31.7 397.6C30.1 397.2 29.9 395 30.1 393.3C30.7 388.4 31.9 383.5 33.7 378.9L34.9 376.3C36.4 376.8 37.9 377.3 39.4 377.7C39.4 377.7 39.5 377.7 39.6 377.7Z" fill="white" stroke="#27AAE1" stroke-miterlimit="10" stroke-dasharray="6 6"/>
<path d="M34.8 376.3L33.6 378.9C33.2 379.9 32.8 381 32.3 382C32.6 381 33 380 33.4 379C31.1 384.8 28.7 390.7 25.6 396.2C25.2 397 24.5 397.8 23.8 398.2C23.4 398.3 23.1 398.4 22.7 398.2C22 398 21.5 397.3 21.3 396.5C20.9 395 21.3 393.5 21.6 392C23 386.7 24.8 381.6 27 376.6L28.2 374C29.1 374.3 30.1 374.7 31 375C32.3 375.4 33.6 375.9 34.8 376.3Z" fill="white" stroke="#27AAE1" stroke-miterlimit="10" stroke-dasharray="6 6"/>
<path d="M28.3001 374L27.1001 376.6C26.8001 377.1 26.6001 377.6 26.3001 378C26.5001 377.5 26.7001 377.1 26.9001 376.6C24.0001 382.2 21.0001 387.9 18.1001 393.5C17.6001 394.5 17.1001 395.5 16.2001 396.2C16.1001 396.3 15.9001 396.4 15.8001 396.5C15.8001 396.5 15.8001 396.5 15.7001 396.5C14.9001 396.9 14.0001 396.9 13.3001 396.4C12.7001 396 12.4001 395.3 12.3001 394.6C12.0001 393 12.4001 391.3 12.8001 389.8C14.3001 384.4 16.6001 379.2 19.4001 374.3C19.5001 374.1 19.6001 374 19.7001 373.9C19.8001 373.7 19.9001 373.6 20.0001 373.4C20.1001 373.3 20.1001 373.2 20.1001 373.2L20.2001 373.1L21.3001 371.4C23.5001 372.1 25.9001 373.1 28.3001 374Z" fill="white" stroke="#27AAE1" stroke-miterlimit="10" stroke-dasharray="6 6"/>
<path d="M21.3 371.2L20.2 372.9C20.2 373 20.1 373 20.1 373C20 373.1 20 373.2 20 373.2C19.9 373.4 19.8 373.5 19.7 373.7C19.6 373.8 19.6 374 19.4 374.1C19.1 374.5 18.8 375.1 18.4 375.6C18.7 375.1 18.9 374.6 19.2 374.2C18.2 375.9 16.3 378.7 13.8 381.5C11.6 383.9 9.4 387.4 7.2 388.6C7.2 388.6 7.1 388.6 7.1 388.7C6.2 389.1 5.3 389.1 4.5 388.6C2.3 387.1 4.6 383.5 13.9 367.6C16.2 368.9 18.7 370.1 21.3 371.2Z" fill="white" stroke="#27AAE1" stroke-miterlimit="10" stroke-dasharray="6 6"/>
<path d="M24.6 355.6C22.5 360.1 19.4 363.1 16.9 365C16 365.7 15.1 366.3 14.4 366.7C14.7 366.1 15.1 365.5 15.4 364.9C14.6 365.1 13.8 365.3 13.1 365.7C12.9 365.8 12.8 365.8 12.6 365.9C12.4 366 12.2 366.1 12 366.3C11.8 366.4 11.6 366.6 11.4 366.7C9.20002 368.1 7.30002 369.9 5.10002 371.2C4.90002 371.3 4.70002 371.4 4.50002 371.5L4.40002 371.6C3.40002 372 2.40002 372.2 1.60002 371.7C1.10002 371.4 0.800022 370.8 0.700022 370.2C2.17408e-05 367.9 0.900022 365.3 2.40002 363.4C3.90002 361.5 5.80002 360 7.60002 358.3C11 355.2 14 351.6 17.7 348.9C18.8 348.1 19.9 347.5 21.1 346.8C21.5 346.6 21.9 346.4 22.3 346.1C22.7 345.9 23.1 345.7 23.5 345.5C24 345.2 24.6 344.9 25.1 344.6C25.1 344.6 25.1 344.6 25.2 344.6C25.7 344.3 26.2 344 26.7 343.8C26.8 343.7 27 343.7 27.1 343.6C27.2 346.7 26.8 351 24.6 355.6Z" fill="white" stroke="#27AAE1" stroke-miterlimit="10" stroke-dasharray="6 6"/>
<path d="M47.7001 351.7C47.5001 355 48.7 358.2 47.8 361.5C47.2 363.8 45.6 365.8 44.3 367.8C42.3 370.9 40.7 374.2 39.6 377.7C39.5 377.7 39.4 377.6 39.3 377.6C37.8 377.2 36.3 376.7 34.8 376.2C33.6 375.8 32.3 375.4 31.1 374.9C30.2 374.6 29.2 374.2 28.3 373.9C25.9 373 23.5 372 21.3 371.1C18.7 370 16.2 368.8 13.8 367.7C14 367.3 14.2 366.9 14.5 366.6C15.2 366.2 16 365.6 17 364.9C19.5 363 22.5 360 24.7 355.5C26.9 351 27.3 346.6 27.2 343.5C28.1 342.9 29 342.3 29.9 341.7C33.1 339.1 35.8001 335.8 37.9001 332L51.2001 343.2C50.9001 343.7 50.6 344.2 50.3 344.8C49 347 47.8001 349.2 47.7001 351.7Z" fill="white" stroke="#27AAE1" stroke-miterlimit="10" stroke-dasharray="6 6"/>
<path d="M60 329.2C56.9 333.8 53.8999 338.5 51.0999 343.2L37.7999 332C37.7999 332 37.8 332 37.7 331.9C40.2 327.6 42 322.8 43.2 318.3C43.2 318.3 43.1999 318.3 43.2999 318.3L43.4 318.4L60 329.2Z" fill="white" stroke="#27AAE1" stroke-miterlimit="10" stroke-dasharray="6 6"/>
<path d="M92.4001 270.6C91.6001 273 90.6 275.3 89.7 277.6C84.3 290.6 77.6001 303 69.8001 314.7C66.6001 319.5 63.3 324.3 60.1 329.1L43.5 318.4L43.4001 318.3C43.4001 318.3 43.4 318.2 43.3 318.2L43.4001 318C43.5001 317.6 43.6001 317.2 43.7001 316.8C44.2001 315.5 44.6 314.2 45 313C47.8 304.4 50.1 295.7 51.8 286.8C51.9 286.2 52.1001 285.5 52.2001 284.8L60.3 254.2C60.5 254.3 60.6 254.3 60.8 254.4C60.8 254.4 60.8001 254.4 60.9001 254.4C60.9001 254.4 61 254.5 61.1 254.5C61.5 254.7 61.8001 254.9 62.2001 255.1C62.4001 255.2 62.6 255.3 62.8 255.4C64.3 256.1 65.5 256.8 66.7 257.4C66.9 257.5 67.1 257.6 67.2 257.7C67.4 257.8 67.6001 257.9 67.8001 258C68.0001 258.1 68.1001 258.2 68.3001 258.2C68.5001 258.3 68.7001 258.4 68.9001 258.5C69.2001 258.7 69.5001 258.8 69.8001 258.9C72.5001 260.3 75.1001 261.6 77.8001 262.9C79.2001 263.6 80.6 264.3 82 265C82.7 265.4 83.4 265.7 84.1 266.1C84.6 266.3 85 266.6 85.5 266.8C87 267.5 88.4001 268.3 89.8001 269C89.8001 269 89.9 269.1 90 269.1C90.2 269.2 90.4 269.3 90.6 269.4C91.1 270 91.7001 270.3 92.4001 270.6Z" fill="white" stroke="#27AAE1" stroke-miterlimit="10" stroke-dasharray="6 6"/>
<path d="M101.1 235.8C99.5 240.9 98.1 246.1 97 251.3C95.8 256.6 95 261.9 93.5 267.1C93.2 268.2 92.8001 269.4 92.4001 270.5C91.8001 270.2 91.4 270 91 269.9C90.8 269.8 90.7 269.7 90.5 269.6C90.3 269.5 90.1001 269.4 89.9001 269.3C89.9001 269.3 89.8 269.3 89.7 269.2C88.2 268.5 86.8001 267.7 85.4001 267C84.9001 266.8 84.5 266.5 84 266.3C83.3 265.9 82.6001 265.6 81.9001 265.2C80.5001 264.5 79.1 263.8 77.7 263.1C75 261.8 72.4 260.4 69.7 259.1C69.4 259 69.1001 258.8 68.8001 258.7C68.6001 258.6 68.4 258.5 68.2 258.4C68 258.3 67.9 258.2 67.7 258.2C67.5 258.1 67.3 258 67.1 257.9C66.9 257.8 66.7 257.7 66.6 257.6C65.4 257 64.2001 256.3 62.7001 255.6C62.5001 255.5 62.3 255.4 62.1 255.3C61.8 255.2 61.6 255 61.3 254.9C61.2 254.9 61.1 254.8 61 254.8C61 254.8 60.9 254.7 60.8 254.7C60.8 254.7 60.8001 254.7 60.7001 254.7C60.6001 254.7 60.7 254.7 60.6 254.6C60.4 254.5 60.3 254.4 60.3 254.4C64.5 244.2 70.3001 234.7 74.9001 224.7C77.2001 225.7 80.4 227 84 228.6C84.5 228.8 85 229 85.5 229.2C85.6 229.2 85.7001 229.3 85.8001 229.3C90.7001 231.4 96.3 233.8 101.1 235.8Z" fill="white" stroke="#27AAE1" stroke-miterlimit="10" stroke-dasharray="6 6"/>
<path d="M113.8 195.1C113 198.2 112.6 199.8 112.3 200.7C109 212.5 104.7 224 101.1 235.7C97 234 93 232.2 88.9 230.5C87.8 230.1 86.8 229.6 85.7 229.2C85.6 229.2 85.5 229.1 85.4 229.1C84.9 228.9 84.4 228.7 83.9 228.5C80.3 227 77.1 225.6 74.8 224.6C76.8 220.2 78.7 215.7 80.1 211C83.8 198.8 84.2 185.8 85.6 173.3V173.2V173.1H99.9V182.2L114.8 190.9C114.5 192.3 114.2 193.7 113.8 195.1Z" fill="white" stroke="#27AAE1" stroke-miterlimit="10" stroke-dasharray="6 6"/>
<path d="M131.5 164V182.2L114.8 190.9L100 182.2V164L115.7 154.9L131.5 164Z" fill="white" stroke="#27AAE1" stroke-miterlimit="10" stroke-dasharray="6 6"/>
<path d="M165 109.9V142.6H141.7L131.5 164L115.7 154.9L100 164V173.1H85.7C85.8 172.4 85.9 171.7 86 171C86 170.9 86 170.8 86 170.7C86 170.4 86.1 170.2 86.1 169.9C86.3 168.3 86.5 166.9 86.6 165.8L86.7 165.3C86.7 165.1 86.8 165 86.8 164.8C86.8 164.7 86.8 164.6 86.9 164.5C88 158 90.1 151.7 93.2 145.9C94.9 142.6 96.9 139.5 99.1 136.6C99.3 136.3 99.5 136.1 99.7 135.8L99.8 135.7C99.8 135.7 99.8 135.6 99.9 135.6C100 135.5 100.1 135.4 100.1 135.3C100.2 135.2 100.2 135.2 100.3 135.1C100.9 134.4 101.5 133.8 102 133.2L102.5 132.6C104.6 130.4 106.9 128.6 109.7 127.4C109.8 127.4 109.8 127.3 109.9 127.3C110.1 127.2 110.3 127.1 110.5 127.1C110.8 127 111.1 126.8 111.3 126.7C111.4 126.7 111.5 126.6 111.5 126.6C113 126 115.6 125.2 118.1 124.5C118.1 124.5 118.1 124.5 118.2 124.5C119.5 124.2 120 124.4 120.8 123.9C121 123.8 121.1 123.7 121.2 123.6C122.2 123.3 123.1 123.1 123.7 123C129 121.9 132.9 119.8 136.1 118C136.4 117.8 136.7 117.6 137 117.5C137.3 117.3 137.5 117.2 137.8 117C138.2 116.8 138.5 116.6 138.8 116.4C139.2 116.1 139.7 115.9 140.1 115.6C140.4 115.4 140.7 115.2 141 115C141.3 114.8 141.5 114.7 141.7 114.5C141.9 114.3 142.2 114.2 142.4 114C142.5 113.9 142.6 113.8 142.7 113.7C143 113.4 143.4 113.2 143.7 112.9C145 111.9 146.1 111 147.1 110C153.2 110 159.1 110 165 109.9Z" fill="white" stroke="#27AAE1" stroke-miterlimit="10" stroke-dasharray="6 6"/>
<path d="M204.5 109.9H147.5C147.8 109.6 148.1 109.4 148.4 109.1C149.9 107.8 151 106.7 151.8 105.8C152.3 105.3 152.7 104.8 153 104.3C153.1 104.2 153.2 104.1 153.2 103.9C153.4 103.7 153.5 103.4 153.6 103.2C153.7 103 153.9 102.7 154 102.5C154.3 101.9 154.5 101.3 154.7 100.4C154.8 99.9 155 99.3 155.1 98.6C155.2 98.3 155.2 97.9 155.3 97.5C155.3 97.3 155.4 97.1 155.4 96.9C155.5 96.5 155.5 96 155.6 95.5C155.7 94.5 155.8 93.5 155.8 92.3C155.9 89.9 155.9 87.1 155.8 84C155.8 84 154.7 82.5 154.4 82C153 80 152 78.1 151.2 76.1H201.2C200.4 78.1 199.3 80 198 82C197.7 82.5 196.6 84 196.6 84C196.4 87.2 196.4 90 196.6 92.3C196.7 93.5 196.8 94.6 196.8 95.5C196.8 96 196.9 96.5 197 96.9C197 97.1 197 97.3 197.1 97.5C197.1 97.9 197.2 98.3 197.3 98.6C197.4 99.3 197.5 99.9 197.7 100.4C197.9 101.3 198.2 101.9 198.4 102.5C198.5 102.7 198.6 103 198.8 103.2C198.9 103.4 199.1 103.7 199.2 103.9C199.3 104 199.4 104.1 199.4 104.3C199.7 104.8 200.1 105.3 200.6 105.8C201.4 106.7 202.5 107.8 204 109.1C203.9 109.4 204.2 109.7 204.5 109.9Z" fill="white" stroke="#27AAE1" stroke-miterlimit="10" stroke-dasharray="6 6"/>
<path d="M214.8 53.3C214.5 54.8 213.9 56.4 212.7 59.6C212.1 61.1 211.7 62.2 210.7 63.5C210.5 63.8 209.9 64.7 209.1 65.4C207.8 66.4 205.6 67.7 203.5 68.1V68.2C203.2 69.1 203 70.1 202.8 70.9V71C202.7 71.3 202.7 71.5 202.6 71.8C200.9 62.5 201.6 43 207.6 39.2C207.6 39.5 207.6 39.7 207.6 40C207.6 40.3 207.6 40.5 207.6 40.7C207.6 40.9 207.6 41.1 207.6 41.3C207.6 41.6 207.6 41.9 207.6 42.2C208.2 42 210.2 41.3 212.2 42.3C214.6 43.4 215.2 46 215.5 47C215.8 48.9 215.4 50.3 214.8 53.3Z" fill="white" stroke="#27AAE1" stroke-miterlimit="10" stroke-dasharray="6 6"/>
<path d="M149.5 71.7C149.3 71.2 149.2 70.6 149 70C149 69.9 149 69.9 149 69.8C148.9 69.4 148.8 69 148.7 68.6C148.6 68.4 148.6 68.2 148.5 67.9C146.5 67.5 144.2 66.2 142.9 65.2C142 64.5 141.5 63.7 141.3 63.3C140.4 62 139.9 60.9 139.3 59.4C138.1 56.2 137.5 54.7 137.2 53.1C136.5 50.1 136.2 48.7 136.7 46.8C137 45.8 137.6 43.2 140 42.1C142 41.2 144 41.8 144.6 42C144.6 42.3 144.6 42 144.6 40.5C144.6 40 144.6 39.5 144.5 39C150.5 43 151.2 62.4 149.5 71.7Z" fill="white" stroke="#27AAE1" stroke-miterlimit="10" stroke-dasharray="6 6"/>
<path d="M207.5 39.1C201.5 43 200.7 62.5 202.5 71.7C202 73.2 201.6 74.6 201 76H151C150.4 74.6 149.9 73.2 149.5 71.7C151.2 62.4 150.5 42.9 144.5 39.1C144.4 36.5 144.4 33.2 144.8 29.4C145.2 25.5 145.4 23.1 146.1 20.8H205.9C206.6 23.1 206.8 25.5 207.2 29.4C207.6 33.3 207.6 36.5 207.5 39.1Z" fill="white" stroke="#27AAE1" stroke-miterlimit="10" stroke-dasharray="6 6"/>
<path d="M205.9 20.9H146.1C146.2 20.5 146.3 20.1 146.5 19.7C146.8 18.9 147.1 18.2 147.5 17.4C147.7 17 147.9 16.7 148.1 16.3C148.2 16.1 148.3 16 148.4 15.8C148.5 15.6 148.6 15.5 148.7 15.3C149 14.9 149.3 14.5 149.6 14C149.8 13.7 150 13.5 150.2 13.3C150.4 13.1 150.6 12.8 150.8 12.6C151 12.4 151.2 12.2 151.4 11.9C151.6 11.6 151.8 11.5 152 11.3C152.2 11.1 152.3 11 152.5 10.8C152.7 10.6 152.9 10.4 153.1 10.3C153.5 10 153.9 9.6 154.2 9.3C154.4 9.1 154.6 9 154.8 8.8C155.2 8.5 155.6 8.2 155.9 8L156.4 7.6C156.7 7.4 157 7.2 157.3 7C157.4 7 157.4 6.9 157.5 6.9C157.9 6.7 158.2 6.4 158.6 6.2C158.7 6.1 158.9 6 159 5.9C159.5 5.6 160 5.3 160.4 5.1C166.5 1.7 172.3 0.7 176.2 0.5C180 0.7 185.9 1.7 192 5.1C192.4 5.3 192.8 5.6 193.4 5.9C193.5 6 193.7 6.1 193.8 6.2C194.1 6.4 194.5 6.6 194.9 6.9C195 6.9 195 7 195.1 7C195.4 7.2 195.7 7.4 196 7.6L196.5 8C196.9 8.3 197.2 8.5 197.6 8.8C197.8 8.9 198 9.1 198.2 9.3C198.6 9.6 199 9.9 199.3 10.3C199.5 10.5 199.7 10.6 199.9 10.8C200.1 11 200.2 11.1 200.4 11.3C200.6 11.5 200.8 11.7 201 11.9C201.2 12.1 201.4 12.3 201.6 12.6C201.8 12.8 202 13.1 202.2 13.3C202.4 13.5 202.6 13.8 202.8 14C203.1 14.4 203.4 14.8 203.7 15.3C203.8 15.5 203.9 15.6 204 15.8C204.1 16 204.2 16.1 204.3 16.3C204.5 16.6 204.7 17 204.9 17.4C205.2 18.1 205.6 18.9 205.8 19.7C205.7 20.1 205.8 20.5 205.9 20.9Z" fill="white" stroke="#27AAE1" stroke-miterlimit="10" stroke-dasharray="6 6"/>
<g clip-path="url(#clip1_251_2217)">
<path d="M152.6 155.5C154.2 160.6 155.7 167.2 156.4 174.9C157.1 182.5 157.7 189.2 155.3 197.1C154.1 201 151.6 207.5 145.5 214.3" stroke="#231F20" stroke-width="1.5" stroke-miterlimit="10" stroke-linecap="round"/>
<path d="M198.4 155.5C196.8 160.6 195.3 167.2 194.6 174.9C193.9 182.5 193.3 189.2 195.7 197.1C196.9 201 199.4 207.5 205.5 214.3" stroke="#231F20" stroke-width="1.5" stroke-miterlimit="10" stroke-linecap="round"/>
<path d="M115.8 520.2C117.7 519.3 121.6 517.8 126.9 518.1C131.7 518.4 135.3 520.2 137 521.3" stroke="#231F20" stroke-width="1.5" stroke-miterlimit="10" stroke-linecap="round"/>
<path d="M123.2 410.9C127.1 413.1 134.8 416.8 145 417.1C145.2 417.1 145.3 417.1 145.5 417.1C146.5 417.1 147.5 417.1 148.5 417.1C149.5 417.1 150.5 417.1 151.6 417C151.8 417 152 417 152.3 416.9C153 416.8 153.7 416.7 154.4 416.6C154.6 416.6 154.9 416.5 155.1 416.5C155.5 416.4 156 416.3 156.4 416.2C156.6 416.1 156.8 416.1 157 416C159.1 415.4 161.3 414.5 163.4 413.1C163.7 412.9 164 412.7 164.3 412.5C164.5 412.4 164.7 412.2 164.9 412C165.6 411.4 166.3 410.8 167 410.2C167.1 410.2 167.1 410.1 167.2 410C167.4 409.8 167.5 409.7 167.7 409.5C167.8 409.4 167.8 409.3 167.9 409.2C167.9 409.2 167.9 409.1 168 409.1C168.2 408.9 168.3 408.7 168.5 408.5C168.7 408.2 168.9 407.9 169.2 407.7C169.4 407.4 169.6 407.1 169.8 406.9C170.1 406.5 170.3 406.2 170.5 405.8L170.6 405.7C170.9 405.3 171.1 404.9 171.3 404.5C171.8 403.7 172.2 402.9 172.5 402.1C172.5 402 172.6 401.9 172.6 401.8C172.7 401.5 172.8 401.2 172.9 401C172.9 401 172.9 401 172.9 400.9C173 400.5 173.2 400.2 173.3 399.9C173.3 399.8 173.3 399.8 173.4 399.7C173.5 399.3 173.7 399 173.8 398.6C173.9 398.4 173.9 398.3 173.9 398.1C174 397.8 174.1 397.6 174.1 397.3C174.1 397.1 174.2 396.9 174.2 396.7C174.3 396.5 174.3 396.3 174.3 396.2C174.4 395.7 174.6 395.1 174.7 394.6C174.8 394.1 174.9 393.7 175 393.3V393.2C175 392.9 175.1 392.7 175.1 392.4C175.2 391.5 175.3 390.8 175.4 390.2C175.4 390.1 175.6 390.1 175.6 390.2C175.7 391.8 176.1 394.4 176.9 397.3C177 397.6 177.1 398 177.2 398.3V398.4C177.3 398.8 177.5 399.2 177.6 399.6C177.7 399.9 177.8 400.1 177.9 400.4C178 400.6 178 400.8 178.1 400.9C178.2 401.1 178.3 401.4 178.4 401.6C178.4 401.7 178.5 401.8 178.5 401.9C178.7 402.3 178.9 402.7 179.1 403.1C179.3 403.5 179.5 403.9 179.7 404.2C179.9 404.5 180 404.8 180.2 405.1C180.3 405.2 180.4 405.4 180.4 405.5C180.6 405.9 180.9 406.3 181.2 406.6C181.3 406.8 181.5 407 181.7 407.2C181.8 407.3 181.8 407.4 181.9 407.5C181.9 407.5 181.9 407.5 182 407.6C182.2 407.8 182.3 408 182.5 408.2C182.7 408.5 183 408.7 183.2 409C183.4 409.3 183.7 409.5 184 409.8C184.2 410 184.4 410.2 184.6 410.4L184.7 410.5C184.9 410.7 185.1 410.9 185.3 411.1C185.5 411.3 185.7 411.5 186 411.7C186.2 411.9 186.4 412 186.6 412.2C186.9 412.4 187.2 412.6 187.5 412.8C187.8 413 188.1 413.2 188.4 413.4C188.7 413.6 189 413.7 189.3 413.9C189.4 413.9 189.4 414 189.5 414C189.8 414.2 190.1 414.3 190.4 414.4C190.8 414.6 191.2 414.7 191.6 414.9C191.9 415 192.1 415.1 192.3 415.2C192.7 415.3 193 415.5 193.4 415.6C193.6 415.7 193.8 415.7 194 415.8C194.2 415.8 194.4 415.9 194.5 415.9C194.9 416 195.4 416.1 195.8 416.2C196 416.2 196.2 416.3 196.4 416.3C197.2 416.4 197.9 416.5 198.6 416.6C198.8 416.6 199 416.6 199.1 416.7C199.2 416.7 199.2 416.7 199.3 416.7C200.3 416.8 201.4 416.8 202.3 416.8C203.4 416.8 204.4 416.8 205.4 416.8C205.6 416.8 205.7 416.8 205.9 416.8C216.1 416.6 223.8 412.8 227.7 410.6" stroke="#231F20" stroke-width="1.5" stroke-miterlimit="10" stroke-linecap="round"/>
<path d="M192.6 330.3C195.7 327.6 200 324.3 205.7 321.7C216.2 316.8 225.9 316.3 231.4 316.4" stroke="#231F20" stroke-width="1.5" stroke-miterlimit="10" stroke-linecap="round"/>
<path d="M158.5 330.3C155.4 327.6 151.1 324.3 145.4 321.7C134.9 316.8 125.2 316.3 119.7 316.4" stroke="#231F20" stroke-width="1.5" stroke-miterlimit="10" stroke-linecap="round"/>
<path d="M241 127.3C239.4 126.3 230.6 124 227.8 123.3C225.9 122.9 224.2 122.4 222.6 121.8C219.4 120.6 216.8 119.1 214.4 117.8C214.3 117.7 214.1 117.7 214 117.6C213.9 117.5 213.8 117.5 213.6 117.4C213.6 117.4 213.5 117.4 213.5 117.3C212.9 117 212.3 116.6 211.8 116.3C211.7 116.2 211.7 116.2 211.6 116.2C211 115.8 210.5 115.5 210 115.1C209.7 114.9 209.5 114.7 209.2 114.6C208.8 114.3 208.5 114.1 208.1 113.8C208 113.7 207.9 113.6 207.7 113.5C207.5 113.3 207.2 113.1 207 113C206.5 112.6 206 112.2 205.6 111.8C205.3 111.5 204.9 111.2 204.6 110.9C204 110.4 203.5 109.9 203 109.4C201.5 108.1 200.4 107 199.6 106.1C199.1 105.6 198.8 105.1 198.4 104.6C198.3 104.5 198.2 104.4 198.2 104.2C198.1 104 197.9 103.7 197.8 103.5C197.7 103.3 197.5 103 197.4 102.8C197.4 102.7 197.3 102.6 197.3 102.5C197.2 102.3 197.2 102.2 197.1 102C196.7 100.8 196.3 99.1 195.9 95.8C195.8 94.8 195.7 93.8 195.6 92.6C195.5 90.2 195.4 87.4 195.6 84.3C195.6 84.3 196.7 82.8 197 82.3C199.5 78.7 200.8 75.4 202 71.3V71.2C202.3 70.3 202.5 69.4 202.7 68.5V68.4C202.9 67.5 203.2 66.5 203.4 65.4V65.3C203.5 64.8 203.6 64.4 203.7 63.9C203.8 63.4 204 62.8 204.1 62.3C204.6 59.8 205.1 57 205.6 53.9C205.6 53.7 205.7 53.5 205.7 53.4C205.8 52.5 205.9 51.6 206 50.7C206.1 50.2 206.1 49.7 206.1 49.2C206.2 48.6 206.2 48 206.3 47.4V47.3C206.3 46.9 206.4 46.5 206.4 46.2C206.5 45.1 206.5 44 206.6 42.9C206.6 42.6 206.6 42.3 206.6 42C206.6 41.8 206.6 41.6 206.6 41.4C206.6 41.2 206.6 40.9 206.6 40.7C206.7 38 206.7 34.4 206.3 30.2C205.9 25.7 205.6 23.1 204.6 20.4C201.6 12 193.9 7.59999 190.8 5.89999C185.2 1.99999 179.4 0.999988 175.5 0.799988C173.6 0.899988 171.2 1.19999 168.5 1.89999C165.8 2.59999 162.8 3.69999 159.8 5.39999C156.7 7.19999 149 11.5 146 19.9C145 22.6 144.8 25.2 144.3 29.7C143.9 33.5 143.9 36.8 144 39.4C144 39.9 144 40.5 144.1 40.9C144.2 46.7 144.8 51.8 145.5 56.2C146 59.6 146.7 62.6 147.3 65.1C147.4 65.5 147.5 66 147.6 66.4C147.6 66.5 147.7 66.6 147.7 66.8C147.8 67.3 148 67.8 148.1 68.3C148.2 68.5 148.2 68.7 148.3 69C148.4 69.4 148.5 69.8 148.6 70.2C148.6 70.3 148.6 70.3 148.6 70.4C148.8 71 148.9 71.6 149.1 72.1C150.2 75.8 151.5 79 153.9 82.4C154.2 82.9 155.3 84.4 155.3 84.4C155.5 87.6 155.4 90.4 155.3 92.7C155.2 93.9 155.1 95 155.1 95.9C155 96.4 155 96.9 154.9 97.3C154.9 97.5 154.9 97.7 154.8 97.9C154.7 98.3 154.7 98.7 154.6 99C154.5 99.7 154.4 100.3 154.2 100.8C154 101.7 153.7 102.3 153.5 102.9C153.4 103.1 153.3 103.4 153.1 103.6C153 103.8 152.8 104.1 152.7 104.3C152.6 104.4 152.6 104.5 152.5 104.7C152.2 105.2 151.8 105.7 151.3 106.2C150.5 107.1 149.4 108.2 147.9 109.5C146.6 110.7 145.1 112 143.4 113.3C143.1 113.6 142.8 113.8 142.4 114.1C142.3 114.2 142.2 114.3 142.1 114.4C141.9 114.6 141.6 114.7 141.4 114.9C141.2 115.1 140.9 115.2 140.7 115.4C140.4 115.6 140.1 115.8 139.8 116C139.4 116.3 139 116.5 138.5 116.8C138.2 117 137.8 117.2 137.4 117.4C137.1 117.6 136.9 117.7 136.6 117.9C136.3 118.1 136 118.3 135.7 118.4C132.4 120.2 128.6 122.3 123.3 123.4C120.5 124 111.7 126.4 110.1 127.4" stroke="#231F20" stroke-width="1.5" stroke-miterlimit="10"/>
<path d="M115 188.3C110.5 209.9 101.2 230 96.5 251.5C95.3 256.8 94.5 262.2 93 267.4C92 271 90.6 274.5 89.2 277.9C83.8 290.9 77.1 303.3 69.3 315C62.7 324.9 55.7 334.6 49.8 345C48.6 347.2 47.4 349.4 47.3 352C47.2 355.3 48.3 358.5 47.4 361.8C46.8 364.1 45.2 366.1 43.9 368.1C41.5 371.8 39.6 376 38.5 380.3C37.2 385.4 36.8 390.7 34.6 395.4C33.9 396.8 32.6 398.4 31.1 397.9C29.5 397.5 29.3 395.3 29.5 393.6C30.1 388.7 31.3 383.8 33.1 379.2C30.8 385 28.4 390.9 25.3 396.4C24.6 397.6 23.5 399 22.2 398.5C21.5 398.3 21 397.5 20.8 396.8C20.4 395.3 20.8 393.8 21.2 392.4C22.6 387.1 24.4 382 26.5 376.9C23.6 382.5 20.6 388.2 17.7 393.8C17.2 394.8 16.7 395.8 15.8 396.5C14.9 397.2 13.6 397.4 12.7 396.8C12.1 396.4 11.8 395.7 11.6 395C11.3 393.4 11.7 391.7 12.1 390.2C13.8 384.3 16.3 378.6 19.5 373.3C19.5 373.3 17.1 377.7 13.3 382C10.2 385.5 7.00005 391.2 3.80005 389.1C1.40005 387.6 4.20005 383.5 14.8 365.2C10.9 366 8.10005 369.3 4.70005 371.4C3.60005 372.1 2.00005 372.8 1.00005 372C0.500046 371.6 0.200046 371.1 0.100046 370.5C-0.599954 368.2 0.300046 365.6 1.80005 363.7C3.30005 361.8 5.20005 360.3 7.00005 358.6C10.4 355.5 13.4 351.9 17.1 349.2C20.9 346.5 25.5 345 29.2 342.1C36.6 336.3 41 326.1 43.2 317.2C43.7 315.9 44.1 314.6 44.5 313.4C47.3 304.8 49.6 296.1 51.3 287.2C53.1 277.8 54.8 268.3 58 259.3C63.9 242.7 74.7 228.1 79.7 211.3C83.4 199.1 83.8 186.2 85.2 173.6V173.5C85.7 169.6 86.1 166.4 86.3 164.9C87.4 158.4 89.5 152.1 92.6 146.3C94.5 142.6 96.9 139 99.5 135.8C102.4 132.3 105.8 129 110 127.4" stroke="#231F20" stroke-width="1.7157" stroke-miterlimit="10" stroke-linecap="round" stroke-linejoin="round"/>
<path d="M236.1 188.3C240.6 209.9 249.9 230 254.6 251.5C255.8 256.8 256.6 262.2 258.1 267.4C259.1 271 260.5 274.5 261.9 277.9C267.3 290.9 274 303.3 281.8 315C288.4 324.9 295.4 334.6 301.3 345C302.5 347.2 303.7 349.4 303.8 352C303.9 355.3 302.8 358.5 303.7 361.8C304.3 364.1 305.9 366.1 307.2 368.1C309.6 371.8 311.5 376 312.6 380.3C313.9 385.4 314.3 390.7 316.5 395.4C317.2 396.8 318.5 398.4 320 397.9C321.6 397.5 321.8 395.3 321.6 393.6C321 388.7 319.8 383.8 318 379.2C320.3 385 322.7 390.9 325.8 396.4C326.5 397.6 327.6 399 328.9 398.5C329.6 398.3 330.1 397.5 330.3 396.8C330.7 395.3 330.3 393.8 329.9 392.4C328.5 387.1 326.7 382 324.6 376.9C327.5 382.5 330.5 388.2 333.4 393.8C333.9 394.8 334.4 395.8 335.3 396.5C336.2 397.2 337.5 397.4 338.4 396.8C339 396.4 339.3 395.7 339.5 395C339.8 393.4 339.4 391.7 339 390.2C337.3 384.3 334.8 378.6 331.6 373.3C331.6 373.3 334 377.7 337.8 382C340.9 385.5 344.1 391.2 347.3 389.1C349.7 387.6 346.9 383.5 336.3 365.2C340.2 366 343 369.3 346.4 371.4C347.5 372.1 349.1 372.8 350.1 372C350.6 371.6 350.9 371.1 351 370.5C351.7 368.2 350.8 365.6 349.3 363.7C347.8 361.8 345.9 360.3 344.1 358.6C340.7 355.5 337.7 351.9 334 349.2C330.2 346.5 325.6 345 321.9 342.1C314.5 336.3 310.1 326.1 307.9 317.2C307.4 315.9 307 314.6 306.6 313.4C303.8 304.8 301.5 296.1 299.8 287.2C298 277.8 296.3 268.3 293.1 259.3C287.2 242.7 276.4 228.1 271.4 211.3C267.7 199.1 267.3 186.2 265.9 173.6V173.5C265.4 169.6 265 166.4 264.8 164.9C263.7 158.4 261.6 152.1 258.5 146.3C256.6 142.6 254.2 139 251.6 135.8C248.7 132.3 245.3 129 241.1 127.4" stroke="#231F20" stroke-width="1.7157" stroke-miterlimit="10" stroke-linecap="round" stroke-linejoin="round"/>
<path d="M115.9 520.2C117.8 519.3 121.7 517.8 127 518.1C131.8 518.4 135.4 520.2 137.1 521.3" stroke="#231F20" stroke-width="1.5" stroke-miterlimit="10" stroke-linecap="round"/>
<path d="M109.8 706.2C110.1 701.8 110.4 697.2 110.5 692.4C110.6 687 110.6 681.8 110.4 676.9" stroke="#231F20" stroke-miterlimit="10" stroke-linecap="round"/>
<path d="M117.4 706.2C117.1 701.8 116.8 697.2 116.7 692.4C116.6 687 116.6 681.8 116.8 676.9" stroke="#231F20" stroke-miterlimit="10" stroke-linecap="round"/>
<path d="M172.6 402C164.9 450.1 159.9 467.5 158 474.3C155.2 484.6 152.5 489.8 151.6 501.1C151 509.1 151.9 511.3 150.3 518C148.2 526.5 145.2 528.6 142.4 537.8C140.9 542.8 140.7 545.8 139.9 553.8C139.1 561.1 137.7 574.9 136 585.3C132.6 606.1 126.4 624.1 126.4 624.1C125.6 626.3 125 628.2 124.4 629.8C124.4 629.8 120.7 653.2 120.7 658.2C122.7 669.2 122.7 680.2 122.7 691.2C122.7 694.2 124.7 696.2 124.7 699.2C124.7 706.2 124.7 713.2 122.7 720.2C114.7 726.2 101.7 724.2 95.7 715.2C91.7 711.2 80.7 708.2 84.7 700.2C86.7 697.2 97 699.6 97.2 684.1C97.2 680.8 100.9 662.6 100.6 650C99.6 645.2 98.4 638.3 97.1 629.8C96.7 627.3 96.4 625.2 96.1 622.7C95.5 617.7 94.5 608.1 94.6 595.5C94.7 587.2 94.8 581.1 96.3 573.2C96.8 570.4 97.4 568 97.8 566.3C100.4 555.8 101.4 555.4 103 548.6C104.6 541.7 105.1 535.3 105.8 524.4C105.8 524.1 105.9 523.3 106 522.2C106.9 507.9 106.7 496.2 106.8 490.5C106.8 490.4 106.8 489.6 106.8 488.4C106.8 488.4 106.8 487.2 106.8 486C106.8 483.2 106.8 481.6 106.9 476.8C106.9 476.4 106.9 475.7 106.9 475.7C106.9 475.7 106.9 472.9 106.9 470C106.9 465.7 104.9 429.6 104.5 422.7C104.3 419.3 104.4 405.9 104.4 379.1C104.4 364 104.5 360 105.3 353.9C105.5 352.4 105.7 351.2 105.9 350C108.6 335.7 112.9 323.3 113.4 321.8C113.4 321.7 113.5 321.6 113.5 321.6C117.4 311.3 118.6 311.8 123.6 300.1C123.9 299.2 124.5 297.9 125.2 296.3C127.2 291.8 128.7 289.2 129.5 287.6C133 280.7 133.3 273.7 133.4 271.9C133.5 269.6 132.9 266.4 131.8 259.9C130.6 252.8 129.3 247.1 128.4 243.3C127.2 238.1 126.2 233.9 124.6 229C124.2 227.9 123.3 225.1 122.3 222.1C122 221.3 121.8 220.6 121.5 219.9C121.5 219.8 121.5 219.8 121.4 219.7C121 218.4 120.6 217.4 120.3 216.6C120 215.7 119.6 214.7 119.3 213.8C118.6 211.9 117.9 210 117.3 208.1C116.8 206.6 116.2 205.2 115.7 203.7C114.8 201.1 113.9 198.5 112.9 196" stroke="#231F20" stroke-width="1.5" stroke-miterlimit="10"/>
<path d="M235.2 520.2C233.3 519.3 229.4 517.8 224.1 518.1C219.3 518.4 215.7 520.2 214 521.3" stroke="#231F20" stroke-width="1.5" stroke-miterlimit="10" stroke-linecap="round"/>
<path d="M241.2 706.2C240.9 701.8 240.6 697.2 240.5 692.4C240.4 687 240.4 681.8 240.6 676.9" stroke="#231F20" stroke-miterlimit="10" stroke-linecap="round"/>
<path d="M233.7 706.2C234 701.8 234.3 697.2 234.4 692.4C234.5 687 234.5 681.8 234.3 676.9" stroke="#231F20" stroke-miterlimit="10" stroke-linecap="round"/>
<path d="M178.5 402C186.2 450.1 191.2 467.5 193.1 474.3C195.9 484.6 198.6 489.8 199.5 501.1C200.1 509.1 199.2 511.3 200.8 518C202.9 526.5 205.9 528.6 208.7 537.8C210.2 542.8 210.4 545.8 211.2 553.8C212 561.1 213.4 574.9 215.1 585.3C218.5 606.1 224.7 624.1 224.7 624.1C225.5 626.3 226.1 628.2 226.7 629.8C226.7 629.8 230.4 653.2 230.4 658.2C228.4 669.2 228.4 680.2 228.4 691.2C228.4 694.2 226.4 696.2 226.4 699.2C226.4 706.2 226.4 713.2 228.4 720.2C236.4 726.2 249.4 724.2 255.4 715.2C259.4 711.2 270.4 708.2 266.4 700.2C264.4 697.2 254.1 699.6 253.9 684.1C253.9 680.8 250.2 662.6 250.5 650C251.4 645.2 252.7 638.3 254 629.8C254.4 627.3 254.7 625.2 255 622.7C255.6 617.7 256.6 608.1 256.5 595.5C256.4 587.2 256.3 581.1 254.8 573.2C254.3 570.4 253.7 568 253.3 566.3C250.7 555.8 249.7 555.4 248.1 548.6C246.5 541.7 246 535.3 245.3 524.4C245.3 524.1 245.2 523.3 245.2 522.2C244.3 507.9 244.5 496.2 244.4 490.5C244.4 490.4 244.4 489.6 244.4 488.4C244.4 488.4 244.4 487.2 244.4 486C244.4 483.2 244.4 481.6 244.3 476.8C244.3 476.4 244.3 475.7 244.3 475.7C244.3 475.7 244.3 472.9 244.3 470C244.3 465.7 246.3 429.6 246.7 422.7C246.9 419.3 246.8 405.9 246.8 379.1C246.8 364 246.7 360 245.9 353.9C245.7 352.4 245.5 351.2 245.3 350C242.6 335.7 238.3 323.3 237.8 321.8C237.8 321.7 237.7 321.6 237.7 321.6C233.8 311.3 232.6 311.8 227.6 300.1C227.6 300 227.5 299.9 227.5 299.7C227.5 299.6 227.4 299.4 227.4 299.3C227.2 298.7 226.9 298 226.5 297.3C226.5 297.2 226.4 297.1 226.4 297V296.9C226.3 296.7 226.2 296.5 226.1 296.3C224.1 291.8 222.6 289.2 221.8 287.6C218.3 280.7 218 273.7 217.9 271.9C217.8 269.6 218.4 266.4 219.5 259.9C220.7 252.8 222 247.1 222.9 243.3C224.1 238.1 225.1 233.9 226.7 229C227.1 227.9 228 225.1 229.1 222.1C229.4 221.3 229.6 220.6 229.9 219.9C229.9 219.8 229.9 219.8 230 219.7C230.4 218.4 230.8 217.4 231.1 216.6C231.4 215.7 231.8 214.7 232.1 213.8C232.8 211.9 233.5 210 234.1 208.1C234.6 206.6 235.2 205.2 235.7 203.7C236.5 201.4 237.3 199.1 238.1 196.8V196.7C238.2 196.5 238.3 196.2 238.3 196" stroke="#231F20" stroke-width="1.5" stroke-miterlimit="10"/>
<path d="M271 231.1C272.7 232.7 275.2 235.4 277.3 239.3C278.6 241.7 279.2 243.6 279.8 245.3C280.7 247.9 281.7 251.7 282.1 256.5" stroke="#231F20" stroke-width="1.5" stroke-miterlimit="10" stroke-linecap="round"/>
<path d="M258.1 236C258.1 238.4 258.4 242 259.9 246.1C260.8 248.6 261.8 250.4 262.7 252C264.1 254.4 266.2 257.7 269.4 261.2" stroke="#231F20" stroke-width="1.5" stroke-miterlimit="10" stroke-linecap="round"/>
<path d="M80.1 231.1C78.4 232.7 75.9 235.4 73.8 239.3C72.5 241.7 71.9 243.6 71.3 245.3C70.4 247.9 69.4 251.7 69 256.5" stroke="#231F20" stroke-width="1.5" stroke-miterlimit="10" stroke-linecap="round"/>
<path d="M92.9 236C92.9 238.4 92.6 242 91.1 246.1C90.2 248.6 89.2 250.4 88.3 252C86.9 254.4 84.8 257.7 81.6 261.2" stroke="#231F20" stroke-width="1.5" stroke-miterlimit="10" stroke-linecap="round"/>
<path d="M214.3 53.5C214 55 213.4 56.6 212.2 59.8C211.6 61.3 211.2 62.4 210.2 63.7C210 64 209.4 64.9 208.6 65.6C207.3 66.6 205.1 67.9 203 68.3C203.3 67.3 203.5 66.3 203.8 65.3C203.8 65.2 203.8 65.2 203.8 65.1C203.9 64.6 204 64.2 204.1 63.7C204.2 63.2 204.3 62.6 204.5 62.1C205 59.9 205.4 57.6 205.8 55.1C205.9 54.6 205.9 54.1 206 53.7C206 53.5 206 53.3 206.1 53.2C206.2 52.3 206.3 51.4 206.4 50.5L206.5 49C206.6 48.4 206.6 47.8 206.7 47.2V47.1V47C206.7 46.6 206.8 46.2 206.8 45.9C206.9 45.1 206.9 44.3 206.9 43.4C206.9 43.1 206.9 42.8 206.9 42.6C207.5 42.4 209.5 41.7 211.5 42.7C213.9 43.8 214.5 46.4 214.8 47.4C215.3 49.1 215 50.6 214.3 53.5Z" stroke="#231F20" stroke-width="1.5" stroke-miterlimit="10"/>
<path d="M148 68.3C145.9 67.9 143.6 66.6 142.4 65.6C141.5 64.9 141 64.1 140.8 63.7C139.9 62.4 139.4 61.3 138.8 59.8C137.6 56.6 137 55.1 136.7 53.5C136 50.5 135.7 49.1 136.2 47.2C136.5 46.2 137.1 43.6 139.5 42.5C141.5 41.6 143.5 42.2 144.1 42.4C144.1 42.7 144.1 43 144.1 43.3C144.1 44.1 144.2 45 144.2 45.8C144.2 46.2 144.2 46.6 144.3 46.9V47C144.3 47.1 144.3 47.1 144.3 47.1C144.3 47.7 144.4 48.3 144.5 48.9L144.7 50.4C144.8 51.3 144.9 52.2 145 53.1C145 53.3 145 53.5 145.1 53.6C145.2 54.1 145.2 54.5 145.3 55C145.3 55.4 146.2 60.1 146.6 62C146.7 62.5 146.8 63.1 147 63.6C147.1 64.1 147.2 64.6 147.3 65C147.3 65.1 147.3 65.1 147.3 65.2C147.4 65.6 147.5 66 147.6 66.4C147.6 66.5 147.7 66.6 147.7 66.8C147.8 67.3 147.9 67.8 148 68.3Z" stroke="#231F20" stroke-width="1.5" stroke-miterlimit="10" stroke-linejoin="round"/>
</g>
</g>
<defs>
<clipPath id="clip0_251_2217">
<rect width="352" height="723.9" fill="white"/>
</clipPath>
<clipPath id="clip1_251_2217">
<rect width="353" height="724.4" fill="white" transform="translate(-1)"/>
</clipPath>
</defs>
</svg>
