<svg width="16" height="17" viewBox="0 0 16 17" fill="none" xmlns="http://www.w3.org/2000/svg">
<path fill-rule="evenodd" clip-rule="evenodd" d="M13.8982 2H13.0556V0.375H11.3705V2H4.62971V0.375H2.94453V2H2.10193C1.16666 2 0.416748 2.73125 0.416748 3.625V15C0.416748 15.8938 1.16666 16.625 2.10193 16.625H13.8982C14.8251 16.625 15.5834 15.8938 15.5834 15V3.625C15.5834 2.73125 14.8251 2 13.8982 2ZM13.8982 15H2.10193V6.0625H13.8982V15ZM3.36582 9.3125C3.36582 8.19125 4.30953 7.28125 5.4723 7.28125C6.63508 7.28125 7.57878 8.19125 7.57878 9.3125C7.57878 10.4338 6.63508 11.3438 5.4723 11.3438C4.30953 11.3438 3.36582 10.4338 3.36582 9.3125Z" fill="black"/>
</svg>
