<svg width="34" height="34" viewBox="0 0 34 34" fill="none" xmlns="http://www.w3.org/2000/svg">
<path d="M28.8671 11.9483L22.0671 5.13953L25.1381 2.0646C25.6353 1.56675 26.2495 1.31783 26.9806 1.31783C27.7118 1.31783 28.326 1.56675 28.8232 2.0646L31.9381 5.18346C32.4353 5.68131 32.6839 6.2963 32.6839 7.02842C32.6839 7.76055 32.4353 8.37554 31.9381 8.87338L28.8671 11.9483ZM1.18452 32.8579V26.0052L9.69548 17.4832L0 7.73127L7.63355 0L17.4168 9.79587L22.0671 5.13953L28.8671 11.9483L24.2168 16.6047L34 26.4005L26.3226 34L16.5832 24.292L8.02839 32.8579H1.18452ZM11.5819 15.5943L15.5303 11.6408L12.3277 8.43411L10.2219 10.5426L8.37935 8.69767L10.4852 6.58915L7.67742 3.77778L3.72903 7.73127L11.5819 15.5943ZM26.2348 30.3101L30.1832 26.3566L27.3755 23.5452L25.2697 25.6537L23.4271 23.8088L25.5329 21.7003L22.3303 18.4935L18.3819 22.447L26.2348 30.3101ZM3.81677 30.2222H6.88774L25.0942 11.9922L22.0232 8.91731L3.81677 27.1473V30.2222Z" fill="white"/>
</svg>
