<svg width="26" height="29" viewBox="0 0 26 29" fill="none" xmlns="http://www.w3.org/2000/svg">
<path d="M14.2688 0C8.27286 0 3.31969 4.48182 2.66796 10.4136L0.582412 13.1818C-0.069321 14.2364 -0.199668 15.5545 0.321719 16.6091C0.843105 17.5318 1.62519 18.1909 2.53761 18.3227V19.7727C2.53761 22.1455 4.23212 24.2545 6.44801 24.9136V29H20.7861V21.75C24.0448 19.5091 26 15.95 26 11.8636C26 5.27273 20.7861 0 14.2688 0ZM18.1792 20.1682V26.3636H9.05494V22.4091H7.75148C6.31766 22.4091 5.14454 21.2227 5.14454 19.7727V15.8182H3.18934C2.66796 15.8182 2.27692 15.1591 2.66796 14.7636L5.14454 11.4682C5.40524 6.59091 9.31564 2.63636 14.2688 2.63636C19.3523 2.63636 23.3931 6.72273 23.3931 11.8636C23.3931 15.5545 21.3075 18.7182 18.1792 20.1682Z" fill="black"/>
</svg>
