<svg width="100" height="25" viewBox="0 0 100 25" fill="none" xmlns="http://www.w3.org/2000/svg">
<path d="M100 16.5C100 18.1811 99.5015 19.8245 98.5675 21.2223C97.6335 22.6202 96.306 23.7096 94.7528 24.353C93.1996 24.9963 91.4906 25.1646 89.8417 24.8367C88.1929 24.5087 86.6784 23.6992 85.4896 22.5104C84.3009 21.3217 83.4913 19.8071 83.1633 18.1583C82.8354 16.5094 83.0037 14.8004 83.647 13.2472C84.2904 11.694 85.3798 10.3665 86.7777 9.43251C88.1755 8.49852 89.8189 8 91.5 8C92.6164 7.9994 93.722 8.21886 94.7535 8.64581C95.7851 9.07276 96.7223 9.69885 97.5118 10.4883C98.3012 11.2777 98.9272 12.2149 99.3542 13.2465C99.7812 14.278 100.001 15.3836 100 16.5ZM91.7496 15.6514L94.1321 13.2688C94.2176 13.191 94.2862 13.0965 94.3338 12.9912C94.3814 12.8859 94.407 12.772 94.409 12.6564C94.4111 12.5409 94.3895 12.4261 94.3456 12.3192C94.3017 12.2123 94.2364 12.1155 94.1538 12.0347C94.0711 11.9539 93.9728 11.8909 93.865 11.8494C93.7571 11.8079 93.6419 11.789 93.5264 11.7936C93.4109 11.7983 93.2976 11.8264 93.1934 11.8764C93.0892 11.9264 92.9963 11.9972 92.9205 12.0844L87.6471 17.3532H91.2504L88.8724 19.7312C88.7129 19.8907 88.6233 20.107 88.6233 20.3325C88.6233 20.558 88.7129 20.7743 88.8724 20.9338C89.0319 21.0933 89.2482 21.1829 89.4737 21.1829C89.6993 21.1829 89.9155 21.0933 90.075 20.9338L95.3575 15.6514H91.7496Z" fill="white" fill-opacity="0.5"/>
<path d="M7.06994 19.465C7.08047 19.2699 7.04582 19.075 6.9687 18.8954C6.89157 18.7159 6.77405 18.5565 6.62526 18.4297C6.13943 18.0923 5.60379 17.833 5.03775 17.661C3.77306 17.3153 2.572 16.7692 1.4803 16.0436C1.10016 15.753 0.796889 15.374 0.596922 14.9395C0.396955 14.505 0.306355 14.0283 0.333016 13.5508C0.327432 13.0413 0.450889 12.5386 0.691906 12.0896C0.932923 11.6405 1.28367 11.2597 1.71153 10.9825C2.74261 10.2965 3.96458 9.95425 5.20228 10.0049C6.44051 9.95241 7.65811 10.3344 8.64412 11.0847C9.06942 11.4079 9.4098 11.8295 9.63598 12.3133C9.86216 12.7971 9.96738 13.3285 9.94259 13.8618V13.9152H7.09663C7.10403 13.6857 7.06178 13.4573 6.97275 13.2457C6.88373 13.034 6.75003 12.844 6.58079 12.6888C6.18886 12.3532 5.68191 12.1828 5.16671 12.2133C4.66608 12.1859 4.17089 12.3284 3.76151 12.6177C3.60873 12.7254 3.48358 12.8677 3.39626 13.033C3.30894 13.1982 3.26192 13.3817 3.25902 13.5686C3.25793 13.7481 3.30422 13.9248 3.39321 14.0808C3.48221 14.2369 3.61077 14.3667 3.76596 14.4573C4.37041 14.7971 5.00816 15.074 5.6692 15.2837C6.84563 15.5854 7.9475 16.1253 8.90648 16.8701C9.27055 17.1899 9.55761 17.5879 9.74626 18.0341C9.93491 18.4804 10.0203 18.9634 9.99595 19.4473C10.0151 19.9552 9.90618 20.4598 9.6793 20.9148C9.45243 21.3698 9.11482 21.7605 8.69748 22.0511C7.68124 22.7227 6.47702 23.0528 5.26009 22.9931C3.93752 23.0266 2.63711 22.6494 1.5381 21.9134C1.03106 21.576 0.622437 21.1105 0.353759 20.5642C0.0850812 20.0178 -0.0340752 19.4102 0.0083988 18.803V18.7541H2.88549C2.85696 19.042 2.89551 19.3327 2.99811 19.6032C3.10072 19.8738 3.26459 20.117 3.47692 20.3137C4.00182 20.6617 4.6274 20.8258 5.25564 20.7803C5.72864 20.8119 6.19852 20.6835 6.58969 20.4159C6.73941 20.3068 6.86104 20.1637 6.94454 19.9983C7.02804 19.833 7.07102 19.6502 7.06994 19.465Z" fill="white" fill-opacity="0.5"/>
<path d="M26.3368 18.5248H26.3915L28.0917 10H31L28.0279 23H25.2017L23.0228 14.9831H22.9681L20.8074 23H17.9766L15 10H17.9174L19.6131 18.5248H19.6587L21.9379 10H24.0302L26.3368 18.5248Z" fill="white" fill-opacity="0.5"/>
<path d="M40 23H37V10H40V23Z" fill="white" fill-opacity="0.5"/>
<path d="M56.0955 17.7652H50.97V23H48V10H57V12.32H50.97V15.4453H56.091L56.0955 17.7652Z" fill="white" fill-opacity="0.5"/>
<path d="M73 12.32H69.5276V23H66.4585V12.32H63V10H72.9861L73 12.32Z" fill="white" fill-opacity="0.5"/>
<path d="M49.6871 0.0682373L50.9768 2.56229L52.2699 0.0682373H53.0171L51.3043 3.17983V5.03587H50.6458V3.17983L48.9331 0.0682373H49.6871Z" fill="white" fill-opacity="0.5"/>
<path d="M45.8191 2.71241H44.5601L44.5533 2.18358H45.6963C45.885 2.18358 46.05 2.15173 46.191 2.08805C46.332 2.02436 46.4412 1.93338 46.5185 1.8151C46.5981 1.69455 46.6379 1.55125 46.6379 1.38521C46.6379 1.20324 46.6027 1.0554 46.5322 0.941668C46.4639 0.825665 46.3582 0.741507 46.2149 0.689192C46.0738 0.634602 45.8941 0.607308 45.6758 0.607308H44.7068V5.03587H44.0483V0.0682373H45.6758C45.9305 0.0682373 46.158 0.0943947 46.3582 0.14671C46.5583 0.19675 46.7278 0.276359 46.8665 0.385538C47.0075 0.492442 47.1144 0.628916 47.1872 0.794959C47.26 0.961002 47.2964 1.16003 47.2964 1.39203C47.2964 1.59674 47.2441 1.78212 47.1395 1.94816C47.0348 2.11193 46.8893 2.24613 46.7027 2.35076C46.5185 2.45539 46.3024 2.52249 46.0545 2.55206L45.8191 2.71241ZM45.7884 5.03587H44.3008L44.6727 4.50022H45.7884C45.9976 4.50022 46.1751 4.46382 46.3206 4.39104C46.4685 4.31825 46.5811 4.2159 46.6584 4.08397C46.7357 3.94977 46.7744 3.79169 46.7744 3.60973C46.7744 3.42549 46.7414 3.26627 46.6755 3.13207C46.6095 2.99787 46.506 2.89438 46.365 2.82159C46.224 2.7488 46.042 2.71241 45.8191 2.71241H44.8808L44.8877 2.18358H46.1705L46.3104 2.37464C46.5492 2.39511 46.7517 2.46335 46.9177 2.57935C47.0837 2.69308 47.21 2.83865 47.2964 3.01607C47.3851 3.19348 47.4295 3.38909 47.4295 3.6029C47.4295 3.91224 47.3612 4.17382 47.2248 4.38762C47.0906 4.59916 46.9006 4.76065 46.655 4.87211C46.4093 4.98128 46.1205 5.03587 45.7884 5.03587Z" fill="white" fill-opacity="0.5"/>
<path d="M36.5784 5.03587H35.5412L35.548 4.50022H36.5784C36.9332 4.50022 37.2289 4.42629 37.4655 4.27845C37.702 4.12832 37.8794 3.91907 37.9977 3.65067C38.1183 3.37999 38.1785 3.06383 38.1785 2.70218V2.39852C38.1785 2.1142 38.1444 1.86173 38.0762 1.64109C38.008 1.41819 37.9079 1.23054 37.776 1.07814C37.644 0.923471 37.4825 0.806332 37.2915 0.726722C37.1027 0.647112 36.8855 0.607308 36.6398 0.607308H35.5207V0.0682373H36.6398C36.9651 0.0682373 37.2619 0.122827 37.5303 0.232006C37.7987 0.33891 38.0296 0.494717 38.2229 0.699427C38.4185 0.901863 38.5686 1.14752 38.6733 1.43638C38.7779 1.72298 38.8302 2.04597 38.8302 2.40535V2.70218C38.8302 3.06156 38.7779 3.38568 38.6733 3.67455C38.5686 3.96114 38.4174 4.20566 38.2195 4.4081C38.0239 4.61053 37.7873 4.76634 37.5098 4.87552C37.2346 4.98242 36.9241 5.03587 36.5784 5.03587ZM35.8926 0.0682373V5.03587H35.2341V0.0682373H35.8926Z" fill="white" fill-opacity="0.5"/>
<path d="M33.1708 4.50022V5.03587H30.5403V4.50022H33.1708ZM30.6734 0.0682373V5.03587H30.0149V0.0682373H30.6734ZM32.8228 2.20405V2.73971H30.5403V2.20405H32.8228ZM33.1367 0.0682373V0.607308H30.5403V0.0682373H33.1367Z" fill="white" fill-opacity="0.5"/>
<path d="M24.4614 0.0682373H26.1059C26.479 0.0682373 26.794 0.125101 27.051 0.238829C27.3103 0.352557 27.5071 0.520874 27.6413 0.743781C27.7777 0.964413 27.846 1.23622 27.846 1.55921C27.846 1.78667 27.7993 1.99479 27.7061 2.18358C27.6151 2.37009 27.4832 2.52931 27.3103 2.66123C27.1397 2.79088 26.935 2.88755 26.6962 2.95124L26.5119 3.02289H24.9664L24.9596 2.48723H26.1264C26.363 2.48723 26.5597 2.44629 26.7167 2.3644C26.8736 2.28025 26.9919 2.16765 27.0715 2.02663C27.1511 1.88561 27.1909 1.7298 27.1909 1.55921C27.1909 1.36815 27.1534 1.20097 27.0783 1.05767C27.0032 0.914373 26.885 0.804057 26.7235 0.726722C26.5643 0.647112 26.3584 0.607308 26.1059 0.607308H25.1199V5.03587H24.4614V0.0682373ZM27.3649 5.03587L26.1571 2.78406L26.8429 2.78065L28.0677 4.99493V5.03587H27.3649Z" fill="white" fill-opacity="0.5"/>
<path d="M22.3983 4.50022V5.03587H19.7677V4.50022H22.3983ZM19.9008 0.0682373V5.03587H19.2423V0.0682373H19.9008ZM22.0503 2.20405V2.73971H19.7677V2.20405H22.0503ZM22.3641 0.0682373V0.607308H19.7677V0.0682373H22.3641Z" fill="white" fill-opacity="0.5"/>
<path d="M13.0986 3.53466L14.0846 0.0682373H14.5622L14.2859 1.41591L13.2248 5.03587H12.7505L13.0986 3.53466ZM12.0784 0.0682373L12.8631 3.46643L13.0986 5.03587H12.6277L11.4233 0.0682373H12.0784ZM15.8383 3.46302L16.6059 0.0682373H17.2644L16.0634 5.03587H15.5926L15.8383 3.46302ZM14.6339 0.0682373L15.5926 3.53466L15.9406 5.03587H15.4664L14.4428 1.41591L14.163 0.0682373H14.6339Z" fill="white" fill-opacity="0.5"/>
<path d="M9.55801 2.39511V2.709C9.55801 3.08203 9.51138 3.41639 9.41812 3.71208C9.32486 4.00777 9.19067 4.25911 9.01552 4.4661C8.84038 4.67308 8.62999 4.83116 8.38433 4.94034C8.14096 5.04952 7.86801 5.10411 7.56549 5.10411C7.27207 5.10411 7.00254 5.04952 6.75689 4.94034C6.51351 4.83116 6.30198 4.67308 6.12229 4.4661C5.94487 4.25911 5.80726 4.00777 5.70945 3.71208C5.61165 3.41639 5.56274 3.08203 5.56274 2.709V2.39511C5.56274 2.02208 5.61051 1.68886 5.70604 1.39544C5.80385 1.09975 5.94146 0.84841 6.11887 0.641426C6.29629 0.432166 6.50669 0.272947 6.75006 0.163768C6.99572 0.0545894 7.26525 0 7.55867 0C7.86119 0 8.13413 0.0545894 8.37751 0.163768C8.62316 0.272947 8.83356 0.432166 9.0087 0.641426C9.18612 0.84841 9.32145 1.09975 9.41471 1.39544C9.51024 1.68886 9.55801 2.02208 9.55801 2.39511ZM8.90635 2.709V2.38829C8.90635 2.09259 8.87564 1.83102 8.81423 1.60356C8.75509 1.37611 8.66752 1.18505 8.55151 1.03038C8.43551 0.875705 8.29335 0.758565 8.12503 0.678956C7.95899 0.599346 7.7702 0.559541 7.55867 0.559541C7.35396 0.559541 7.16858 0.599346 7.00254 0.678956C6.83877 0.758565 6.69775 0.875705 6.57947 1.03038C6.46347 1.18505 6.37362 1.37611 6.30994 1.60356C6.24625 1.83102 6.21441 2.09259 6.21441 2.38829V2.709C6.21441 3.00697 6.24625 3.27082 6.30994 3.50055C6.37362 3.728 6.46461 3.9202 6.58288 4.07715C6.70344 4.23182 6.8456 4.34896 7.00936 4.42857C7.17541 4.50818 7.36078 4.54798 7.56549 4.54798C7.7793 4.54798 7.96923 4.50818 8.13527 4.42857C8.30131 4.34896 8.4412 4.23182 8.55493 4.07715C8.67093 3.9202 8.7585 3.728 8.81764 3.50055C8.87678 3.27082 8.90635 3.00697 8.90635 2.709Z" fill="white" fill-opacity="0.5"/>
<path d="M1.90967 3.08771H0.582467V2.55206H1.90967C2.1667 2.55206 2.37482 2.51111 2.53404 2.42923C2.69326 2.34735 2.80926 2.23362 2.88205 2.08805C2.95711 1.94247 2.99464 1.77643 2.99464 1.58992C2.99464 1.41933 2.95711 1.25897 2.88205 1.10885C2.80926 0.958727 2.69326 0.838175 2.53404 0.747193C2.37482 0.653936 2.1667 0.607308 1.90967 0.607308H0.735999V5.03587H0.0775146V0.0682373H1.90967C2.28497 0.0682373 2.60227 0.133062 2.86157 0.262712C3.12087 0.392362 3.31762 0.572052 3.45182 0.801782C3.58602 1.02924 3.65312 1.28968 3.65312 1.58309C3.65312 1.90153 3.58602 2.17334 3.45182 2.39852C3.31762 2.6237 3.12087 2.79543 2.86157 2.91371C2.60227 3.02971 2.28497 3.08771 1.90967 3.08771Z" fill="white" fill-opacity="0.5"/>
<path d="M74.8807 6.40341V6.09091H77.0625V6.40341H76.1477V9H75.7955V6.40341H74.8807ZM78.1062 6.09091H78.5266L79.5153 8.50568H79.5494L80.538 6.09091H80.9585V9H80.6289V6.78977H80.6005L79.6914 9H79.3732L78.4641 6.78977H78.4357V9H78.1062V6.09091Z" fill="white" fill-opacity="0.5"/>
</svg>
