<svg width="26" height="25" viewBox="0 0 26 25" fill="none" xmlns="http://www.w3.org/2000/svg">
<path d="M13.5254 20.3604C13.4162 20.2516 13.3295 20.1222 13.2704 19.9798C13.2112 19.8373 13.1808 19.6846 13.1808 19.5304C13.1808 19.3761 13.2112 19.2234 13.2704 19.081C13.3295 18.9385 13.4162 18.8091 13.5254 18.7003L18.5538 13.672L4.19829 13.672C3.88749 13.672 3.58942 13.5485 3.36965 13.3287C3.14988 13.109 3.02642 12.8109 3.02642 12.5001C3.02642 12.1893 3.14988 11.8912 3.36965 11.6714C3.58942 11.4517 3.88749 11.3282 4.19829 11.3282L18.5538 11.3282L13.5254 6.29793C13.3053 6.07778 13.1816 5.77919 13.1816 5.46785C13.1816 5.15651 13.3053 4.85793 13.5254 4.63778C13.7456 4.41762 14.0442 4.29395 14.3555 4.29395C14.6669 4.29395 14.9654 4.41762 15.1856 4.63778L22.2168 11.669C22.3261 11.7779 22.4128 11.9073 22.4719 12.0497C22.5311 12.1921 22.5615 12.3449 22.5615 12.4991C22.5615 12.6533 22.5311 12.8061 22.4719 12.9485C22.4128 13.0909 22.3261 13.2203 22.2168 13.3292L15.1856 20.3604C15.0767 20.4697 14.9474 20.5564 14.8049 20.6155C14.6625 20.6747 14.5098 20.7051 14.3555 20.7051C14.2013 20.7051 14.0486 20.6747 13.9061 20.6155C13.7637 20.5564 13.6343 20.4697 13.5254 20.3604Z" fill="#3A425F"/>
</svg>
