<svg width="18" height="32" viewBox="0 0 18 32" fill="none" xmlns="http://www.w3.org/2000/svg">
<path d="M0.111328 1.8963C0.111328 0.849001 0.927675 0 1.93469 0H16.0657C17.0728 0 17.8891 0.849001 17.8891 1.8963V2.84444H0.111328V1.8963Z" fill="white"/>
<path fill-rule="evenodd" clip-rule="evenodd" d="M4.66973 14.3885L4.93777 30.1756C4.94999 31.1868 5.76269 32 6.761 32H11.5123C12.5174 32 13.3329 31.1761 13.3357 30.158L13.3958 14.3885L15.2651 12.4675C16.9465 10.7395 17.8891 10.544 17.8891 8.1177V4.97778H9.11566H0.111328V8.07884C0.111328 10.5282 1.07185 10.7438 2.78158 12.4758L4.66973 14.3885ZM9.00022 23.6237C10.6366 23.6237 11.9632 22.2799 11.9632 20.6222C11.9632 18.9646 10.6366 17.6208 9.00022 17.6208C7.36382 17.6208 6.03725 18.9646 6.03725 20.6222C6.03725 22.2799 7.36382 23.6237 9.00022 23.6237Z" fill="white"/>
</svg>
