<svg width="18" height="30" viewBox="0 0 18 30" fill="none" xmlns="http://www.w3.org/2000/svg">
<path d="M0.666992 1.77778C0.666992 0.795938 1.43232 0 2.37639 0H15.6243C16.5683 0 17.3337 0.795938 17.3337 1.77778V2.66667H0.666992V1.77778Z" fill="#3A425F"/>
<path fill-rule="evenodd" clip-rule="evenodd" d="M4.9405 13.4893L5.19178 28.2897C5.20324 29.2377 5.96514 30.0001 6.90106 30.0001H11.3554C12.2977 30.0001 13.0622 29.2277 13.0648 28.2732L13.1212 13.4893L14.8736 11.6884C16.45 10.0684 17.3337 9.88509 17.3337 7.61042V4.66675H9.10855H0.666992V7.57399C0.666992 9.87024 1.56748 10.0724 3.17035 11.6961L4.9405 13.4893ZM9.00032 22.1473C10.5344 22.1473 11.7781 20.8875 11.7781 19.3334C11.7781 17.7794 10.5344 16.5196 9.00032 16.5196C7.4662 16.5196 6.22255 17.7794 6.22255 19.3334C6.22255 20.8875 7.4662 22.1473 9.00032 22.1473Z" fill="#3A425F"/>
</svg>
