<svg width="21" height="23" viewBox="0 0 21 23" fill="none" xmlns="http://www.w3.org/2000/svg">
<path d="M19.3 4.18182H15.7V2.92727C15.7 2.15091 15.405 1.40635 14.8799 0.857378C14.3548 0.308408 13.6426 0 12.9 0H8.1C7.35739 0 6.6452 0.308408 6.1201 0.857378C5.595 1.40635 5.3 2.15091 5.3 2.92727V4.18182H1.7C1.38174 4.18182 1.07652 4.31399 0.851472 4.54927C0.626428 4.78454 0.5 5.10364 0.5 5.43636C0.5 5.76909 0.626428 6.08819 0.851472 6.32346C1.07652 6.55873 1.38174 6.69091 1.7 6.69091H2.1V20.9091C2.1 21.4636 2.31071 21.9955 2.68579 22.3876C3.06086 22.7797 3.56957 23 4.1 23H16.9C17.4304 23 17.9391 22.7797 18.3142 22.3876C18.6893 21.9955 18.9 21.4636 18.9 20.9091V6.69091H19.3C19.6183 6.69091 19.9235 6.55873 20.1485 6.32346C20.3736 6.08819 20.5 5.76909 20.5 5.43636C20.5 5.10364 20.3736 4.78454 20.1485 4.54927C19.9235 4.31399 19.6183 4.18182 19.3 4.18182ZM7.7 2.92727C7.7 2.81636 7.74214 2.71 7.81716 2.63157C7.89217 2.55315 7.99391 2.50909 8.1 2.50909H12.9C13.0061 2.50909 13.1078 2.55315 13.1828 2.63157C13.2579 2.71 13.3 2.81636 13.3 2.92727V4.18182H7.7V2.92727ZM16.5 20.4909H4.5V6.69091H16.5V20.4909ZM9.3 10.0364V16.7273C9.3 17.06 9.17357 17.3791 8.94853 17.6144C8.72348 17.8496 8.41826 17.9818 8.1 17.9818C7.78174 17.9818 7.47652 17.8496 7.25147 17.6144C7.02643 17.3791 6.9 17.06 6.9 16.7273V10.0364C6.9 9.70364 7.02643 9.38454 7.25147 9.14927C7.47652 8.91399 7.78174 8.78182 8.1 8.78182C8.41826 8.78182 8.72348 8.91399 8.94853 9.14927C9.17357 9.38454 9.3 9.70364 9.3 10.0364ZM14.1 10.0364V16.7273C14.1 17.06 13.9736 17.3791 13.7485 17.6144C13.5235 17.8496 13.2183 17.9818 12.9 17.9818C12.5817 17.9818 12.2765 17.8496 12.0515 17.6144C11.8264 17.3791 11.7 17.06 11.7 16.7273V10.0364C11.7 9.70364 11.8264 9.38454 12.0515 9.14927C12.2765 8.91399 12.5817 8.78182 12.9 8.78182C13.2183 8.78182 13.5235 8.91399 13.7485 9.14927C13.9736 9.38454 14.1 9.70364 14.1 10.0364Z" fill="#FF0000"/>
</svg>