<svg width="16" height="21" viewBox="0 0 16 21" fill="none" xmlns="http://www.w3.org/2000/svg">
<path d="M13 7.49943H5V5.49943C4.99854 4.90562 5.17334 4.32473 5.50226 3.83034C5.83118 3.33594 6.29942 2.95028 6.84768 2.72219C7.39594 2.49411 7.99956 2.43386 8.58209 2.54908C9.16462 2.6643 9.69985 2.9498 10.12 3.36943C10.4959 3.7535 10.7649 4.22926 10.9 4.74943C10.9328 4.87681 10.9904 4.99648 11.0695 5.1016C11.1486 5.20673 11.2476 5.29524 11.3609 5.3621C11.4742 5.42896 11.5995 5.47285 11.7298 5.49127C11.86 5.50968 11.9926 5.50226 12.12 5.46943C12.2474 5.4366 12.3671 5.379 12.4722 5.29992C12.5773 5.22085 12.6658 5.12184 12.7327 5.00855C12.7995 4.89526 12.8434 4.76991 12.8618 4.63966C12.8802 4.50942 12.8728 4.37681 12.84 4.24943C12.6122 3.38423 12.1603 2.59437 11.53 1.95943C10.8302 1.2618 9.93934 0.787168 8.96996 0.595475C8.00058 0.403782 6.99614 0.503622 6.08346 0.882388C5.17078 1.26115 4.3908 1.90186 3.84201 2.7236C3.29321 3.54535 3.00021 4.51128 3 5.49943V7.49943C2.20435 7.49943 1.44129 7.8155 0.87868 8.37811C0.316071 8.94072 0 9.70378 0 10.4994V17.4994C0 18.2951 0.316071 19.0581 0.87868 19.6208C1.44129 20.1834 2.20435 20.4994 3 20.4994H13C13.7956 20.4994 14.5587 20.1834 15.1213 19.6208C15.6839 19.0581 16 18.2951 16 17.4994V10.4994C16 9.70378 15.6839 8.94072 15.1213 8.37811C14.5587 7.8155 13.7956 7.49943 13 7.49943ZM14 17.4994C14 17.7646 13.8946 18.019 13.7071 18.2065C13.5196 18.3941 13.2652 18.4994 13 18.4994H3C2.73478 18.4994 2.48043 18.3941 2.29289 18.2065C2.10536 18.019 2 17.7646 2 17.4994V10.4994C2 10.2342 2.10536 9.97986 2.29289 9.79233C2.48043 9.60479 2.73478 9.49943 3 9.49943H13C13.2652 9.49943 13.5196 9.60479 13.7071 9.79233C13.8946 9.97986 14 10.2342 14 10.4994V17.4994Z" fill="white"/>
</svg>
