<svg width="24" height="23" viewBox="0 0 24 23" fill="none" xmlns="http://www.w3.org/2000/svg">
<path d="M12 16.54C14.1208 16.54 15.84 14.8208 15.84 12.7C15.84 10.5792 14.1208 8.85999 12 8.85999C9.87926 8.85999 8.16003 10.5792 8.16003 12.7C8.16003 14.8208 9.87926 16.54 12 16.54Z" fill="white"/>
<path d="M8.4 0.699951L6.204 3.09995H2.4C1.08 3.09995 0 4.17995 0 5.49995V19.9C0 21.22 1.08 22.3 2.4 22.3H21.6C22.92 22.3 24 21.22 24 19.9V5.49995C24 4.17995 22.92 3.09995 21.6 3.09995H17.796L15.6 0.699951H8.4ZM12 18.7C8.688 18.7 6 16.012 6 12.7C6 9.38795 8.688 6.69995 12 6.69995C15.312 6.69995 18 9.38795 18 12.7C18 16.012 15.312 18.7 12 18.7Z" fill="white"/>
</svg>
