<svg width="160" height="40" viewBox="0 0 160 40" fill="none" xmlns="http://www.w3.org/2000/svg">
<path d="M159.075 26.151C159.075 28.8154 158.285 31.42 156.805 33.6354C155.325 35.8508 153.221 37.5775 150.759 38.5972C148.298 39.6168 145.589 39.8836 142.976 39.3638C140.362 38.844 137.962 37.5609 136.078 35.6769C134.194 33.7928 132.911 31.3924 132.391 28.7792C131.871 26.1659 132.138 23.4572 133.158 20.9956C134.177 18.5339 135.904 16.4299 138.119 14.9497C140.335 13.4694 142.939 12.6793 145.604 12.6793C147.373 12.6783 149.125 13.0261 150.76 13.7028C152.395 14.3795 153.881 15.3718 155.132 16.6229C156.383 17.8741 157.375 19.3596 158.052 20.9944C158.729 22.6293 159.076 24.3816 159.075 26.151ZM145.999 24.8059L149.775 21.0298C149.911 20.9065 150.02 20.7567 150.095 20.5898C150.171 20.4229 150.211 20.2424 150.214 20.0592C150.218 19.8761 150.183 19.6942 150.114 19.5248C150.044 19.3554 149.941 19.2019 149.81 19.0739C149.679 18.9458 149.523 18.8459 149.352 18.7802C149.181 18.7145 148.998 18.6844 148.815 18.6918C148.632 18.6991 148.453 18.7438 148.288 18.8231C148.123 18.9023 147.975 19.0144 147.855 19.1526L139.497 27.5032H145.208L141.439 31.2721C141.187 31.5248 141.045 31.8676 141.045 32.2251C141.045 32.5825 141.187 32.9253 141.439 33.1781C141.692 33.4309 142.035 33.5729 142.392 33.5729C142.75 33.5729 143.093 33.4309 143.345 33.1781L151.717 24.8059H145.999Z" fill="#3D3D3D"/>
<path d="M11.7902 30.8502C11.8068 30.541 11.7519 30.2321 11.6297 29.9475C11.5075 29.6629 11.3212 29.4103 11.0854 29.2093C10.3154 28.6746 9.46644 28.2636 8.56932 27.991C6.5649 27.4431 4.66134 26.5776 2.93109 25.4275C2.3286 24.9671 1.84795 24.3663 1.53103 23.6777C1.2141 22.9891 1.0705 22.2335 1.11276 21.4767C1.10391 20.6692 1.29958 19.8725 1.68157 19.1608C2.06356 18.4492 2.61946 17.8456 3.29757 17.4062C4.93175 16.3189 6.86845 15.7766 8.83009 15.8568C10.7926 15.7736 12.7224 16.379 14.2851 17.5682C14.9591 18.0805 15.4986 18.7487 15.8571 19.5154C16.2156 20.2821 16.3823 21.1244 16.343 21.9697V22.0542H11.8324C11.8442 21.6905 11.7772 21.3286 11.6361 20.9931C11.495 20.6577 11.2831 20.3566 11.0149 20.1105C10.3937 19.5787 9.59025 19.3086 8.7737 19.3569C7.98026 19.3135 7.19542 19.5394 6.5466 19.9978C6.30446 20.1686 6.10611 20.3941 5.96772 20.656C5.82932 20.9179 5.75479 21.2088 5.7502 21.5049C5.74848 21.7895 5.82184 22.0695 5.96288 22.3168C6.10393 22.5641 6.3077 22.7698 6.55365 22.9134C7.51165 23.452 8.52243 23.8909 9.5701 24.2233C11.4346 24.7014 13.181 25.5571 14.7009 26.7374C15.2779 27.2444 15.7329 27.8751 16.0319 28.5824C16.3308 29.2896 16.4661 30.0553 16.4276 30.8221C16.4579 31.6271 16.2853 32.4269 15.9257 33.148C15.5662 33.869 15.0311 34.4883 14.3696 34.949C12.759 36.0134 10.8504 36.5364 8.92171 36.442C6.82555 36.495 4.76453 35.8971 3.02271 34.7306C2.21909 34.1959 1.57147 33.4581 1.14564 32.5923C0.719807 31.7264 0.530955 30.7633 0.598272 29.8009V29.7234H5.15819C5.11298 30.1798 5.17407 30.6404 5.33669 31.0693C5.4993 31.4981 5.75903 31.8835 6.09554 32.1954C6.92746 32.7468 7.91895 33.0069 8.91466 32.9348C9.66432 32.9849 10.409 32.7815 11.029 32.3573C11.2663 32.1844 11.4591 31.9575 11.5914 31.6955C11.7237 31.4334 11.7919 31.1437 11.7902 30.8502Z" fill="#3D3D3D"/>
<path d="M42.3262 29.3601H42.4129L45.1077 15.8491H49.717L45.0065 36.4528H40.5273L37.0739 23.7468H36.9872L33.5627 36.4528H29.0762L24.3585 15.8491H28.9823L31.6699 29.3601H31.7421L35.3544 15.8491H38.6705L42.3262 29.3601Z" fill="#3D3D3D"/>
<path d="M63.9812 36.4528H59.2264V15.8491H63.9812V36.4528Z" fill="#3D3D3D"/>
<path d="M89.491 28.1562H81.3676V36.4528H76.6604V15.8491H90.9246V19.526H81.3676V24.4793H89.4839L89.491 28.1562Z" fill="#3D3D3D"/>
<path d="M116.283 19.526H110.78V36.4528H105.915V19.526H100.434V15.8491H116.261L116.283 19.526Z" fill="#3D3D3D"/>
<path d="M79.3343 0.108154L81.3783 4.06099L83.4278 0.108154H84.612L81.8975 5.03974V7.98139H80.8538V5.03974L78.1393 0.108154H79.3343Z" fill="#3D3D3D"/>
<path d="M73.2039 4.29892H71.2086L71.1978 3.46077H73.0093C73.3085 3.46077 73.5698 3.4103 73.7933 3.30936C74.0168 3.20842 74.1899 3.06422 74.3124 2.87676C74.4386 2.6857 74.5017 2.45859 74.5017 2.19543C74.5017 1.90703 74.4458 1.67271 74.3341 1.49246C74.2259 1.30861 74.0583 1.17522 73.8312 1.09231C73.6077 1.00579 73.3229 0.96253 72.9768 0.96253H71.4411V7.98139H70.3975V0.108154H72.9768C73.3806 0.108154 73.7411 0.149611 74.0583 0.232525C74.3755 0.311835 74.6441 0.438008 74.864 0.611046C75.0875 0.780479 75.2569 0.996777 75.3723 1.25994C75.4877 1.5231 75.5453 1.83854 75.5453 2.20624C75.5453 2.53069 75.4624 2.82449 75.2966 3.08765C75.1308 3.34721 74.9001 3.5599 74.6045 3.72573C74.3124 3.89156 73.97 3.99791 73.577 4.04477L73.2039 4.29892ZM73.1553 7.98139H70.7976L71.387 7.13242H73.1553C73.4869 7.13242 73.7681 7.07474 73.9988 6.95938C74.2331 6.84402 74.4116 6.6818 74.5342 6.47271C74.6567 6.26002 74.718 6.00948 74.718 5.72108C74.718 5.42908 74.6657 5.17673 74.5612 4.96404C74.4566 4.75134 74.2926 4.58732 74.0691 4.47196C73.8456 4.3566 73.5572 4.29892 73.2039 4.29892H71.7169L71.7277 3.46077H73.7609L73.9826 3.76358C74.3611 3.79603 74.682 3.90418 74.9451 4.08803C75.2083 4.26828 75.4084 4.499 75.5453 4.78018C75.6859 5.06137 75.7562 5.3714 75.7562 5.71026C75.7562 6.20054 75.6481 6.61511 75.4318 6.95398C75.2191 7.28924 74.9181 7.54519 74.5287 7.72183C74.1394 7.89487 73.6816 7.98139 73.1553 7.98139Z" fill="#3D3D3D"/>
<path d="M58.5583 7.98139H56.9144L56.9252 7.13242H58.5583C59.1206 7.13242 59.5893 7.01526 59.9642 6.78094C60.3391 6.54301 60.6203 6.21135 60.8078 5.78597C60.9988 5.35698 61.0944 4.85589 61.0944 4.2827V3.80144C61.0944 3.35082 61.0403 2.95067 60.9321 2.60098C60.824 2.2477 60.6654 1.95029 60.4563 1.70876C60.2472 1.46362 59.9912 1.27796 59.6884 1.15179C59.3892 1.02562 59.0449 0.96253 58.6556 0.96253H56.882V0.108154H58.6556C59.1711 0.108154 59.6416 0.194673 60.0669 0.367711C60.4923 0.537145 60.8582 0.784084 61.1647 1.10853C61.4747 1.42937 61.7126 1.81871 61.8784 2.27654C62.0443 2.73076 62.1272 3.24267 62.1272 3.81225V4.2827C62.1272 4.85228 62.0443 5.36599 61.8784 5.82382C61.7126 6.27804 61.4729 6.66558 61.1592 6.98642C60.8492 7.30726 60.4743 7.5542 60.0345 7.72724C59.5983 7.89667 59.1062 7.98139 58.5583 7.98139ZM57.4714 0.108154V7.98139H56.4277V0.108154H57.4714Z" fill="#3D3D3D"/>
<path d="M53.1576 7.13242V7.98139H48.9885V7.13242H53.1576ZM49.1994 0.108154V7.98139H48.1558V0.108154H49.1994ZM52.6061 3.49321V4.34218H48.9885V3.49321H52.6061ZM53.1036 0.108154V0.96253H48.9885V0.108154H53.1036Z" fill="#3D3D3D"/>
<path d="M39.354 0.108154H41.9604C42.5516 0.108154 43.0509 0.198278 43.4583 0.378526C43.8692 0.558774 44.181 0.825541 44.3937 1.17883C44.61 1.52851 44.7182 1.9593 44.7182 2.47121C44.7182 2.8317 44.6443 3.16156 44.4965 3.46077C44.3523 3.75637 44.1432 4.00872 43.8692 4.21781C43.5988 4.42329 43.2744 4.5765 42.8959 4.67744L42.6039 4.791H40.1543L40.1435 3.94203H41.9928C42.3678 3.94203 42.6796 3.87714 42.9283 3.74736C43.1771 3.61398 43.3645 3.43553 43.4907 3.21203C43.6169 2.98852 43.68 2.74158 43.68 2.47121C43.68 2.16839 43.6205 1.90342 43.5015 1.67631C43.3825 1.4492 43.1951 1.27436 42.9391 1.15179C42.6868 1.02562 42.3605 0.96253 41.9604 0.96253H40.3976V7.98139H39.354V0.108154ZM43.9557 7.98139L42.0415 4.41248L43.1284 4.40707L45.0697 7.9165V7.98139H43.9557Z" fill="#3D3D3D"/>
<path d="M36.084 7.13242V7.98139H31.9149V7.13242H36.084ZM32.1258 0.108154V7.98139H31.0822V0.108154H32.1258ZM35.5325 3.49321V4.34218H31.9149V3.49321H35.5325ZM36.03 0.108154V0.96253H31.9149V0.108154H36.03Z" fill="#3D3D3D"/>
<path d="M21.345 5.60211L22.9077 0.108154H23.6648L23.2268 2.24409L21.5451 7.98139H20.7934L21.345 5.60211ZM19.7282 0.108154L20.9719 5.49397L21.345 7.98139H20.5988L18.6899 0.108154H19.7282ZM25.6872 5.48856L26.9038 0.108154H27.9475L26.0441 7.98139H25.2978L25.6872 5.48856ZM23.7783 0.108154L25.2978 5.60211L25.8494 7.98139H25.0978L23.4755 2.24409L23.0321 0.108154H23.7783Z" fill="#3D3D3D"/>
<path d="M15.7335 3.79602V4.29351C15.7335 4.88472 15.6596 5.41465 15.5118 5.8833C15.364 6.35194 15.1513 6.75029 14.8737 7.07834C14.5961 7.40639 14.2627 7.65694 13.8733 7.82998C13.4876 8.00301 13.055 8.08953 12.5755 8.08953C12.1105 8.08953 11.6833 8.00301 11.294 7.82998C10.9082 7.65694 10.573 7.40639 10.2882 7.07834C10.007 6.75029 9.7889 6.35194 9.63389 5.8833C9.47887 5.41465 9.40137 4.88472 9.40137 4.29351V3.79602C9.40137 3.20481 9.47707 2.67668 9.62848 2.21164C9.78349 1.743 10.0016 1.34465 10.2828 1.0166C10.564 0.684943 10.8974 0.432595 11.2832 0.259557C11.6725 0.0865191 12.0997 0 12.5647 0C13.0442 0 13.4768 0.0865191 13.8625 0.259557C14.2518 0.432595 14.5853 0.684943 14.8629 1.0166C15.1441 1.34465 15.3586 1.743 15.5064 2.21164C15.6578 2.67668 15.7335 3.20481 15.7335 3.79602ZM14.7007 4.29351V3.78521C14.7007 3.31656 14.652 2.90199 14.5547 2.5415C14.4609 2.181 14.3221 1.87818 14.1383 1.63305C13.9544 1.38791 13.7291 1.20225 13.4624 1.07608C13.1992 0.949907 12.9 0.88682 12.5647 0.88682C12.2403 0.88682 11.9465 0.949907 11.6833 1.07608C11.4238 1.20225 11.2002 1.38791 11.0128 1.63305C10.8289 1.87818 10.6865 2.181 10.5856 2.5415C10.4847 2.90199 10.4342 3.31656 10.4342 3.78521V4.29351C10.4342 4.76576 10.4847 5.18393 10.5856 5.54804C10.6865 5.90853 10.8307 6.21315 11.0182 6.46189C11.2093 6.70703 11.4346 6.89269 11.6941 7.01886C11.9573 7.14503 12.2511 7.20812 12.5755 7.20812C12.9144 7.20812 13.2154 7.14503 13.4786 7.01886C13.7417 6.89269 13.9634 6.70703 14.1437 6.46189C14.3275 6.21315 14.4663 5.90853 14.5601 5.54804C14.6538 5.18393 14.7007 4.76576 14.7007 4.29351Z" fill="#3D3D3D"/>
<path d="M3.61156 4.89374H1.50807V4.04477H3.61156C4.01892 4.04477 4.34877 3.97988 4.60112 3.8501C4.85347 3.72033 5.03732 3.54008 5.15268 3.30936C5.27164 3.07864 5.33113 2.81548 5.33113 2.51987C5.33113 2.2495 5.27164 1.99535 5.15268 1.75742C5.03732 1.5195 4.85347 1.32843 4.60112 1.18424C4.34877 1.03643 4.01892 0.96253 3.61156 0.96253H1.7514V7.98139H0.707764V0.108154H3.61156C4.20638 0.108154 4.70927 0.210896 5.12024 0.416378C5.5312 0.621861 5.84303 0.906653 6.05572 1.27075C6.26842 1.63125 6.37476 2.04402 6.37476 2.50906C6.37476 3.01375 6.26842 3.44455 6.05572 3.80144C5.84303 4.15833 5.5312 4.4305 5.12024 4.61796C4.70927 4.80181 4.20638 4.89374 3.61156 4.89374Z" fill="#3D3D3D"/>
<path d="M121.088 9.32794V9.01544H123.27V9.32794H122.355V11.9245H122.003V9.32794H121.088ZM124.314 9.01544H124.734L125.723 11.4302H125.757L126.746 9.01544H127.166V11.9245H126.837V9.7143H126.808L125.899 11.9245H125.581L124.672 9.7143H124.643V11.9245H124.314V9.01544Z" fill="#3D3D3D"/>
</svg>
