<svg width="34" height="31" viewBox="0 0 34 31" fill="none" xmlns="http://www.w3.org/2000/svg">
<path d="M2.975 30.5C2.315 30.5 1.7375 30.25 1.2425 29.75C0.7475 29.25 0.5 28.6667 0.5 28V6.625C0.5 5.98611 0.7475 5.40972 1.2425 4.89583C1.7375 4.38194 2.315 4.125 2.975 4.125H9.03875L12.05 0.5H21.95L24.9613 4.125H31.025C31.6575 4.125 32.2281 4.38194 32.7369 4.89583C33.2456 5.40972 33.5 5.98611 33.5 6.625V28C33.5 28.6667 33.2456 29.25 32.7369 29.75C32.2281 30.25 31.6575 30.5 31.025 30.5H2.975Z" fill="white"/>
<path d="M7.5 9.36538V16H13.4473V14.2692H10.2409C10.9305 13.0577 11.8485 12.0817 12.9948 11.3413C14.1412 10.601 15.4126 10.2308 16.8089 10.2308C18.5672 10.2308 20.1187 10.7885 21.4633 11.9038C22.8079 13.0192 23.7302 14.3846 24.2301 16H25.8333C25.3334 13.9038 24.256 12.1298 22.6011 10.6779C20.9462 9.22596 19.0154 8.5 16.8089 8.5C15.1885 8.5 13.6973 8.92308 12.3354 9.76923C10.9736 10.6154 9.87894 11.7404 9.05148 13.1442V9.36538H7.5Z" fill="#3A425F"/>
<path d="M25.8333 25.1346L25.8333 18.5L19.8859 18.5L19.8859 20.2308L23.0923 20.2308C22.4028 21.4423 21.4848 22.4183 20.3384 23.1587C19.1921 23.899 17.9207 24.2692 16.5244 24.2692C14.766 24.2692 13.2145 23.7115 11.8699 22.5962C10.5253 21.4808 9.60303 20.1154 9.10311 18.5L7.49992 18.5C7.99984 20.5962 9.07725 22.3702 10.7322 23.8221C12.3871 25.274 14.3178 26 16.5244 26C18.1448 26 19.6359 25.5769 20.9978 24.7308C22.3597 23.8846 23.4543 22.7596 24.2818 21.3558L24.2818 25.1346L25.8333 25.1346Z" fill="#3A425F"/>
</svg>
