<svg width="34" height="28" viewBox="0 0 34 28" fill="none" xmlns="http://www.w3.org/2000/svg">
<path fill-rule="evenodd" clip-rule="evenodd" d="M13 1.55556H10.6C10.1757 1.55556 9.76869 1.71944 9.46863 2.01117C9.16857 2.30289 9 2.69855 9 3.11111V12.4444C9 12.857 9.16857 13.2527 9.46863 13.5444C9.76869 13.8361 10.1757 14 10.6 14H23.4C23.8243 14 24.2313 13.8361 24.5314 13.5444C24.8314 13.2527 25 12.857 25 12.4444V3.11111C25 2.69855 24.8314 2.30289 24.5314 2.01117C24.2313 1.71944 23.8243 1.55556 23.4 1.55556H21L19.4 0H14.6L13 1.55556ZM14.1716 5.02792C14.9217 4.29861 15.9391 3.88889 17 3.88889C18.0609 3.88889 19.0783 4.29861 19.8284 5.02792C20.5786 5.75723 21 6.74638 21 7.77778C21 8.80917 20.5786 9.79833 19.8284 10.5276C19.0783 11.2569 18.0609 11.6667 17 11.6667C15.9391 11.6667 14.9217 11.2569 14.1716 10.5276C13.4214 9.79833 13 8.80917 13 7.77778C13 6.74638 13.4214 5.75723 14.1716 5.02792ZM18.6971 6.12786C18.247 5.69028 17.6365 5.44444 17 5.44444C16.3635 5.44444 15.753 5.69028 15.3029 6.12786C14.8529 6.56545 14.6 7.15894 14.6 7.77778C14.6 8.39662 14.8529 8.99011 15.3029 9.42769C15.753 9.86528 16.3635 10.1111 17 10.1111C17.6365 10.1111 18.247 9.86528 18.6971 9.42769C19.1471 8.99011 19.4 8.39662 19.4 7.77778C19.4 7.15894 19.1471 6.56545 18.6971 6.12786ZM0 15.3145C0 12.2209 2.90357 9.53564 7.31939 7.92979V11.7446C4.78682 12.867 3.4 14.2858 3.4 15.3145C3.4 16.7493 6.46 19.0807 11.9 20.1567V16.3145L18.7 22.4882L11.9 27.6618V23.9229C4.93 22.6675 0 19.26 0 15.3145ZM26.8373 7.98746V11.8151C29.2703 12.9259 30.6 14.3072 30.6 15.3145C30.6 16.5699 28.05 18.722 23.8 19.7981V23.5642C29.75 22.1295 34 19.0807 34 15.3145C34 12.2576 31.165 9.59949 26.8373 7.98746Z" fill="white"/>
</svg>
